<svg xmlns="http://www.w3.org/2000/svg" width="60" height="60" fill="none" viewBox="0 0 60 60">
    <path fill="#FB6647" d="M43.653 11.85h-5.168v-.413c0-.894-.727-1.62-1.62-1.62h-1.882C34.803 7.105 32.563 5 29.831 5s-4.973 2.106-5.152 4.816h-1.881c-.894 0-1.62.727-1.62 1.62v.414h-5.056c-1.997 0-3.622 1.625-3.622 3.621V51.38c0 1.996 1.625 3.621 3.622 3.621h27.531c1.998 0 3.622-1.624 3.622-3.621V15.471c0-1.996-1.625-3.621-3.622-3.621zm0 41.76H16.122c-1.231 0-2.233-1-2.233-2.231V15.47c0-1.209.967-2.197 2.168-2.231v37.278c0 .383.312.694.695.694h26.27c.384 0 .695-.311.695-.694V13.24c1.202.034 2.169 1.022 2.169 2.231V51.38c0 1.23-1.002 2.232-2.233 2.232zM26.057 10.164c0-2.08 1.693-3.774 3.774-3.774 2.082 0 3.775 1.693 3.775 3.775 0 .087-.006.174-.013.273l-.002.024c-.014.191.053.382.184.524.132.14.317.22.509.22h2.581c.127 0 .23.104.23.232v4.112c0 .128-.102.232-.23.232H22.798c-.123 0-.231-.109-.231-.232v-4.112c0-.128.103-.232.23-.232h2.583c.193 0 .379-.081.51-.223.13-.142.197-.334.182-.527-.008-.096-.015-.193-.015-.291zm-3.26 7.006h14.068c.893 0 1.62-.727 1.62-1.62v-2.31h3.843v36.584H17.446V13.24h3.731v2.31c0 .893.727 1.62 1.62 1.62z"/>
    <path fill="#FB6647" d="M29.831 13.422c1.643 0 2.98-1.336 2.98-2.98 0-1.643-1.337-2.98-2.98-2.98s-2.98 1.337-2.98 2.98c0 1.644 1.337 2.98 2.98 2.98zm0-4.57c.877 0 1.591.713 1.591 1.59 0 .878-.714 1.591-1.59 1.591-.879 0-1.592-.713-1.592-1.59 0-.878.714-1.592 1.591-1.592zM29.587 34.454c.12.09.264.137.414.137.15 0 .292-.047.411-.136.8-.588 7.807-5.848 7.417-9.353-.13-1.167-.585-2.167-1.317-2.9l1.14-1.354c.118-.142.175-.322.16-.506-.016-.185-.103-.353-.245-.473-.126-.104-.284-.163-.447-.163-.206 0-.4.09-.532.248l-1.21 1.439c-.571-.278-1.197-.425-1.815-.425-.384 0-.751.056-1.09.168-1.115.365-1.929 1.177-2.44 1.842-.512-.666-1.326-1.477-2.44-1.842-1.956-.642-4.973.528-5.356 3.966-.39 3.505 6.557 8.764 7.35 9.352zm.469-6.734l-1.985-2.44c-.132-.164-.329-.257-.539-.257-.159 0-.314.055-.438.155-.296.242-.341.68-.1.977l2.513 3.092c.131.161.325.255.54.257.204 0 .398-.09.53-.248l5.038-5.987c.463.508.743 1.176.834 1.987.119 1.072-1.025 2.84-3.221 4.978-1.291 1.255-2.634 2.33-3.225 2.788-.586-.458-1.915-1.53-3.195-2.787-2.177-2.137-3.31-3.905-3.19-4.979.223-2.003 1.608-2.9 2.883-2.9.238 0 .46.034.66.1 1.4.458 2.209 2.031 2.242 2.097.116.236.366.388.636.388.263 0 .508-.152.624-.388.008-.016.822-1.633 2.242-2.098.2-.065.422-.098.66-.098.298 0 .593.049.879.145l-4.388 5.218zM35.58 39.51c0 .384.311.696.694.696h2.185c.383 0 .695-.312.695-.695 0-.383-.312-.695-.695-.695h-2.185c-.383 0-.694.312-.694.695zM20.575 39.51c0 .384.312.696.695.696h11.608c.383 0 .694-.312.694-.695 0-.383-.311-.695-.694-.695H21.27c-.383 0-.695.312-.695.695zM38.46 42.833H21.27c-.383 0-.695.312-.695.695 0 .382.312.694.695.694h17.19c.382 0 .694-.312.694-.694 0-.383-.312-.695-.695-.695z"/>
</svg>
