<svg width="40" height="40" viewBox="0 0 40 40" fill="none" xmlns="http://www.w3.org/2000/svg">
<path d="M37.4762 22.0876C37.2059 20.2439 35.845 18.8861 33.7434 18.3611L25.209 16.2267V15.0017C25.2059 13.2767 24.3106 11.6751 22.8418 10.7689L24.059 8.33611H25.209C25.6699 8.33611 26.0434 7.96267 26.0434 7.50174C26.0434 7.04238 25.6699 6.66895 25.209 6.66895H23.5418H23.5434C23.2278 6.66895 22.9387 6.84707 22.7981 7.12987L21.2981 10.1299C20.5824 9.95955 19.8371 9.95955 19.1215 10.1299L17.6215 7.12987C17.4809 6.84705 17.1918 6.66895 16.8762 6.66895H15.209C14.7496 6.66895 14.3762 7.04238 14.3762 7.50174C14.3762 7.96266 14.7496 8.33611 15.209 8.33611H16.3605L17.5777 10.7689C16.109 11.6751 15.2137 13.2767 15.209 15.0017V16.2267L6.67458 18.3611C4.57302 18.8861 3.21366 20.2439 2.94178 22.0876C2.70584 24.197 3.7277 26.2484 5.55586 27.3284C6.35274 27.8065 7.26678 28.0581 8.1965 28.0565C9.7215 28.005 11.1887 27.4597 12.3761 26.5019C12.4277 26.4628 12.4745 26.4191 12.5167 26.3691L14.3761 24.1378V25.7691C14.3761 31.1487 19.4885 33.2143 20.2089 33.3315C20.9292 33.2143 26.0417 31.1487 26.0417 25.7691L26.0432 24.1378L27.9026 26.3691C27.9432 26.4191 27.9917 26.4628 28.0432 26.5019C29.2308 27.4597 30.6964 28.005 32.2212 28.0565C33.1525 28.0581 34.065 27.8065 34.8634 27.3284C36.69 26.2487 37.7134 24.1972 37.4759 22.0876H37.4762ZM16.8762 15.0016C16.8762 13.161 18.3684 11.6688 20.209 11.6688C22.0512 11.6688 23.5434 13.161 23.5434 15.0016V15.8094L20.2106 15.0016L16.8778 15.8094L16.8762 15.0016ZM22.3526 19.7016L22.6026 20.0016H17.8166L18.0666 19.7016L20.2088 17.1344L22.351 19.7001L22.3526 19.7016ZM11.2994 25.2252C9.56034 26.4987 7.82754 26.7393 6.40742 25.8971C5.16366 25.1596 4.45586 23.7705 4.59178 22.3299C4.76209 21.1705 5.6449 20.3346 7.0777 19.9768L17.9309 17.2643L11.2994 25.2252ZM20.2086 31.5892C18.6649 30.9627 17.3914 29.8111 16.6149 28.3361H23.8025C23.0275 29.8111 21.754 30.9627 20.2087 31.5892H20.2086ZM24.3758 25.7688C24.3664 26.0704 24.3352 26.3719 24.2789 26.6688H16.1381C16.0835 26.3719 16.0522 26.0704 16.0428 25.7688V25.0016H24.3756L24.3758 25.7688ZM24.3758 23.336H16.043V22.1376L16.4321 21.6704L23.9869 21.6688L24.3759 22.136L24.3758 23.336ZM34.0118 25.8969C32.5915 26.7391 30.8571 26.4985 29.1198 25.2251L22.4886 17.2643L33.3418 19.9767C34.7746 20.3361 35.6575 21.1721 35.8277 22.3299C35.9637 23.7705 35.2559 25.1595 34.0121 25.8971L34.0118 25.8969Z" fill="white"/>
</svg>
