<svg width="24" height="24" viewBox="0 0 24 24" fill="none" xmlns="http://www.w3.org/2000/svg">
<g clip-path="url(#clip0_1516_1708)">
<path d="M9.12003 8.78999C8.07003 9.20999 7.14003 10.44 7.53003 12.15C8.19003 15 11.7 16.44 11.85 16.5C11.88 16.5 11.91 16.53 11.97 16.53C12.03 16.53 12.06 16.53 12.09 16.5C12.24 16.44 15.78 14.97 16.41 12.15C16.8 10.44 15.87 9.20999 14.82 8.78999C13.8 8.36999 12.72 8.69999 11.97 9.59999C11.25 8.69999 10.17 8.36999 9.12003 8.78999ZM12.24 10.26C12.93 9.14999 13.92 9.05999 14.61 9.35999C15.42 9.68999 16.14 10.65 15.84 12.03C15.3 14.28 12.57 15.63 11.97 15.9C11.37 15.63 8.64003 14.28 8.10003 12C7.80003 10.65 8.52003 9.65999 9.33003 9.32999C9.54003 9.23999 9.78003 9.17999 10.02 9.17999C10.59 9.17999 11.22 9.44999 11.7 10.23C11.82 10.44 12.12 10.44 12.24 10.26Z" fill="black"/>
<path d="M19.74 2.46C19.89 3.51 20.79 4.32 21.87 4.32C23.04 4.32 24.03 3.36 24.03 2.16C24 0.96 23.04 0 21.87 0C20.79 0 19.89 0.81 19.74 1.86H16.83C16.71 1.86 16.62 1.92 16.56 2.04L14.73 5.76C13.89 5.4 12.99 5.19 12.03 5.19C11.07 5.19 10.14 5.4 9.33 5.76L7.44 2.01C7.38 1.92 7.29 1.83 7.17 1.83H4.26C4.11 0.81 3.24 0 2.16 0C0.96 0 0 0.96 0 2.16C0 3.33 0.96 4.32 2.16 4.32C3.24 4.32 4.14 3.51 4.29 2.46H7.02L8.76 6C6.72 7.11 5.31 9.24 5.19 11.7H4.29C4.14 10.65 3.24 9.84 2.16 9.84C0.96 9.84 0 10.83 0 12C0 13.17 0.96 14.16 2.16 14.16C3.24 14.16 4.14 13.35 4.29 12.3H5.19C5.31 14.91 6.9 17.16 9.18 18.21L7.05 21.57H4.29C4.14 20.52 3.24 19.71 2.16 19.71C0.99 19.71 0 20.67 0 21.87C0 23.04 0.96 24 2.16 24C3.24 24 4.14 23.19 4.29 22.14H7.2C7.29 22.14 7.41 22.08 7.44 21.99L9.72 18.42C10.44 18.66 11.19 18.81 12 18.81C12.81 18.81 13.56 18.66 14.28 18.42L16.56 21.99C16.62 22.08 16.71 22.14 16.8 22.14H19.71C19.86 23.19 20.76 24 21.84 24C23.01 24 24 23.04 24 21.84C24 20.67 23.04 19.68 21.84 19.68C20.76 19.68 19.86 20.49 19.71 21.54H16.95L14.82 18.18C17.1 17.16 18.72 14.91 18.81 12.3H19.71C19.86 13.35 20.76 14.16 21.84 14.16C23.01 14.16 24 13.2 24 12C24 10.83 23.04 9.84 21.84 9.84C20.76 9.84 19.86 10.65 19.71 11.7H18.81C18.69 9.24 17.28 7.11 15.24 6L17.01 2.46H19.74ZM21.87 0.6C22.71 0.6 23.4 1.29 23.4 2.16C23.4 3.03 22.71 3.72 21.84 3.72C20.97 3.72 20.28 3.03 20.28 2.16C20.28 1.29 21 0.6 21.87 0.6ZM2.16 3.69C1.29 3.69 0.6 3 0.6 2.16C0.6 1.32 1.29 0.6 2.16 0.6C3.03 0.6 3.72 1.29 3.72 2.16C3.72 3.03 3 3.69 2.16 3.69ZM2.16 23.4C1.29 23.4 0.6 22.71 0.6 21.84C0.6 20.97 1.29 20.28 2.16 20.28C3.03 20.28 3.72 20.97 3.72 21.84C3.72 22.71 3 23.4 2.16 23.4ZM21.87 20.31C22.71 20.31 23.43 21 23.43 21.87C23.43 22.74 22.71 23.4 21.87 23.4C21.03 23.4 20.31 22.71 20.31 21.84C20.31 20.97 21 20.31 21.87 20.31ZM2.16 13.56C1.29 13.56 0.6 12.84 0.6 12C0.6 11.16 1.29 10.44 2.16 10.44C3.03 10.44 3.72 11.13 3.72 12C3.72 12.87 3 13.56 2.16 13.56ZM21.87 10.44C22.71 10.44 23.43 11.13 23.43 12C23.43 12.87 22.74 13.56 21.87 13.56C21 13.56 20.31 12.87 20.31 12C20.31 11.13 21 10.44 21.87 10.44ZM18.24 12C18.24 15.42 15.45 18.21 12 18.21C8.55 18.21 5.79 15.42 5.79 12C5.79 8.58 8.58 5.79 12 5.79C15.42 5.79 18.24 8.58 18.24 12Z" fill="black"/>
<path d="M12.24 10.26C12.93 9.15001 13.92 9.06001 14.61 9.36001C15.42 9.69001 16.14 10.65 15.84 12.03C15.3 14.28 12.57 15.63 11.97 15.9C11.37 15.63 8.64 14.28 8.1 12C7.8 10.65 8.52 9.66001 9.33 9.33001C9.54 9.24001 9.78 9.18001 10.02 9.18001C10.59 9.18001 11.22 9.45001 11.7 10.23C11.82 10.44 12.12 10.44 12.24 10.26Z" fill="#FF6400"/>
</g>
<defs>
<clipPath id="clip0_1516_1708">
<rect width="24" height="24" fill="white"/>
</clipPath>
</defs>
</svg>
