<svg width="50" height="51" viewBox="0 0 50 51" fill="none" xmlns="http://www.w3.org/2000/svg">
    <g clip-path="url(#16ix3d8iea)">
        <path fill-rule="evenodd" clip-rule="evenodd" d="M41.771 41.8h-.592V29.68c.355-.12.474-.6.237-.96l-2.607-2.52V14.08c.355-.12.474-.6.237-.96l-5.925-6c-.119 0-.355-.12-.474-.12h-6.873c-.118 0-.355.12-.474.24L19.968 13c-.119 0-.119.12-.119.36v.84h-3.554c-.119 0-.356.12-.474.24l-5.333 5.76c-.118 0-.118.12-.118.36V31l-1.067 1.08c-.118.12-.118.24-.118.48v9.24h-.593c-.355 0-.592.24-.592.6s.237.6.592.6H41.771c.356 0 .593-.24.593-.6s-.237-.6-.593-.6zm-7.82-13.2s0-.12 0 0l-4.503-4.8h5.332l4.74 4.8h-5.57zm-11.732.36v3.24h-1.303s0-.12-.119-.12l-4.265-4.68h5.213l.83.84-.237.24c-.119.12-.119.24-.119.48zm1.185-1.56-1.066-1.08s-.119-.12-.237-.12v-4.8h9.48v1.2h-3.555c-.119 0-.356.12-.474.24l-4.148 4.56zm12.087-4.68c-.119-.12-.237-.12-.474-.12h-2.133v-1.32c.355-.12.474-.6.237-.96L31.699 19v-4.8h5.925V25l-2.133-2.28zM37.15 13h-5.57s0-.12-.118-.12L27.196 8.2h5.214l4.74 4.8zm-16.115.6 4.74-5.04 4.74 5.04v4.2l-3.319-3.36c-.118-.12-.355-.24-.474-.24h-5.688v-.6zm0 1.8h5.45l4.74 4.8h-9.124s0-.12-.119-.12l-4.265-4.68h3.317zm-9.48 5.4 4.74-5.04 4.74 5.04V26.2H15.11c-.119 0-.356.12-.474.24l-3.081 3.24V20.8zm2.37 21v-6h2.37v6h-2.37zm3.555 0v-6.6c0-.36-.237-.6-.593-.6h-3.555c-.355 0-.592.24-.592.6v6.6h-2.37v-9l4.74-5.04 4.74 5.04v9h-2.37zm3.555 0v-8.4h1.184v8.4h-1.184zm5.924 0v-7.2h2.37v7.2h-2.37zm3.555 0V34c0-.36-.237-.6-.592-.6h-3.555c-.356 0-.593.24-.593.6v7.8h-2.37V29.2l4.74-5.04 4.74 5.04v12.6h-2.37zm3.555 0v-12h5.925v12h-5.925z" fill="#000"/>
        <path fill-rule="evenodd" clip-rule="evenodd" d="M16.887 32.2h-3.555c-.355 0-.592.24-.592.6s.237.6.592.6h3.555c.356 0 .593-.24.593-.6s-.237-.6-.593-.6zM18.665 22c0-.36-.237-.6-.593-.6h-3.555c-.355 0-.592.24-.592.6s.237.6.592.6h3.555c.356 0 .593-.24.593-.6zM29.922 29.8h-3.555c-.356 0-.593.24-.593.6s.237.6.593.6h3.555c.355 0 .592-.24.592-.6s-.237-.6-.592-.6zM26.96 12.4c0-.36-.238-.6-.593-.6h-1.185c-.356 0-.593.24-.593.6s.237.6.593.6h1.185c.355 0 .592-.24.592-.6z" fill="#000"/>
        <path fill-rule="evenodd" clip-rule="evenodd" d="M33.95 28.6s0-.12 0 0l-4.502-4.8h5.332l4.74 4.8h-5.57zM22.22 28.96v3.24h-1.304s0-.12-.119-.12l-4.265-4.68h5.213l.83.84-.237.24c-.119.12-.119.24-.119.48zM37.15 13h-5.57s0-.12-.118-.12L27.196 8.2h5.214l4.74 4.8zM21.034 15.4h5.451l4.74 4.8h-9.124s0-.12-.119-.12l-4.265-4.68h3.317z" fill="#FF6400"/>
        <path d="M16.295 35.8h-2.37v6h2.37v-6zM29.33 34.6h-2.37v7.2h2.37v-7.2z" fill="#FEC465"/>
    </g>
    <defs>
        <clipPath id="16ix3d8iea">
            <path fill="#fff" transform="translate(8 7)" d="M0 0h34.364v36H0z"/>
        </clipPath>
    </defs>
</svg>
