<svg width="80" height="80" viewBox="0 0 80 80" fill="none" xmlns="http://www.w3.org/2000/svg">
<g clip-path="url(#clip0)">
<path d="M67.4612 59.2464L65.5063 57.2916C65.1924 56.9778 64.6835 56.9778 64.3699 57.2916C64.056 57.6055 64.056 58.1144 64.3699 58.4281L66.3247 60.3829C67.0738 61.132 67.0738 62.3506 66.3247 63.0996L64.0508 65.3735L53.914 55.2367L56.1878 52.9629C56.5506 52.6001 57.033 52.4002 57.5462 52.4002C58.0595 52.4002 58.5417 52.6001 58.9046 52.9629L62.4404 56.4987C62.7543 56.8126 63.2632 56.8126 63.5768 56.4987C63.8907 56.1849 63.8907 55.676 63.5768 55.3623L60.041 51.8265C59.3747 51.1601 58.4887 50.793 57.5461 50.793C56.6036 50.793 55.7176 51.16 55.0513 51.8265L52.2097 54.668C52.2095 54.6682 52.2094 54.6683 52.2092 54.6685C52.209 54.6687 52.2089 54.6689 52.2087 54.6691L51.352 55.5258C49.7532 57.1245 47.1516 57.1246 45.5527 55.5258L34.4512 44.4242C33.6767 43.6497 33.2501 42.62 33.2501 41.5247C33.2501 40.4294 33.6768 39.3995 34.4512 38.625L38.1506 34.9256C38.817 34.2593 39.184 33.3732 39.184 32.4308C39.184 31.4884 38.817 30.6022 38.1506 29.9359L30.7305 22.5157C29.355 21.14 27.1164 21.14 25.7408 22.5157L22.8986 25.3579C16.3671 31.8895 16.3671 42.517 22.8986 49.0485L25.2903 51.4402C25.6042 51.7541 26.1131 51.7541 26.4267 51.4402C26.7406 51.1264 26.7406 50.6175 26.4267 50.3038L24.035 47.912C18.3209 42.1977 18.1367 33.016 23.4819 27.0778L32.1591 35.7549C32.3159 35.9118 32.5217 35.9903 32.7273 35.9903C32.933 35.9903 33.1387 35.9119 33.2956 35.7549C33.6095 35.4411 33.6095 34.9322 33.2956 34.6185L24.6033 25.9261L26.8772 23.6523C27.6262 22.9032 28.8448 22.9033 29.5939 23.6523L37.014 31.0724C37.3768 31.4352 37.5766 31.9177 37.5766 32.4309C37.5766 32.9441 37.3767 33.4264 37.014 33.7892L33.3146 37.4886C32.2364 38.5667 31.6427 40.0001 31.6427 41.5248C31.6427 43.0495 32.2365 44.4828 33.3146 45.561L44.416 56.6624C45.5288 57.7752 46.9905 58.3316 48.4522 58.3316C49.9139 58.3316 51.3756 57.7752 52.4884 56.6624L52.7774 56.3734L62.8991 66.4952C60.1148 69.0045 56.5499 70.3777 52.7736 70.3777C48.7284 70.3777 44.9252 68.8023 42.0648 65.942L28.1947 52.0717C27.8808 51.7578 27.372 51.7578 27.0583 52.0717C26.7444 52.3856 26.7444 52.8944 27.0583 53.2081L40.9284 67.0783C44.0924 70.2424 48.2992 71.9849 52.7737 71.9849C57.2483 71.9849 61.455 70.2424 64.619 67.0783L67.4612 64.2361C68.8368 62.8605 68.8368 60.622 67.4612 59.2464Z" fill="#27AE60"/>
<path d="M66.8191 18.0152H52.389C49.5323 18.0152 47.2082 20.3393 47.2082 23.196V48.3515C47.2082 48.6764 47.4039 48.9695 47.7043 49.094C47.8038 49.1351 47.9081 49.1552 48.0118 49.1552C48.2209 49.1552 48.4265 49.0735 48.5802 48.9198L54.693 42.807H66.8193C69.676 42.807 72.0001 40.4828 72.0001 37.6262V23.196C72 20.3394 69.6759 18.0152 66.8191 18.0152ZM70.3928 37.6262C70.3926 39.5966 68.7895 41.1998 66.8191 41.1998H54.36C54.1469 41.1998 53.9425 41.2844 53.7918 41.4352L48.8155 46.4114V23.196C48.8155 21.2255 50.4187 19.6224 52.3891 19.6224H66.8192C68.7896 19.6224 70.3928 21.2255 70.3928 23.196V37.6262Z" fill="#27AE60"/>
<path d="M65.0597 27.2015H63.3848C63.1951 27.2015 63.0409 27.0472 63.0409 26.8577V25.1826C63.0409 24.1067 62.1658 23.2315 61.0898 23.2315H58.1185C57.0426 23.2315 56.1673 24.1066 56.1673 25.1826V26.8576C56.1673 27.0472 56.013 27.2014 55.8235 27.2014H54.1486C53.0727 27.2014 52.1974 28.0766 52.1974 29.1526V32.1238C52.1974 33.1997 53.0728 34.075 54.1486 34.075H55.8235C56.0131 34.075 56.1673 34.2293 56.1673 34.4188V36.0938C56.1673 37.1697 57.0426 38.045 58.1185 38.045H61.0898C62.1657 38.045 63.0409 37.1697 63.0409 36.0938V34.4188C63.0409 34.2292 63.1952 34.075 63.3848 34.075H65.0597C66.1356 34.075 67.0109 33.1996 67.0109 32.1238V29.1526C67.0109 28.0767 66.1356 27.2015 65.0597 27.2015ZM65.0597 32.4678H63.3848C62.3089 32.4678 61.4336 33.3431 61.4336 34.419V36.0939C61.4336 36.2835 61.2794 36.4377 61.0898 36.4377H58.1185C57.9289 36.4377 57.7747 36.2834 57.7747 36.0939V34.419C57.7747 33.3431 56.8994 32.4678 55.8235 32.4678H54.1486C53.9589 32.4678 53.8047 32.3135 53.8047 32.124V29.1527C53.8047 28.9631 53.959 28.8089 54.1486 28.8089H55.8235C56.8994 28.8089 57.7747 27.9336 57.7747 26.8577V25.1826C57.7747 24.993 57.929 24.8388 58.1185 24.8388H61.0898C61.2794 24.8388 61.4336 24.993 61.4336 25.1826V26.8576C61.4336 27.9335 62.3089 28.8088 63.3848 28.8088H65.0597C65.2494 28.8088 65.4036 28.9629 65.4036 29.1526V32.124C65.4036 32.3136 65.2494 32.4678 65.0597 32.4678Z" fill="#27AE60"/>
</g>
<defs>
<clipPath id="clip0">
</clipPath>
</defs>
</svg>
