<svg width="80" height="80" viewBox="0 0 80 80" fill="none" xmlns="http://www.w3.org/2000/svg">
<rect width="64" height="64" transform="translate(8 8)" fill="white"/>
<path d="M65.75 16.25H31.75C31.0596 16.25 30.5 16.8096 30.5 17.5C30.5 18.1904 31.0596 18.75 31.75 18.75H65.75C67.8179 18.75 69.5 20.4321 69.5 22.5V57.5C69.5 59.5679 67.8179 61.25 65.75 61.25H14.25C12.1821 61.25 10.5 59.5679 10.5 57.5V22.5C10.5 20.4321 12.1821 18.75 14.25 18.75H21.75C22.4404 18.75 23 18.1904 23 17.5C23 16.8096 22.4404 16.25 21.75 16.25H14.25C10.8037 16.25 8 19.0537 8 22.5V57.5C8 60.9463 10.8037 63.75 14.25 63.75H65.75C69.1963 63.75 72 60.9463 72 57.5V22.5C72 19.0537 69.1963 16.25 65.75 16.25Z" fill="#533278"/>
<path d="M26.75 22.75C20.1333 22.75 14.75 28.1333 14.75 34.75C14.75 41.3667 20.1333 46.75 26.75 46.75C33.3667 46.75 38.75 41.3667 38.75 34.75C38.75 28.1333 33.3667 22.75 26.75 22.75ZM21.3223 42.54C22.2227 40.3755 24.3511 38.9229 26.75 38.9229C29.1489 38.9229 31.2778 40.3755 32.1782 42.54C30.6382 43.6162 28.7671 44.25 26.75 44.25C24.7329 44.25 22.8618 43.6162 21.3223 42.54ZM24.4756 34.1484V33.6787C24.4756 32.4243 25.4961 31.4043 26.75 31.4043C28.0039 31.4043 29.0244 32.4243 29.0244 33.6787V34.1484C29.0244 35.4023 28.0039 36.4229 26.75 36.4229C25.4961 36.4229 24.4756 35.4023 24.4756 34.1484ZM34.0957 40.7666C33.249 39.2256 31.9404 38 30.3765 37.2485C31.0913 36.4136 31.5244 35.3311 31.5244 34.1484V33.6787C31.5244 31.0459 29.3823 28.9043 26.75 28.9043C24.1177 28.9043 21.9756 31.0459 21.9756 33.6787V34.1484C21.9756 35.3311 22.4087 36.4136 23.1235 37.2485C21.5596 37.9995 20.251 39.2256 19.4043 40.7666C18.0591 39.127 17.25 37.0312 17.25 34.75C17.25 29.5117 21.5117 25.25 26.75 25.25C31.9883 25.25 36.25 29.5117 36.25 34.75C36.25 37.0312 35.4409 39.127 34.0957 40.7666Z" fill="#533278"/>
<path d="M46 41.25H64C64.6904 41.25 65.25 40.6904 65.25 40V30C65.25 29.3096 64.6904 28.75 64 28.75H46C45.3096 28.75 44.75 29.3096 44.75 30V40C44.75 40.6904 45.3096 41.25 46 41.25ZM47.25 31.25H62.75V38.75H47.25V31.25Z" fill="#533278"/>
<path d="M46 46.25H64C64.6904 46.25 65.25 45.6904 65.25 45C65.25 44.3096 64.6904 43.75 64 43.75H46C45.3096 43.75 44.75 44.3096 44.75 45C44.75 45.6904 45.3096 46.25 46 46.25Z" fill="#533278"/>
<path d="M45.1162 50.8838C45.3486 51.1162 45.6714 51.25 46 51.25C46.3286 51.25 46.6514 51.1162 46.8838 50.8838C47.1162 50.6514 47.25 50.3286 47.25 50C47.25 49.6714 47.1162 49.3486 46.8838 49.1162C46.6514 48.8838 46.3286 48.75 46 48.75C45.6714 48.75 45.3486 48.8838 45.1162 49.1162C44.8838 49.3486 44.75 49.6714 44.75 50C44.75 50.3286 44.8838 50.6514 45.1162 50.8838Z" fill="#533278"/>
<path d="M50.1162 49.1162C49.8838 49.3486 49.75 49.6714 49.75 50C49.75 50.3286 49.8838 50.6514 50.1162 50.8838C50.3486 51.1162 50.6714 51.25 51 51.25C51.3286 51.25 51.6514 51.1162 51.8838 50.8838C52.1162 50.6514 52.25 50.3286 52.25 50C52.25 49.6714 52.1162 49.3486 51.8838 49.1162C51.6514 48.8838 51.3286 48.75 51 48.75C50.6714 48.75 50.3486 48.8838 50.1162 49.1162Z" fill="#533278"/>
<path d="M64 48.75H56C55.3096 48.75 54.75 49.3096 54.75 50C54.75 50.6904 55.3096 51.25 56 51.25H64C64.6904 51.25 65.25 50.6904 65.25 50C65.25 49.3096 64.6904 48.75 64 48.75Z" fill="#533278"/>
<path d="M35.7085 50.5102C35.7085 49.8203 35.1484 49.2602 34.4585 49.2602H19.0415C18.3516 49.2602 17.7915 49.8203 17.7915 50.5102C17.7915 51.2007 18.3516 51.7602 19.0415 51.7602H34.4585C35.1484 51.7602 35.7085 51.2007 35.7085 50.5102Z" fill="#533278"/>
<path d="M21.0415 54.2602C20.3516 54.2602 19.7915 54.8203 19.7915 55.5102C19.7915 56.2007 20.3516 56.7602 21.0415 56.7602H32.4585C33.1484 56.7602 33.7085 56.2007 33.7085 55.5102C33.7085 54.8203 33.1484 54.2602 32.4585 54.2602H21.0415Z" fill="#533278"/>
<path d="M26.75 18.75C27.0786 18.75 27.4014 18.6162 27.6338 18.3838C27.8662 18.1514 28 17.8286 28 17.5C28 17.1714 27.8662 16.8486 27.6338 16.6162C27.4014 16.3838 27.0786 16.25 26.75 16.25C26.4214 16.25 26.0986 16.3838 25.8662 16.6162C25.6338 16.8486 25.5 17.1714 25.5 17.5C25.5 17.8286 25.6338 18.1514 25.8662 18.3838C26.0986 18.6162 26.4214 18.75 26.75 18.75Z" fill="#533278"/>
</svg>
