<svg width="80" height="80" viewBox="0 0 80 80" fill="none" xmlns="http://www.w3.org/2000/svg">
<path d="M25.9081 21.3016V18.0371C26.6003 18.2639 27.0354 18.7206 27.0354 19.1441C27.0354 19.6629 27.456 20.0836 27.9749 20.0836C28.4938 20.0836 28.9144 19.6631 28.9144 19.1441C28.9144 17.646 27.6525 16.4256 25.9081 16.0993V15.95C25.9081 15.4312 25.4875 15.0105 24.9686 15.0105C24.4497 15.0105 24.0291 15.4311 24.0291 15.95V16.0993C22.2848 16.4257 21.0228 17.6461 21.0228 19.1441C21.0228 21.2373 22.6946 22.1171 24.0291 22.6234V25.8881C23.3369 25.6612 22.9018 25.2045 22.9018 24.781C22.9018 24.2622 22.4812 23.8415 21.9623 23.8415C21.4434 23.8415 21.0228 24.2621 21.0228 24.781C21.0228 26.2791 22.2846 27.4995 24.0291 27.8259V27.9752C24.0291 28.494 24.4497 28.9147 24.9686 28.9147C25.4875 28.9147 25.9081 28.4941 25.9081 27.9752V27.8259C27.6524 27.4994 28.9144 26.279 28.9144 24.781C28.9144 22.6877 27.2426 21.8079 25.9081 21.3016ZM24.0292 20.5737C23.0926 20.1147 22.9019 19.7138 22.9019 19.1441C22.9019 18.7206 23.337 18.2639 24.0292 18.0371V20.5737ZM25.9081 25.8879V23.3513C26.8446 23.8103 27.0354 24.2112 27.0354 24.7809C27.0354 25.2044 26.6003 25.6611 25.9081 25.8879Z" fill="#F5887F"/>
<path d="M40 17.0146H31.9833C31.4645 17.0146 31.0438 17.4352 31.0438 17.9541C31.0438 18.4729 31.4644 18.8936 31.9833 18.8936H40C40.5188 18.8936 40.9395 18.473 40.9395 17.9541C40.9395 17.4353 40.5188 17.0146 40 17.0146Z" fill="#F5887F"/>
<path d="M32.9854 25.0314H31.9833C31.4645 25.0314 31.0438 25.452 31.0438 25.9709C31.0438 26.4898 31.4644 26.9104 31.9833 26.9104H32.9854C33.5042 26.9104 33.9249 26.4898 33.9249 25.9709C33.9249 25.452 33.5042 25.0314 32.9854 25.0314Z" fill="#F5887F"/>
<path d="M50.0209 32.0458H21.9624C21.4436 32.0458 21.0229 32.4664 21.0229 32.9853C21.0229 33.5042 21.4435 33.9248 21.9624 33.9248H50.0209C50.5397 33.9248 50.9604 33.5042 50.9604 32.9853C50.9604 32.4664 50.5397 32.0458 50.0209 32.0458Z" fill="#F5887F"/>
<path d="M30.9811 38.0583H27.9748C27.456 38.0583 27.0353 38.4789 27.0353 38.9978C27.0353 39.5167 27.4559 39.9373 27.9748 39.9373H30.9811C31.4999 39.9373 31.9206 39.5167 31.9206 38.9978C31.9206 38.4789 31.5 38.0583 30.9811 38.0583Z" fill="#F5887F"/>
<path d="M23.9665 38.0583H21.9624C21.4436 38.0583 21.0229 38.4789 21.0229 38.9978C21.0229 39.5167 21.4435 39.9373 21.9624 39.9373H23.9665C24.4853 39.9373 24.906 39.5167 24.906 38.9978C24.906 38.4789 24.4853 38.0583 23.9665 38.0583Z" fill="#F5887F"/>
<path d="M30.9811 42.0667H27.9748C27.456 42.0667 27.0353 42.4873 27.0353 43.0062C27.0353 43.525 27.4559 43.9457 27.9748 43.9457H30.9811C31.4999 43.9457 31.9206 43.5251 31.9206 43.0062C31.9206 42.4873 31.5 42.0667 30.9811 42.0667Z" fill="#F5887F"/>
<path d="M23.9665 42.0667H21.9624C21.4436 42.0667 21.0229 42.4873 21.0229 43.0062C21.0229 43.525 21.4435 43.9457 21.9624 43.9457H23.9665C24.4853 43.9457 24.906 43.5251 24.906 43.0062C24.906 42.4873 24.4853 42.0667 23.9665 42.0667Z" fill="#F5887F"/>
<path d="M30.9811 46.0751H27.9748C27.456 46.0751 27.0353 46.4957 27.0353 47.0146C27.0353 47.5335 27.4559 47.9541 27.9748 47.9541H30.9811C31.4999 47.9541 31.9206 47.5335 31.9206 47.0146C31.9206 46.4957 31.5 46.0751 30.9811 46.0751Z" fill="#F5887F"/>
<path d="M23.9665 46.0751H21.9624C21.4436 46.0751 21.0229 46.4957 21.0229 47.0146C21.0229 47.5335 21.4435 47.9541 21.9624 47.9541H23.9665C24.4853 47.9541 24.906 47.5335 24.906 47.0146C24.906 46.4957 24.4853 46.0751 23.9665 46.0751Z" fill="#F5887F"/>
<path d="M30.9811 50.0834H27.9748C27.456 50.0834 27.0353 50.504 27.0353 51.0229C27.0353 51.5418 27.4559 51.9624 27.9748 51.9624H30.9811C31.4999 51.9624 31.9206 51.5418 31.9206 51.0229C31.9206 50.504 31.5 50.0834 30.9811 50.0834Z" fill="#F5887F"/>
<path d="M23.9665 50.0834H21.9624C21.4436 50.0834 21.0229 50.504 21.0229 51.0229C21.0229 51.5418 21.4435 51.9624 21.9624 51.9624H23.9665C24.4853 51.9624 24.906 51.5418 24.906 51.0229C24.906 50.504 24.4853 50.0834 23.9665 50.0834Z" fill="#F5887F"/>
<path d="M30.9811 54.0918H27.9748C27.456 54.0918 27.0353 54.5124 27.0353 55.0313C27.0353 55.5502 27.4559 55.9708 27.9748 55.9708H30.9811C31.4999 55.9708 31.9206 55.5502 31.9206 55.0313C31.9206 54.5124 31.5 54.0918 30.9811 54.0918Z" fill="#F5887F"/>
<path d="M23.9665 54.0918H21.9624C21.4436 54.0918 21.0229 54.5124 21.0229 55.0313C21.0229 55.5502 21.4435 55.9708 21.9624 55.9708H23.9665C24.4853 55.9708 24.906 55.5502 24.906 55.0313C24.906 54.5124 24.4853 54.0918 23.9665 54.0918Z" fill="#F5887F"/>
<path d="M43.0063 25.0314H42.0043C41.4855 25.0314 41.0648 25.452 41.0648 25.9709C41.0648 26.4898 41.4853 26.9104 42.0043 26.9104H43.0063C43.5251 26.9104 43.9458 26.4898 43.9458 25.9709C43.9458 25.452 43.5251 25.0314 43.0063 25.0314Z" fill="#F5887F"/>
<path d="M48.0167 25.0314H47.0146C46.4958 25.0314 46.0751 25.452 46.0751 25.9709C46.0751 26.4898 46.4957 26.9104 47.0146 26.9104H48.0167C48.5355 26.9104 48.9562 26.4898 48.9562 25.9709C48.9562 25.452 48.5356 25.0314 48.0167 25.0314Z" fill="#F5887F"/>
<path d="M37.9959 25.0314H36.9938C36.475 25.0314 36.0543 25.452 36.0543 25.9709C36.0543 26.4898 36.4749 26.9104 36.9938 26.9104H37.9959C38.5146 26.9104 38.9353 26.4898 38.9353 25.9709C38.9353 25.452 38.5146 25.0314 37.9959 25.0314Z" fill="#F5887F"/>
<path d="M42.0041 21.023H31.9832C31.4644 21.023 31.0437 21.4436 31.0437 21.9625C31.0437 22.4814 31.4643 22.902 31.9832 22.902H42.0041C42.5229 22.902 42.9436 22.4814 42.9436 21.9625C42.9436 21.4436 42.523 21.023 42.0041 21.023Z" fill="#F5887F"/>
<path d="M60.0419 36.0542H55.9709V20.9604C55.9709 20.7113 55.872 20.4723 55.6957 20.2962L45.6747 10.2752C45.4986 10.0989 45.2596 10 45.0105 10H18.9561C17.3329 10 16.0124 11.3205 16.0124 12.9436V61.0438C16.0124 62.667 17.3329 63.9875 18.9561 63.9875H34.05V66.0543C34.05 68.23 35.8202 70 37.9957 70H60.0418C62.2175 70 63.9875 68.2299 63.9875 66.0543V39.9999C63.9876 37.8242 62.2175 36.0542 60.0419 36.0542ZM45.95 13.2074L52.7635 20.0209H48.0168C46.8771 20.0209 45.95 19.0938 45.95 17.9541V13.2074ZM34.05 39.9999V62.1085H18.9561C18.3689 62.1085 17.8913 61.6308 17.8913 61.0437V12.9436C17.8913 12.3565 18.3689 11.8789 18.9561 11.8789H44.071V17.9541C44.071 20.1298 45.8411 21.8998 48.0167 21.8998H54.0919V36.0541H37.9959C35.8202 36.0542 34.05 37.8242 34.05 39.9999ZM62.1087 66.0543C62.1087 67.1939 61.1815 68.1211 60.0419 68.1211H37.9959C36.8562 68.1211 35.929 67.1939 35.929 66.0543V39.9999C35.929 38.8602 36.8562 37.933 37.9959 37.933H60.0419C61.1815 37.933 62.1087 38.8602 62.1087 39.9999V66.0543Z" fill="#F5887F"/>
<path d="M58.0376 40.0625H40C38.9294 40.0625 38.0584 40.9334 38.0584 42.004V46.0124C38.0584 47.083 38.9294 47.954 40 47.954H58.0376C59.1083 47.954 59.9792 47.083 59.9792 46.0124V42.004C59.9792 40.9334 59.1083 40.0625 58.0376 40.0625ZM58.1003 46.0124C58.1003 46.047 58.0723 46.075 58.0377 46.075H40C39.9654 46.075 39.9374 46.047 39.9374 46.0124V42.004C39.9374 41.9695 39.9654 41.9414 40 41.9414H58.0376C58.0722 41.9414 58.1002 41.9695 58.1002 42.004V46.0124H58.1003Z" fill="#F5887F"/>
<path d="M42.0041 51.0855H40C38.9294 51.0855 38.0584 51.9564 38.0584 53.027V55.0312C38.0584 56.1018 38.9294 56.9727 40 56.9727H42.0041C43.0748 56.9727 43.9457 56.1018 43.9457 55.0312V53.027C43.9457 51.9564 43.0748 51.0855 42.0041 51.0855ZM42.0668 55.0313C42.0668 55.0659 42.0388 55.0939 42.0043 55.0939H40C39.9654 55.0939 39.9374 55.0659 39.9374 55.0313V53.0271C39.9374 52.9926 39.9654 52.9646 40 52.9646H42.0041C42.0387 52.9646 42.0667 52.9926 42.0667 53.0271V55.0313H42.0668Z" fill="#F5887F"/>
<path d="M58.0376 51.0855H56.0335C54.9629 51.0855 54.0919 51.9564 54.0919 53.027V55.0312C54.0919 56.1018 54.9629 56.9727 56.0335 56.9727H58.0376C59.1082 56.9727 59.9792 56.1018 59.9792 55.0312V53.027C59.9792 51.9564 59.1082 51.0855 58.0376 51.0855ZM58.1003 55.0313C58.1003 55.0659 58.0723 55.0939 58.0377 55.0939H56.0336C55.999 55.0939 55.971 55.0659 55.971 55.0313V53.0271C55.971 52.9926 55.999 52.9646 56.0336 52.9646H58.0377C58.0723 52.9646 58.1003 52.9926 58.1003 53.0271V55.0313Z" fill="#F5887F"/>
<path d="M50.0209 51.0855H48.0168C46.9462 51.0855 46.0752 51.9564 46.0752 53.027V55.0312C46.0752 56.1018 46.9462 56.9727 48.0168 56.9727H50.0209C51.0916 56.9727 51.9625 56.1018 51.9625 55.0312V53.027C51.9625 51.9564 51.0916 51.0855 50.0209 51.0855ZM50.0835 55.0313C50.0835 55.0659 50.0555 55.0939 50.0209 55.0939H48.0168C47.9822 55.0939 47.9542 55.0659 47.9542 55.0313V53.0271C47.9542 52.9926 47.9822 52.9646 48.0168 52.9646H50.0209C50.0555 52.9646 50.0835 52.9926 50.0835 53.0271V55.0313Z" fill="#F5887F"/>
<path d="M42.0041 59.1023H40C38.9294 59.1023 38.0584 59.9732 38.0584 61.0438V63.048C38.0584 64.1186 38.9294 64.9895 40 64.9895H42.0041C43.0748 64.9895 43.9457 64.1186 43.9457 63.048V61.0438C43.9457 59.9732 43.0748 59.1023 42.0041 59.1023ZM42.0668 63.048C42.0668 63.0825 42.0388 63.1105 42.0043 63.1105H40C39.9654 63.1105 39.9374 63.0825 39.9374 63.048V61.0438C39.9374 61.0093 39.9654 60.9813 40 60.9813H42.0041C42.0387 60.9813 42.0667 61.0093 42.0667 61.0438V63.048H42.0668Z" fill="#F5887F"/>
<path d="M58.0376 59.1023H56.0335C54.9629 59.1023 54.0919 59.9732 54.0919 61.0438V63.048C54.0919 64.1186 54.9629 64.9895 56.0335 64.9895H58.0376C59.1082 64.9895 59.9792 64.1186 59.9792 63.048V61.0438C59.9792 59.9732 59.1082 59.1023 58.0376 59.1023ZM58.1003 63.048C58.1003 63.0825 58.0723 63.1105 58.0377 63.1105H56.0336C55.999 63.1105 55.971 63.0825 55.971 63.048V61.0438C55.971 61.0093 55.999 60.9813 56.0336 60.9813H58.0377C58.0723 60.9813 58.1003 61.0093 58.1003 61.0438V63.048Z" fill="#F5887F"/>
<path d="M50.0209 59.1023H48.0168C46.9462 59.1023 46.0752 59.9732 46.0752 61.0438V63.048C46.0752 64.1186 46.9462 64.9895 48.0168 64.9895H50.0209C51.0916 64.9895 51.9625 64.1186 51.9625 63.048V61.0438C51.9625 59.9732 51.0916 59.1023 50.0209 59.1023ZM50.0835 63.048C50.0835 63.0825 50.0555 63.1105 50.0209 63.1105H48.0168C47.9822 63.1105 47.9542 63.0825 47.9542 63.048V61.0438C47.9542 61.0093 47.9822 60.9813 48.0168 60.9813H50.0209C50.0555 60.9813 50.0835 61.0093 50.0835 61.0438V63.048Z" fill="#F5887F"/>
</svg>
