<svg width="80" height="80" viewBox="0 0 80 80" fill="none" xmlns="http://www.w3.org/2000/svg">
<g clip-path="url(#clip0)">
<rect width="64" height="64" transform="translate(8 8)" fill="white"/>
<path d="M68.7253 22.9333H44.2667V11.2747C44.2649 9.46685 42.7998 8.00176 40.992 8H11.2747C9.46685 8.00176 8.00176 9.46685 8 11.2747V29.2587C8.00123 31.0378 9.42141 32.4911 11.2 32.5333V37.312C11.2007 37.9296 11.5525 38.4931 12.1071 38.765C12.6617 39.0368 13.3226 38.9697 13.8112 38.592L21.7269 32.5333H35.7333V41.0667H11.2736C9.46637 41.0684 8.00176 42.533 8 44.3403V62.3264C8.00125 64.1053 9.42158 65.5583 11.2 65.6V70.3819C11.1991 71.0002 11.5506 71.5651 12.1059 71.8373C12.6612 72.1094 13.323 72.0414 13.8112 71.6619L21.7259 65.6H40.9931C42.8003 65.5982 44.2649 64.1336 44.2667 62.3264V50.6667H58.2731L66.1739 56.7179C66.6611 57.1048 67.327 57.1783 67.8869 56.907C68.4468 56.6357 68.8017 56.0675 68.8 55.4453V50.6667C70.5782 50.6244 71.9982 49.1717 72 47.3931V26.208C71.9982 24.4002 70.5332 22.9351 68.7253 22.9333V22.9333ZM17.6 30.4C17.0109 30.4 16.5333 30.8776 16.5333 31.4667C16.5333 32.0558 17.0109 32.5333 17.6 32.5333H18.2187L13.3333 36.2752V32.5333C13.9224 32.5333 14.4 32.0558 14.4 31.4667C14.4 30.8776 13.9224 30.4 13.3333 30.4H11.2747C10.6446 30.3994 10.1339 29.8888 10.1333 29.2587V11.2747C10.1339 10.6446 10.6446 10.1339 11.2747 10.1333H40.992C41.6221 10.1339 42.1327 10.6446 42.1333 11.2747V22.9333H39.008C37.2002 22.9351 35.7351 24.4002 35.7333 26.208V30.4H17.6ZM42.1333 62.3264C42.1327 62.9559 41.6226 63.4661 40.9931 63.4667H17.6C17.0109 63.4667 16.5333 63.9442 16.5333 64.5333C16.5333 65.1224 17.0109 65.6 17.6 65.6H18.2165L13.3333 69.3333V65.6C13.9224 65.6 14.4 65.1224 14.4 64.5333C14.4 63.9442 13.9224 63.4667 13.3333 63.4667H11.2736C10.6441 63.4661 10.1339 62.9559 10.1333 62.3264V44.3403C10.1339 43.7108 10.6441 43.2006 11.2736 43.2H40.9931C41.6226 43.2006 42.1327 43.7108 42.1333 44.3403V62.3264ZM69.8667 47.3931C69.8655 48.0227 69.355 48.5327 68.7253 48.5333H66.6667C66.0776 48.5333 65.6 49.0109 65.6 49.6C65.6 50.1891 66.0776 50.6667 66.6667 50.6667V54.4085L61.7813 50.6667H62.4C62.9891 50.6667 63.4667 50.1891 63.4667 49.6C63.4667 49.0109 62.9891 48.5333 62.4 48.5333H44.2667V44.3403C44.2649 42.533 42.8003 41.0684 40.9931 41.0667H37.8667V26.208C37.8673 25.5779 38.3779 25.0673 39.008 25.0667H68.7253C69.3554 25.0673 69.8661 25.5779 69.8667 26.208V47.3931Z" fill="#00BCD4"/>
<path d="M25.0668 12.2667C22.7104 12.2667 20.8001 14.1769 20.8001 16.5333C20.8001 17.1225 21.2777 17.6 21.8668 17.6C22.4559 17.6 22.9335 17.1225 22.9335 16.5333C22.9335 15.3551 23.8886 14.4 25.0668 14.4C26.245 14.4 27.2001 15.3551 27.2001 16.5333C27.2001 17.7116 26.245 18.6667 25.0668 18.6667C24.4777 18.6667 24.0001 19.1442 24.0001 19.7333V21.8667C24.0001 22.4558 24.4777 22.9333 25.0668 22.9333C25.6559 22.9333 26.1335 22.4558 26.1335 21.8667V20.6656C28.2159 20.1302 29.5746 18.1288 29.3037 15.9958C29.0328 13.8627 27.217 12.2646 25.0668 12.2667Z" fill="#00BCD4"/>
<path d="M25.0667 27.2C25.6558 27.2 26.1333 26.7224 26.1333 26.1333C26.1333 25.5442 25.6558 25.0667 25.0667 25.0667C24.4776 25.0667 24 25.5442 24 26.1333C24 26.7224 24.4776 27.2 25.0667 27.2Z" fill="#00BCD4"/>
<path d="M25.0668 45.3333C22.7104 45.3333 20.8001 47.2436 20.8001 49.6C20.8001 50.1891 21.2777 50.6667 21.8668 50.6667C22.4559 50.6667 22.9335 50.1891 22.9335 49.6C22.9335 48.4218 23.8886 47.4667 25.0668 47.4667C26.245 47.4667 27.2001 48.4218 27.2001 49.6C27.2001 50.7782 26.245 51.7333 25.0668 51.7333C24.4777 51.7333 24.0001 52.2109 24.0001 52.8V54.9333C24.0001 55.5224 24.4777 56 25.0668 56C25.6559 56 26.1335 55.5224 26.1335 54.9333V53.7323C28.2159 53.1969 29.5746 51.1955 29.3037 49.0624C29.0328 46.9294 27.217 45.3312 25.0668 45.3333Z" fill="#00BCD4"/>
<path d="M25.0667 60.2667C25.6558 60.2667 26.1333 59.7891 26.1333 59.2C26.1333 58.6109 25.6558 58.1334 25.0667 58.1334C24.4776 58.1334 24 58.6109 24 59.2C24 59.7891 24.4776 60.2667 25.0667 60.2667Z" fill="#00BCD4"/>
<path d="M54.8628 28.9503C54.7049 28.5374 54.3086 28.2647 53.8666 28.2647C53.4245 28.2647 53.0282 28.5374 52.8703 28.9503L47.537 42.817C47.4002 43.1729 47.4636 43.5748 47.7035 43.8712C47.9433 44.1677 48.3231 44.3137 48.6998 44.2542C49.0764 44.1947 49.3927 43.9388 49.5295 43.5828L51.3172 38.9332H56.4159L58.2036 43.5828C58.4151 44.1331 59.0326 44.4077 59.5828 44.1962C60.1331 43.9847 60.4076 43.3672 60.1962 42.817C59.0772 39.9103 56.5492 33.3322 54.8628 28.9503V28.9503ZM52.1375 36.7999L53.8666 32.305L55.5956 36.7999H52.1375Z" fill="#00BCD4"/>
</g>
<defs>
<clipPath id="clip0">
<rect width="64" height="64" fill="white" transform="translate(8 8)"/>
</clipPath>
</defs>
</svg>
