<svg width="80" height="80" viewBox="0 0 80 80" fill="none" xmlns="http://www.w3.org/2000/svg">
<path d="M68.3406 68.7229L65.5093 52.1475C65.2042 50.3616 63.9373 48.927 62.2027 48.4038L54.5662 46.0996C54.4081 44.2329 53.6427 42.4718 52.369 41.0778C51.3501 39.9628 50.0686 39.1509 48.656 38.7029C48.8977 38.4346 49.1218 38.1673 49.3275 37.9058C51.1435 35.5961 52.1157 33.0516 52.3632 31.3153H52.9523C54.4846 31.3153 55.7312 30.0688 55.7312 28.5364V27.1119C55.7312 26.0893 55.156 25.1626 54.2908 24.6817V21.2563C54.2908 20.7386 53.8712 20.319 53.3536 20.319C52.836 20.319 52.4165 20.7385 52.4165 21.2563V25.1017C52.0515 25.1651 51.616 25.2746 51.1705 25.4622C51.1248 25.4789 51.0805 25.4981 51.0385 25.5212C50.9378 25.5671 50.8371 25.6155 50.7367 25.67V18.1173C50.7367 16.0306 49.0392 14.3331 46.9526 14.3331H44.3657C43.4735 14.3331 42.6018 14.644 41.9111 15.2087L41.6572 15.4163C41.191 15.7975 40.6025 16.0075 40.0001 16.0075C39.3977 16.0075 38.8091 15.7975 38.3428 15.4163L38.0891 15.2087C37.3983 14.6441 36.5267 14.3331 35.6345 14.3331H33.0473C30.9607 14.3331 29.2632 16.0306 29.2632 18.1173V25.67C29.1628 25.6155 29.0621 25.5671 28.9615 25.5212C28.9195 25.4981 28.8752 25.4789 28.8296 25.4622C28.3841 25.2746 27.9485 25.1651 27.5836 25.1017V15.3781C27.5836 12.3434 30.0526 9.87437 33.0873 9.87437H46.9125C49.9473 9.87437 52.4162 12.3434 52.4162 15.3781V16.8514C52.4162 17.369 52.8358 17.7886 53.3533 17.7886C53.8708 17.7886 54.2906 17.3691 54.2906 16.8514V15.3781C54.2906 11.3099 50.9807 8 46.9125 8H33.0873C29.019 8 25.7092 11.3099 25.7092 15.3781V24.6819C24.8441 25.1628 24.2688 26.0892 24.2688 27.112V28.5365C24.2688 30.0689 25.5155 31.3154 27.0477 31.3154H27.6368C27.8842 33.0517 28.8566 35.5962 30.6726 37.9059C30.878 38.1671 31.102 38.4342 31.3435 38.7022C28.096 39.7337 25.7277 42.6535 25.4338 46.0996L17.7971 48.4038C16.0625 48.927 14.7955 50.3616 14.4905 52.1475L13.3407 58.8786C13.2536 59.3889 13.5966 59.873 14.1067 59.9601C14.6167 60.0475 15.1011 59.7044 15.1883 59.1941L16.3381 52.463C16.5226 51.3825 17.2891 50.5147 18.3385 50.1982L25.4016 48.0671V49.921C23.7826 50.219 22.405 51.3311 21.8376 52.872C21.687 53.281 21.5933 53.7092 21.5593 54.1447L20.8767 62.9066C20.8252 63.5666 21.0536 64.2239 21.503 64.7095C21.9523 65.1952 22.5897 65.474 23.2516 65.474H24.4201C24.9377 65.474 25.3573 65.0545 25.3573 64.5368C25.3573 64.019 24.9377 63.5996 24.4201 63.5996H23.2516C23.1105 63.5996 22.9747 63.5404 22.8788 63.4366C22.7831 63.3331 22.7345 63.1931 22.7455 63.0525L23.4281 54.2905C23.4487 54.0266 23.5053 53.7673 23.5966 53.5196C23.9913 52.4478 25.0573 51.7219 26.2495 51.7135L26.4038 51.7124C26.4111 51.7123 26.4182 51.7122 26.4253 51.7122C27.584 51.7122 28.6096 52.3693 29.0422 53.3906C29.1636 53.677 29.2373 53.9798 29.2616 54.2905L29.9445 63.0526C29.9553 63.1931 29.9067 63.3331 29.811 63.4367C29.7152 63.5402 29.5793 63.5996 29.4382 63.5996H28.2697C27.7521 63.5996 27.3325 64.0191 27.3325 64.5368C27.3325 65.0544 27.7521 65.474 28.2697 65.474H29.4382C30.1001 65.474 30.7376 65.1954 31.1868 64.7095C31.6363 64.2236 31.8647 63.5665 31.8132 62.9067L31.1303 54.1447C31.0903 53.632 30.9685 53.1321 30.7681 52.6592C30.1507 51.2021 28.8306 50.189 27.2758 49.9149V47.5016L30.4976 46.5295C30.7907 47.1469 31.3716 48.481 32.5222 51.3569C33.6818 54.2586 35.1232 57.978 36.5056 61.5938C36.5155 61.6241 36.5268 61.6538 36.5396 61.6828C37.4621 64.0966 38.357 66.4609 39.1223 68.5004C39.2596 68.8661 39.6092 69.1084 39.9998 69.1084C40.3905 69.1084 40.7401 68.8661 40.8773 68.5004C41.6426 66.4609 42.5375 64.0966 43.4601 61.6828C43.473 61.6538 43.4842 61.624 43.4941 61.5938C44.8755 57.9801 46.3161 54.2631 47.4752 51.3623C48.6273 48.4826 49.2087 47.1474 49.502 46.5295L52.7237 47.5016V53.0373C50.4915 53.4709 48.8006 55.4396 48.8006 57.7969C48.8006 60.4708 50.976 62.6463 53.65 62.6463C56.324 62.6463 58.4993 60.4709 58.4993 57.7969C58.4993 55.4474 56.8196 53.4834 54.5981 53.0412V48.0672L61.6613 50.1984C62.7107 50.5149 63.4771 51.3826 63.6617 52.4631L66.493 69.0385C66.54 69.3134 66.4668 69.5821 66.287 69.7952C66.1072 70.0082 65.8546 70.1258 65.5757 70.1258H14.424C14.1451 70.1258 13.8926 70.0084 13.7127 69.7952C13.533 69.5821 13.4597 69.3135 13.5067 69.0385L14.4411 63.5682C14.5282 63.058 14.1852 62.5739 13.6751 62.4868C13.1651 62.3993 12.6807 62.7426 12.5935 63.2528L11.6591 68.723C11.5197 69.5395 11.7461 70.3709 12.2801 71.004C12.8143 71.637 13.5957 72 14.424 72H65.5757C66.404 72 67.1855 71.637 67.7196 71.0039C68.2536 70.3708 68.48 69.5394 68.3406 68.7229ZM52.4275 27.0111C52.9268 26.8866 53.3277 26.8889 53.3322 26.889C53.4937 26.8911 53.6507 26.8534 53.7902 26.7803C53.832 26.8841 53.8566 26.9957 53.8566 27.112V28.5365C53.8566 29.0353 53.4508 29.441 52.9521 29.441H52.4275V27.0111ZM27.5722 29.441H27.0476C26.5488 29.441 26.1431 29.0353 26.1431 28.5365V27.112C26.1431 26.9957 26.1678 26.8841 26.2095 26.7804C26.3488 26.8535 26.5058 26.8912 26.6675 26.889C26.6746 26.8902 27.0743 26.888 27.5722 27.0116V29.441ZM29.4466 30.4919V28.0296C29.7306 28.1147 30.0412 28.1031 30.328 27.9835C30.8198 27.7782 31.1376 27.3016 31.1376 26.769V18.1173C31.1376 17.0643 31.9943 16.2075 33.0473 16.2075H35.6342C36.0952 16.2075 36.5456 16.3681 36.9025 16.6599L37.1562 16.8674C37.9563 17.5216 38.9662 17.8818 39.9998 17.8818C41.0335 17.8818 42.0433 17.5215 42.8435 16.8674L43.0972 16.6599C43.454 16.3681 43.9045 16.2075 44.3655 16.2075H46.9523C48.0053 16.2075 48.8621 17.0643 48.8621 18.1173V26.7691C48.8621 27.3016 49.1798 27.7784 49.6717 27.9836C49.836 28.0521 50.008 28.0854 50.1785 28.0854C50.3056 28.0854 50.4317 28.0668 50.5531 28.0305V30.4919C50.5531 31.8602 49.6071 34.5175 47.8538 36.7472C47.2731 37.4859 46.5266 38.2794 45.6075 38.9729C45.5783 38.9924 45.5505 39.0135 45.5238 39.036C44.1 40.0887 42.2691 40.8952 39.9998 40.8952C37.7306 40.8952 35.8997 40.0888 34.4757 39.0359C34.4491 39.0135 34.4213 38.9924 34.3923 38.973C33.4732 38.2794 32.7267 37.4859 32.1458 36.7472C30.3927 34.5176 29.4466 31.8602 29.4466 30.4919ZM46.1398 45.6338L39.9998 50.223L33.8598 45.6338C34.4687 44.8599 34.8098 43.8665 34.8098 42.98V41.4692C36.2537 42.2457 37.9766 42.7697 39.9998 42.7697C42.0231 42.7697 43.7461 42.2457 45.1898 41.4692V42.98C45.1898 43.8665 45.531 44.8599 46.1398 45.6338ZM32.2957 44.5876C31.7952 44.397 31.2403 44.3658 30.7155 44.5081C30.6925 44.5135 30.67 44.5196 30.6481 44.5261L27.4102 45.5031C27.9578 42.8104 30.1443 40.6671 32.9355 40.252V42.98C32.9355 43.568 32.673 44.1759 32.2957 44.5876ZM34.8393 52.1111C34.8376 52.1068 34.8358 52.1024 34.8342 52.0981C34.7867 51.978 34.7398 51.8595 34.6933 51.7424C34.685 51.7211 34.6766 51.7 34.6682 51.679C34.6227 51.5644 34.5776 51.4506 34.5331 51.3387C34.53 51.3309 34.5268 51.3231 34.5237 51.3151C34.3848 50.966 34.251 50.6311 34.1222 50.3102C34.1128 50.287 34.1035 50.2634 34.0941 50.2402C34.0571 50.1482 34.0207 50.0576 33.9846 49.9681C33.9713 49.9352 33.9582 49.9028 33.9451 49.8703C33.9101 49.7835 33.8753 49.6973 33.8411 49.6129C33.8308 49.5876 33.8208 49.5631 33.8107 49.538C33.7486 49.3847 33.6878 49.2354 33.6286 49.0897C33.6126 49.0504 33.5962 49.0102 33.5803 48.9714C33.5571 48.9146 33.5345 48.8594 33.5117 48.8037C33.4872 48.7437 33.4627 48.6843 33.4387 48.6258C33.4297 48.6039 33.4203 48.5807 33.4113 48.559C33.4041 48.5415 33.3975 48.5254 33.3903 48.508C33.2821 48.245 33.1792 47.9971 33.0816 47.764C33.0808 47.7621 33.08 47.7602 33.0792 47.7584C33.0272 47.6342 32.9763 47.513 32.9275 47.3975C32.9021 47.3376 32.8771 47.2788 32.8526 47.221L38.1332 51.1678L35.9267 52.1051C35.9228 52.1068 35.9188 52.1084 35.915 52.1101L34.9937 52.5015C34.9415 52.3694 34.8903 52.2399 34.8393 52.1111ZM37.0756 57.8496C36.8905 57.3692 36.704 56.8861 36.5171 56.4035C36.2248 55.6486 35.9457 54.9309 35.6786 54.2471L36.0283 54.0985L37.4573 55.7596L37.0756 57.8496ZM40.018 65.4669C39.9911 65.4111 39.9591 65.3585 39.9221 65.3095C39.4986 64.1901 38.9611 62.7737 38.3662 61.2154L39.2412 56.4248H40.7585L41.6335 61.2154C41.0101 62.848 40.4502 64.3242 40.018 65.4669ZM41.11 54.5505H38.8897L37.8391 53.3293L39.9998 52.4114L42.1606 53.3293L41.11 54.5505ZM43.4826 56.4035C43.2957 56.8861 43.1092 57.3692 42.9241 57.8496L42.5423 55.7595L43.9713 54.0984L44.3211 54.247C44.054 54.9308 43.7748 55.6486 43.4826 56.4035ZM47.0723 47.3975C47.026 47.507 46.9777 47.6219 46.9286 47.7391C46.9222 47.7544 46.9157 47.7698 46.9093 47.7851C46.8607 47.9014 46.8112 48.0201 46.76 48.1437C46.7566 48.1519 46.7531 48.1605 46.7497 48.1688C46.7055 48.2754 46.6601 48.3854 46.614 48.4975C46.6053 48.5185 46.5972 48.5379 46.5886 48.559C46.5783 48.5841 46.5673 48.6107 46.557 48.6361C46.5365 48.6861 46.5156 48.7371 46.4946 48.7881C46.4688 48.851 46.4432 48.9136 46.4168 48.978C46.4085 48.9985 46.3998 49.0199 46.3913 49.0405C46.3261 49.2004 46.2591 49.3651 46.1906 49.5344C46.1798 49.5609 46.1692 49.5869 46.1585 49.6138C46.1246 49.6974 46.0901 49.7828 46.0555 49.8686C46.042 49.9023 46.0283 49.9357 46.0147 49.9697C45.979 50.0584 45.9428 50.1481 45.9063 50.2391C45.8961 50.2645 45.8857 50.2905 45.8755 50.316C45.7483 50.6325 45.6165 50.9626 45.4796 51.3066C45.4751 51.318 45.4706 51.3291 45.4661 51.3406C45.4218 51.4518 45.3771 51.5647 45.3318 51.6786C45.3235 51.6999 45.315 51.7211 45.3065 51.7425C45.2597 51.8603 45.2126 51.9792 45.1648 52.1001C45.164 52.1024 45.1631 52.1046 45.1622 52.1068C45.1107 52.237 45.059 52.368 45.0062 52.5018L44.0841 52.11C44.0808 52.1086 44.0776 52.1072 44.0745 52.1059L41.8667 51.168L47.1473 47.2212C47.1226 47.2787 47.0976 47.3375 47.0723 47.3975ZM49.3516 44.5262C49.3515 44.5262 49.3512 44.5261 49.3511 44.5261C49.3503 44.5259 49.3495 44.5258 49.3487 44.5254C48.805 44.3623 48.225 44.3892 47.7041 44.5876C47.3267 44.1759 47.0643 43.568 47.0643 42.98V40.2506C49.873 40.6646 52.0528 42.7877 52.5933 45.5042L49.3516 44.5262ZM56.625 57.7969C56.625 59.4374 55.2903 60.7719 53.65 60.7719C52.0096 60.7719 50.675 59.4374 50.675 57.7969C50.675 56.1564 52.0096 54.8219 53.65 54.8219C55.2903 54.8219 56.625 56.1564 56.625 57.7969Z" fill="#EB5757"/>
</svg>
