<svg width="80" height="80" viewBox="0 0 80 80" fill="none" xmlns="http://www.w3.org/2000/svg">
<path d="M60.4581 12.0215H52.5687V11.4469C52.5687 10.0387 51.4237 8.89405 50.0156 8.89405H47.1794C46.8744 4.7578 43.4109 1.48561 39.1975 1.48561C34.9847 1.48561 31.5216 4.7578 31.2156 8.89405H28.3794C26.9719 8.89405 25.8262 10.0387 25.8262 11.4469V12.0215H18.11C15.0053 12.0215 12.4784 14.5481 12.4784 17.6531V72.8837C12.4784 75.9887 15.0053 78.5147 18.11 78.5147H60.4584C63.5634 78.5147 66.09 75.9887 66.09 72.8837V17.6528C66.09 14.5481 63.5634 12.0215 60.4581 12.0215ZM28.0841 11.4469C28.0841 11.2869 28.2194 11.1522 28.3794 11.1522H32.3503C32.6653 11.1522 32.9659 11.0209 33.1791 10.7894C33.3928 10.5581 33.5006 10.2475 33.4756 9.93342C33.4634 9.78686 33.4528 9.63936 33.4528 9.48874C33.4528 6.3203 36.03 3.74342 39.1975 3.74342C42.3662 3.74342 44.9431 6.3203 44.9431 9.48874C44.9431 9.63592 44.9312 9.77936 44.9194 9.93905C44.8962 10.2525 45.0044 10.5609 45.2178 10.7909C45.4312 11.0215 45.7312 11.1522 46.0447 11.1522H50.0156C50.1756 11.1522 50.3106 11.2872 50.3106 11.4469V17.7719C50.3106 17.9325 50.1753 18.0675 50.0156 18.0675H28.3794C28.2191 18.0675 28.0841 17.9322 28.0841 17.7719V11.4469ZM63.8316 72.8834C63.8316 74.7431 62.3178 76.2562 60.4581 76.2562H18.11C16.25 76.2562 14.7375 74.7431 14.7375 72.8834V17.6528C14.7375 15.8469 16.164 14.3722 17.9497 14.2875V46.939C17.9497 47.5625 18.4544 48.0678 19.0787 48.0678C19.7025 48.0678 20.2072 47.5625 20.2072 46.939V14.28H25.8259V17.7719C25.8259 19.1797 26.9716 20.3256 28.3791 20.3256H50.0153C51.4234 20.3256 52.5684 19.1797 52.5684 17.7719V14.28H58.3587V53.9475C58.3587 54.5706 58.8647 55.0762 59.4878 55.0762C60.1109 55.0762 60.6162 54.5706 60.6162 53.9475V14.2878C62.4028 14.3719 63.8309 15.8462 63.8309 17.6531V72.8834H63.8316Z" fill="#33AB8F"/>
<path d="M24.5937 38.0619H28.6412C29.7191 38.0619 30.9762 37.3815 31.5666 36.4797L34.2953 32.3094L37.8672 41.3225C38.2828 42.3715 38.9909 42.5134 39.3416 42.5134C39.3666 42.5134 39.39 42.5128 39.4119 42.5115C39.7278 42.4934 40.4962 42.3265 40.8137 41.1575L44.0306 29.3194L45.9306 36.01C46.2625 37.18 47.4303 38.0619 48.6459 38.0619H53.9175C54.5406 38.0619 55.0459 37.5565 55.0459 36.9331C55.0459 36.3097 54.5406 35.804 53.9175 35.804H48.6459C48.4469 35.804 48.1572 35.5856 48.1034 35.3934L45.4422 26.025C45.1028 24.8303 44.3334 24.6972 44.0106 24.6972C44.0075 24.6972 44.0056 24.6972 44.0041 24.6972C43.685 24.6997 42.9087 24.8344 42.5816 26.0419L39.1884 38.5281L36.0637 30.6419C35.7794 29.9244 35.2416 29.4753 34.5887 29.4087C33.9397 29.3459 33.3197 29.6753 32.8962 30.3215L29.6769 35.2437C29.4987 35.5159 28.9666 35.8037 28.6412 35.8037H24.5937C23.9703 35.8037 23.465 36.3094 23.465 36.9328C23.4647 37.5565 23.9703 38.0619 24.5937 38.0619Z" fill="#33AB8F"/>
<path d="M39.1975 14.5622C41.7581 14.5622 43.8419 12.4784 43.8419 9.91717C43.8419 7.35624 41.7581 5.27342 39.1975 5.27342C36.6372 5.27342 34.5528 7.35624 34.5528 9.91717C34.5528 12.4784 36.6372 14.5622 39.1975 14.5622ZM39.1975 7.53123C40.5137 7.53123 41.5837 8.60123 41.5837 9.91717C41.5837 11.2334 40.5137 12.304 39.1975 12.304C37.8819 12.304 36.8106 11.2334 36.8106 9.91717C36.8106 8.60092 37.8819 7.53123 39.1975 7.53123Z" fill="#33AB8F"/>
<path d="M59.4884 59.5922C58.8653 59.5922 58.3594 60.0972 58.3594 60.7209V70.43H20.2075V53.2609C20.2075 52.6378 19.7028 52.1325 19.079 52.1325C18.4547 52.1325 17.95 52.6378 17.95 53.2609V71.559C17.95 72.1831 18.4547 72.6887 19.079 72.6887H59.4884C60.1115 72.6887 60.6169 72.1831 60.6169 71.559V60.7209C60.6169 60.0972 60.1115 59.5922 59.4884 59.5922Z" fill="#33AB8F"/>
<path d="M27.4181 53.3675H29.6765C30.3003 53.3675 30.8056 52.8625 30.8056 52.2387C30.8056 51.6153 30.3003 51.11 29.6765 51.11H27.4181C26.7947 51.11 26.2897 51.6153 26.2897 52.2387C26.2894 52.8625 26.7947 53.3675 27.4181 53.3675Z" fill="#33AB8F"/>
<path d="M52.1244 51.11H34.6437C34.0203 51.11 33.5147 51.6153 33.5147 52.2387C33.5147 52.8625 34.0203 53.3675 34.6437 53.3675H52.1244C52.7475 53.3675 53.2528 52.8625 53.2528 52.2387C53.2531 51.6153 52.7475 51.11 52.1244 51.11Z" fill="#33AB8F"/>
<path d="M27.4181 61.7506H41.4178C42.0415 61.7506 42.5469 61.2453 42.5469 60.6212C42.5469 59.9981 42.0415 59.4925 41.4178 59.4925H27.4181C26.7947 59.4925 26.2897 59.9981 26.2897 60.6212C26.2894 61.2453 26.7947 61.7506 27.4181 61.7506Z" fill="#33AB8F"/>
<path d="M52.1244 59.4925H46.3853C45.7616 59.4925 45.2569 59.9981 45.2569 60.6212C45.2569 61.2453 45.7616 61.7506 46.3853 61.7506H52.1244C52.7475 61.7506 53.2528 61.2453 53.2528 60.6212C53.2531 59.9981 52.7475 59.4925 52.1244 59.4925Z" fill="#33AB8F"/>
</svg>
