<svg width="80" height="80" viewBox="0 0 80 80" fill="none" xmlns="http://www.w3.org/2000/svg">
<path d="M69.7625 10.1176H65.7184V2.9338C65.7184 2.30287 65.205 1.78943 64.5747 1.78943H26.1094C25.8081 1.78943 25.5131 1.91162 25.2975 2.12693C25.2866 2.13849 25.2763 2.1513 25.2772 2.15349L25.245 2.17849L9.56875 17.7191C9.51781 17.7697 9.47125 17.8269 9.42656 17.8938C9.21156 18.1101 9.09375 18.396 9.09375 18.7004V71.7416C9.09375 72.3726 9.60687 72.886 10.2375 72.886H17.5581V77.0669C17.5581 77.6976 18.0716 78.2107 18.7019 78.2107H69.7625C70.3934 78.2107 70.9066 77.6976 70.9066 77.0669V11.2616C70.9066 10.631 70.3931 10.1176 69.7625 10.1176ZM12.9616 17.5772L24.9684 5.67505L24.9809 17.6688L12.9616 17.5772ZM68.6187 12.4057V75.9229H19.8456V72.886H64.5744C65.205 72.886 65.7181 72.3726 65.7181 71.7416V12.4057H68.6187ZM27.2544 4.07724H63.43V70.5979H11.3812V19.8532L26.1116 19.9654L26.1481 19.966C26.4378 19.966 26.7159 19.8476 26.9319 19.6329C27.1497 19.4163 27.2697 19.1279 27.2697 18.8204L27.2544 4.07724Z" fill="#8C1342"/>
<path d="M56.1106 58.7194H42.4578C41.8265 58.7194 41.3134 59.2325 41.3134 59.8631C41.3134 60.4937 41.8269 61.0072 42.4578 61.0072H56.1106C56.7412 61.0072 57.2544 60.4941 57.2544 59.8631C57.2544 59.2322 56.7412 58.7194 56.1106 58.7194Z" fill="#8C1342"/>
<path d="M38.0881 58.7194H18.156C17.5253 58.7194 17.0122 59.2325 17.0122 59.8631C17.0122 60.4937 17.5256 61.0072 18.156 61.0072H38.0881C38.7194 61.0072 39.2325 60.4941 39.2325 59.8631C39.2325 59.2322 38.7194 58.7194 38.0881 58.7194Z" fill="#8C1342"/>
<path d="M17.0122 53.5832C17.0122 54.2138 17.5256 54.7269 18.156 54.7269H56.1106C56.7413 54.7269 57.2544 54.2138 57.2544 53.5832C57.2544 52.9522 56.741 52.4391 56.1106 52.4391H18.156C17.5256 52.4391 17.0122 52.9522 17.0122 53.5832Z" fill="#8C1342"/>
<path d="M33.72 48.4469H56.1107C56.7413 48.4469 57.2544 47.9338 57.2544 47.3029C57.2544 46.6719 56.741 46.1588 56.1107 46.1588H33.72C33.0897 46.1588 32.5763 46.6719 32.5763 47.3029C32.5763 47.9338 33.0894 48.4469 33.72 48.4469Z" fill="#8C1342"/>
<path d="M18.156 48.4469H25.3919C26.0228 48.4469 26.536 47.9338 26.536 47.3029C26.536 46.6719 26.0225 46.1588 25.3919 46.1588H18.156C17.5253 46.1588 17.0122 46.6719 17.0122 47.3029C17.0122 47.9338 17.5256 48.4469 18.156 48.4469Z" fill="#8C1342"/>
<path fill-rule="evenodd" clip-rule="evenodd" d="M46.99 12C41.47 12 37 16.48 37 22C37 27.52 41.47 32 46.99 32C52.52 32 57 27.52 57 22C57 16.48 52.52 12 46.99 12ZM48 23V17H46V23H48ZM48 27V25H46V27H48ZM39 22C39 26.42 42.58 30 47 30C51.42 30 55 26.42 55 22C55 17.58 51.42 14 47 14C42.58 14 39 17.58 39 22Z" fill="#8C1342"/>
</svg>
