<svg width="80" height="80" viewBox="0 0 80 80" fill="none" xmlns="http://www.w3.org/2000/svg">
<path d="M66.4 25.0667C66.9891 25.0667 67.4667 24.5891 67.4667 24V18.6667C67.4667 16.3103 65.5564 14.4 63.2 14.4V12.2667C63.2 9.91027 61.2897 8 58.9333 8H17.3333C16.7443 8 16.2667 8.4776 16.2667 9.06667V14.4H13.0667C12.4776 14.4 12 14.8776 12 15.4667V19.7333C12 20.3224 12.4776 20.8 13.0667 20.8H16.2667V25.0667H13.0667C12.4776 25.0667 12 25.5443 12 26.1333V30.4C12 30.9891 12.4776 31.4667 13.0667 31.4667H16.2667V35.7333H13.0667C12.4776 35.7333 12 36.2109 12 36.8V41.0667C12 41.6557 12.4776 42.1333 13.0667 42.1333H16.2667V46.4H13.0667C12.4776 46.4 12 46.8776 12 47.4667V51.7333C12 52.3224 12.4776 52.8 13.0667 52.8H16.2667V57.0667H13.0667C12.4776 57.0667 12 57.5443 12 58.1333V62.4C12 62.9891 12.4776 63.4667 13.0667 63.4667H16.2667V70.9333C16.2667 71.5224 16.7443 72 17.3333 72H58.9333C61.2897 72 63.2 70.0897 63.2 67.7333V63.4667H66.4C66.9891 63.4667 67.4667 62.9891 67.4667 62.4V57.0667C67.4667 54.7103 65.5564 52.8 63.2 52.8V50.6667H66.4C66.9891 50.6667 67.4667 50.1891 67.4667 49.6V44.2667C67.4667 41.9103 65.5564 40 63.2 40V37.8667H66.4C66.9891 37.8667 67.4667 37.3891 67.4667 36.8V31.4667C67.4667 29.1103 65.5564 27.2 63.2 27.2V25.0667H66.4ZM63.2 16.5333C64.3783 16.5333 65.3333 17.4884 65.3333 18.6667V22.9333H63.2V16.5333ZM14.1333 18.6667V16.5333H20.5333V18.6667H14.1333ZM14.1333 29.3333V27.2H20.5333V29.3333H14.1333ZM14.1333 40V37.8667H20.5333V40H14.1333ZM14.1333 50.6667V48.5333H20.5333V50.6667H14.1333ZM14.1333 61.3333V59.2H20.5333V61.3333H14.1333ZM24.8 69.8667H18.4V63.4667H21.6C22.1891 63.4667 22.6667 62.9891 22.6667 62.4V58.1333C22.6667 57.5443 22.1891 57.0667 21.6 57.0667H18.4V52.8H21.6C22.1891 52.8 22.6667 52.3224 22.6667 51.7333V47.4667C22.6667 46.8776 22.1891 46.4 21.6 46.4H18.4V42.1333H21.6C22.1891 42.1333 22.6667 41.6557 22.6667 41.0667V36.8C22.6667 36.2109 22.1891 35.7333 21.6 35.7333H18.4V31.4667H21.6C22.1891 31.4667 22.6667 30.9891 22.6667 30.4V26.1333C22.6667 25.5443 22.1891 25.0667 21.6 25.0667H18.4V20.8H21.6C22.1891 20.8 22.6667 20.3224 22.6667 19.7333V15.4667C22.6667 14.8776 22.1891 14.4 21.6 14.4H18.4V10.1333H24.8V69.8667ZM31.2 69.8667H26.9333V10.1333H31.2V69.8667ZM61.0667 67.7333C61.0667 68.9116 60.1116 69.8667 58.9333 69.8667H33.3333V10.1333H58.9333C60.1116 10.1333 61.0667 11.0884 61.0667 12.2667V67.7333ZM65.3333 57.0667V61.3333H63.2V54.9333C64.3783 54.9333 65.3333 55.8884 65.3333 57.0667ZM65.3333 44.2667V48.5333H63.2V42.1333C64.3783 42.1333 65.3333 43.0884 65.3333 44.2667ZM65.3333 31.4667V35.7333H63.2V29.3333C64.3783 29.3333 65.3333 30.2884 65.3333 31.4667Z" fill="#FDCF85"/>
</svg>
