<svg width="80" height="80" viewBox="0 0 80 80" fill="none" xmlns="http://www.w3.org/2000/svg">
<g clip-path="url(#clip0)">
<path d="M27.4956 29.6519H52.5044C54.5268 29.6519 56.1723 28.0064 56.1723 25.9839V19.2823C56.1723 17.2593 54.5268 15.6138 52.5044 15.6138H27.4956C25.4731 15.6138 23.8271 17.2593 23.8271 19.2823V25.9839C23.8276 28.0064 25.4731 29.6519 27.4956 29.6519V29.6519ZM25.7285 19.2823C25.7285 18.3077 26.5215 17.5147 27.4956 17.5147H52.5044C53.479 17.5147 54.2714 18.3077 54.2714 19.2823V25.9839C54.2714 26.9585 53.479 27.751 52.5044 27.751H27.4956C26.521 27.751 25.7285 26.9585 25.7285 25.9839V19.2823Z" fill="#2D9CDB"/>
<path d="M27.4956 52.4097H52.5044C54.5268 52.4097 56.1723 50.7642 56.1723 48.7412V42.0396C56.1723 40.0171 54.5268 38.3711 52.5044 38.3711H27.4956C25.4731 38.3711 23.8271 40.0171 23.8271 42.0396V48.7412C23.8276 50.7642 25.4731 52.4097 27.4956 52.4097V52.4097ZM25.7285 42.0396C25.7285 41.0654 26.5215 40.2725 27.4956 40.2725H52.5044C53.479 40.2725 54.2714 41.0654 54.2714 42.0396V48.7417C54.2714 49.7158 53.479 50.5088 52.5044 50.5088H27.4956C26.521 50.5088 25.7285 49.7158 25.7285 48.7417V42.0396Z" fill="#2D9CDB"/>
<path d="M24.7778 33.1924H49.2031C49.728 33.1924 50.1538 32.7666 50.1538 32.2417C50.1538 31.7168 49.728 31.291 49.2031 31.291H24.7778C24.2529 31.291 23.8276 31.7168 23.8276 32.2417C23.8276 32.7666 24.2529 33.1924 24.7778 33.1924Z" fill="#2D9CDB"/>
<path d="M24.7778 36.7324H37.1806C37.7055 36.7324 38.1313 36.3067 38.1313 35.7817C38.1313 35.2568 37.7055 34.8311 37.1806 34.8311H24.7778C24.2529 34.8311 23.8276 35.2568 23.8276 35.7817C23.8276 36.3067 24.2529 36.7324 24.7778 36.7324Z" fill="#2D9CDB"/>
<path d="M24.7778 55.9497H49.2031C49.728 55.9497 50.1538 55.5244 50.1538 54.9995C50.1538 54.4746 49.728 54.0488 49.2031 54.0488H24.7778C24.2529 54.0488 23.8276 54.4746 23.8276 54.9995C23.8276 55.5244 24.2529 55.9497 24.7778 55.9497Z" fill="#2D9CDB"/>
<path d="M69.6454 61.4506H67.8383V27.8877C67.8383 24.3047 64.933 21.3882 61.3539 21.3672V14.8135C61.3539 12.711 59.6435 11.0001 57.5404 11.0001H22.4594C20.3564 11.0001 18.646 12.711 18.646 14.8135V21.3672C15.0674 21.3877 12.1626 24.3047 12.1626 27.8877V61.4506H10.3545C9.05615 61.4506 8 62.5068 8 63.8051C8 66.6772 10.3369 69.0141 13.209 69.0141H52.1059C52.6308 69.0141 53.0566 68.5883 53.0566 68.0634C53.0566 67.5385 52.6308 67.1127 52.1059 67.1127H13.209C11.3848 67.1127 9.90087 65.6293 9.90087 63.8051C9.90087 63.5551 10.1045 63.3515 10.3545 63.3515H33.6601C34.083 64.978 35.5639 66.1826 37.3207 66.1826H42.6791C44.4364 66.1826 45.9174 64.978 46.3398 63.3515H69.6454C69.8954 63.3515 70.099 63.5551 70.099 63.8051C70.099 65.6288 68.6151 67.1127 66.7914 67.1127H55.9081C55.3832 67.1127 54.9574 67.5385 54.9574 68.0634C54.9574 68.5883 55.3832 69.0141 55.9081 69.0141H66.7914C69.6635 69.0141 71.9999 66.6772 71.9999 63.8051C71.9999 62.5068 70.9437 61.4506 69.6454 61.4506V61.4506ZM61.3539 28.2959C61.7665 28.5928 62.0365 29.0757 62.0365 29.6216V56.0044C62.0365 56.5503 61.7665 57.0327 61.3539 57.3291V28.2959ZM20.5468 14.8135C20.5468 13.7593 21.4048 12.9009 22.4594 12.9009H57.5404C58.5951 12.9009 59.453 13.7593 59.453 14.8135V57.6367H20.5468V39.7729C20.5468 39.248 20.1216 38.8223 19.5962 38.8223C19.0713 38.8223 18.646 39.248 18.646 39.7729V57.3295C18.2334 57.0332 17.9629 56.5503 17.9629 56.0048V29.6216C17.9629 29.0752 18.2334 28.5923 18.646 28.2954V35.9712C18.646 36.4961 19.0713 36.9214 19.5962 36.9214C20.1216 36.9214 20.5468 36.4961 20.5468 35.9712V14.8135ZM14.0635 27.8877C14.0635 25.3526 16.1157 23.2886 18.646 23.2681V26.2178C17.1572 26.6343 16.062 28.002 16.062 29.6216V56.0044C16.062 57.9458 17.6362 59.5258 19.5757 59.5376C19.5825 59.5376 19.5893 59.5385 19.5967 59.5385C19.6001 59.5385 19.6035 59.538 19.6069 59.538H60.393C60.3969 59.538 60.4003 59.5385 60.4037 59.5385C60.4105 59.5385 60.4179 59.5376 60.4247 59.5371C62.3637 59.5253 63.9374 57.9453 63.9374 56.0044V29.6216C63.9374 28.002 62.8422 26.6343 61.3539 26.2178V23.2681C63.8847 23.2891 65.9374 25.3531 65.9374 27.8877V61.4501H14.0635V27.8877ZM44.3017 63.3515C43.9745 63.9077 43.3696 64.2817 42.6791 64.2817H37.3207C36.6303 64.2817 36.0253 63.9077 35.6982 63.3515H44.3017Z" fill="#2D9CDB"/>
</g>
<defs>
<clipPath id="clip0">
</clipPath>
</defs>
</svg>
