<svg width="64" height="64" viewBox="0 0 64 64" fill="none" xmlns="http://www.w3.org/2000/svg">
<path d="M38.1941 51.3397H33.3442C32.6539 51.3397 32.0943 51.8992 32.0943 52.5896C32.0943 53.28 32.6539 53.8395 33.3442 53.8395H38.1941C38.9426 53.8395 39.5515 54.4483 39.5515 55.1968C39.5515 55.9453 38.9427 56.5542 38.1941 56.5542H25.1386C23.1761 56.5542 21.3306 55.689 20.0756 54.1802L16.9535 50.4275C15.2782 48.4137 12.8401 47.2343 10.2314 47.1597V39.7764H14.8333C17.1028 39.7764 19.2517 40.6444 20.8843 42.2204L27.6228 48.7247C28.0992 49.1846 28.1214 49.9546 27.6723 50.4411C27.2146 50.9368 26.4376 50.9692 25.9402 50.5133L20.6498 45.6638C20.1412 45.1975 19.3505 45.2317 18.8841 45.7406C18.4176 46.2495 18.452 47.0401 18.9608 47.5065L24.2512 52.356C24.9647 53.01 25.8676 53.333 26.7682 53.333C27.7737 53.333 28.7763 52.9303 29.5092 52.1365C30.8724 50.6596 30.8051 48.3223 29.3589 46.9263L22.6205 40.422C20.5193 38.3937 17.7538 37.2767 14.8333 37.2767H9.98861C9.51836 36.1637 8.41548 35.3806 7.13324 35.3806H1.24987C0.559624 35.3806 0 35.9401 0 36.6305V45.7701C0 46.4603 0.559624 47.02 1.24987 47.02C1.94012 47.02 2.49975 46.4605 2.49975 45.7701V37.8802H7.13336C7.46336 37.8802 7.73174 38.1487 7.73174 38.4786V48.4965C7.73174 48.8263 7.46336 49.0948 7.13336 49.0948H5.83524C5.14499 49.0948 4.58537 49.6543 4.58537 50.3447C4.58537 51.035 5.14499 51.5946 5.83524 51.5946H7.13324C8.43273 51.5946 9.54711 50.7901 10.0065 49.6532C11.955 49.6643 13.7848 50.5272 15.0318 52.0262L18.154 55.779C19.8855 57.8603 22.4312 59.0539 25.1386 59.0539H38.1941C40.3208 59.0539 42.0512 57.3237 42.0512 55.1968C42.0512 53.07 40.3208 51.3397 38.1941 51.3397Z" fill="#33AFB0"/>
<path d="M62.7499 16.4918C62.0596 16.4918 61.5 17.0513 61.5 17.7416V26.1198H56.8664C56.5364 26.1198 56.268 25.8513 56.268 25.5214V15.5035C56.268 15.1737 56.5364 14.9052 56.8664 14.9052H58.0727C58.763 14.9052 59.3226 14.3457 59.3226 13.6553C59.3226 12.965 58.763 12.4054 58.0727 12.4054H56.8664C55.5669 12.4054 54.4525 13.2099 53.9931 14.3468C52.0446 14.3357 50.2147 13.4728 48.9677 11.9738L45.8456 8.22116C44.1142 6.13979 41.5684 4.94604 38.8609 4.94604H25.8056C23.6789 4.94604 21.9485 6.67629 21.9485 8.80304C21.9485 10.9298 23.6789 12.66 25.8056 12.66H31.1441C31.8344 12.66 32.394 12.1005 32.394 11.4102C32.394 10.7198 31.8344 10.1603 31.1441 10.1603H25.8056C25.0571 10.1603 24.4481 9.55141 24.4481 8.80291C24.4481 8.05454 25.057 7.44554 25.8056 7.44554H38.861C40.8236 7.44554 42.6691 8.31079 43.9241 9.81954L47.0462 13.5722C48.7214 15.5859 51.1596 16.7653 53.7684 16.84V24.2234H49.1664C46.8969 24.2234 44.748 23.3554 43.1154 21.7794L36.3769 15.275C35.9005 14.8152 35.8782 14.0453 36.3274 13.5587C36.7851 13.0628 37.5621 13.0305 38.0595 13.4864L43.35 18.3359C43.8589 18.8023 44.6492 18.768 45.1159 18.2591C45.5822 17.7503 45.5479 16.9596 45.039 16.4933L39.7485 11.6439C38.2385 10.2598 35.88 10.3584 34.4905 11.8634C33.1272 13.3404 33.1946 15.6777 34.6407 17.0735L41.3792 23.5779C43.4804 25.6061 46.2459 26.7231 49.1664 26.7231H54.0111C54.4814 27.8361 55.5842 28.6193 56.8665 28.6193H62.75C63.4402 28.6193 63.9998 28.0598 63.9998 27.3694V17.7414C63.9997 17.0513 63.4401 16.4918 62.7499 16.4918Z" fill="#33AFB0"/>
<path d="M40.3547 47.4552C40.0705 46.8262 39.3317 46.5456 38.7032 46.8297C38.0702 47.1054 37.7807 47.8419 38.0563 48.4746C38.2611 48.945 38.7206 49.2257 39.2028 49.2257C39.3694 49.2257 39.5387 49.1922 39.7012 49.1215C39.7064 49.1192 39.723 49.1119 39.7281 49.1096C40.3572 48.8255 40.6388 48.0844 40.3547 47.4552Z" fill="#33AFB0"/>
<path d="M43.4613 45.351C43.0526 44.796 42.2673 44.6805 41.7116 45.0873C41.1548 45.495 41.0338 46.2771 41.4415 46.834C41.6864 47.1684 42.0659 47.3456 42.4509 47.3456C42.7071 47.3456 42.9658 47.2671 43.1883 47.1042C43.1903 47.1029 43.202 47.0941 43.2039 47.0927C43.7575 46.6827 43.8698 45.9058 43.4613 45.351Z" fill="#33AFB0"/>
<path d="M36.8605 48.8584C36.7182 48.1853 36.0573 47.7543 35.3835 47.8935C34.7105 48.0271 34.2705 48.679 34.3995 49.354C34.514 49.9527 35.0379 50.3694 35.6258 50.3694C35.7035 50.3694 35.7827 50.362 35.8618 50.3469C35.8699 50.3452 35.8904 50.3411 35.8987 50.3394C36.5737 50.1962 37.0034 49.5335 36.8605 48.8584Z" fill="#33AFB0"/>
<path d="M46.0727 42.6325C45.5602 42.1703 44.7701 42.2109 44.3076 42.7235C44.3015 42.7304 44.2871 42.7467 44.2811 42.7535C43.8301 43.2762 43.8884 44.0654 44.411 44.5163C44.6471 44.72 44.9376 44.8198 45.2267 44.8198C45.5739 44.8198 45.919 44.676 46.1657 44.3955C46.626 43.8829 46.5846 43.0942 46.0727 42.6325ZM45.3747 43.6864L45.2357 43.5607L45.3862 43.6964L45.3747 43.6864Z" fill="#33AFB0"/>
<path d="M49.2538 35.859C48.5933 35.6586 47.8945 36.0355 47.6942 36.6961C47.4912 37.3559 47.8614 38.0553 48.5212 38.2583C48.6435 38.296 48.7673 38.3139 48.889 38.3139C49.4233 38.3139 49.9179 37.9686 50.0832 37.4312L50.0884 37.4141C50.2887 36.7535 49.9143 36.0592 49.2538 35.859Z" fill="#33AFB0"/>
<path d="M50.8547 29.4082C50.8519 29.3924 50.8489 29.3765 50.8455 29.3606C50.7044 28.6851 50.0424 28.253 49.3671 28.3939C48.6943 28.5341 48.2616 29.1921 48.3971 29.8649C48.5118 30.4612 49.0344 30.8786 49.6229 30.8786C49.696 30.8786 49.7703 30.8722 49.8447 30.8589C50.5242 30.7372 50.9763 30.0877 50.8547 29.4082Z" fill="#33AFB0"/>
<path d="M49.7085 32.1201C49.0231 32.0596 48.4143 32.5677 48.3537 33.2553C48.3526 33.2674 48.3508 33.292 48.3501 33.3041C48.3096 33.9933 48.8352 34.5848 49.5243 34.6253C49.5493 34.6268 49.5741 34.6275 49.5988 34.6275C50.2496 34.6275 50.7965 34.1243 50.8444 33.4689C50.9014 32.7839 50.3941 32.1806 49.7085 32.1201Z" fill="#33AFB0"/>
<path d="M48.0304 39.4155C47.4304 39.0754 46.6671 39.2861 46.3269 39.8868L46.3095 39.918C45.9804 40.5248 46.2025 41.2889 46.8091 41.618C47 41.7215 47.2054 41.7706 47.4077 41.7706C47.8489 41.7706 48.275 41.5366 48.5006 41.1206L47.4141 40.5029L48.5015 41.1191C48.8419 40.5185 48.631 39.7559 48.0304 39.4155Z" fill="#33AFB0"/>
<path d="M25.3617 15.6125C25.0531 14.995 24.302 14.7446 23.685 15.0535L23.6739 15.059C23.0563 15.3677 22.8117 16.1156 23.1205 16.733C23.3391 17.1703 23.7821 17.4221 24.2414 17.4221C24.4306 17.4221 24.6226 17.3793 24.8027 17.2893C25.4202 16.9807 25.6704 16.23 25.3617 15.6125Z" fill="#33AFB0"/>
<path d="M28.9778 14.5704C28.8152 13.8998 28.1404 13.4875 27.4685 13.6502C27.4628 13.6516 27.445 13.6561 27.4393 13.6576C26.7708 13.8299 26.3659 14.512 26.538 15.1804C26.6834 15.7444 27.1893 16.1193 27.7454 16.1193C27.8484 16.1193 27.9532 16.1064 28.0577 16.0795C28.7284 15.9169 29.1404 15.2413 28.9778 14.5704Z" fill="#33AFB0"/>
<path d="M22.0567 17.4149C21.6244 16.8778 20.8374 16.7934 20.2997 17.2247L21.0745 18.2053L20.2959 17.2276C19.7559 17.6576 19.6668 18.4438 20.0967 18.9838C20.3437 19.2938 20.7078 19.4552 21.0754 19.4552C21.3482 19.4552 21.6231 19.3662 21.8532 19.1831L21.8697 19.1698C22.4059 18.7367 22.4889 17.9521 22.0567 17.4149Z" fill="#33AFB0"/>
<path d="M15.393 26.3075C14.727 26.126 14.04 26.5184 13.8583 27.1844C13.8552 27.1957 13.8492 27.2194 13.8463 27.2309C13.6838 27.9015 14.0958 28.5759 14.7663 28.7387C14.8653 28.7627 14.9643 28.7742 15.0618 28.7742C15.6226 28.7742 16.1321 28.3937 16.2741 27.8266C16.4455 27.1656 16.0538 26.4878 15.393 26.3075Z" fill="#33AFB0"/>
<path d="M14.5964 29.98C13.9055 29.9416 13.3162 30.4665 13.2762 31.1555C13.2752 31.1716 13.2746 31.1876 13.2741 31.2036C13.2539 31.8933 13.7965 32.4679 14.4862 32.4885C14.499 32.4889 14.5115 32.4891 14.5241 32.4891C15.1941 32.4891 15.7477 31.9575 15.7725 31.2845C15.8037 30.6021 15.2802 30.0198 14.5964 29.98Z" fill="#33AFB0"/>
<path d="M16.9659 22.8919C16.3545 22.5712 15.5992 22.8068 15.2785 23.4181L15.2582 23.4583C14.9535 24.0774 15.209 24.8252 15.828 25.1301C16.0053 25.2175 16.1932 25.2587 16.3785 25.2587C16.8375 25.2587 17.2794 25.0047 17.4984 24.5672C17.8096 23.9581 17.5732 23.2106 16.9659 22.8919Z" fill="#33AFB0"/>
<path d="M19.2229 19.8849C18.6918 19.444 17.9038 19.5171 17.4629 20.0481C17.4569 20.0555 17.4432 20.0725 17.4372 20.0799C17.0087 20.6208 17.1003 21.4055 17.6409 21.8342C17.8704 22.0164 18.1442 22.1046 18.4162 22.1046C18.7828 22.1046 19.1463 21.9441 19.3932 21.6364C19.8262 21.1055 19.7512 20.3235 19.2229 19.8849Z" fill="#33AFB0"/>
<path d="M16.0092 34.7536C15.8876 34.0741 15.2377 33.6219 14.5586 33.7437C13.8791 33.8654 13.427 34.5148 13.5486 35.1943L13.5508 35.2066C13.6591 35.8107 14.1837 36.2303 14.7763 36.2303C14.8502 36.2303 14.9251 36.2238 15.0003 36.2103C15.6798 36.0887 16.1309 35.4331 16.0092 34.7536Z" fill="#33AFB0"/>
<path d="M36.2915 25.2656C34.6647 25.2656 33.1573 25.9365 32.0832 27.0686C31.0089 25.9365 29.5017 25.2656 27.8748 25.2656C24.6744 25.2656 22.0708 27.8692 22.0708 31.0696C22.0708 32.7965 22.8324 34.4217 24.1602 35.5287C24.1682 35.5355 24.1764 35.5421 24.1847 35.5487L31.3073 41.1877C31.5345 41.3677 31.8088 41.4576 32.083 41.4576C32.3585 41.4576 32.634 41.3668 32.8618 41.1853L40.2862 35.2716C40.3225 35.2427 40.3572 35.2117 40.39 35.179C41.4899 34.0821 42.0955 32.6227 42.0955 31.0696C42.0955 27.8692 39.4919 25.2656 36.2915 25.2656ZM38.67 33.3635L32.0809 38.612L25.7497 33.5996C25.0002 32.9691 24.5705 32.048 24.5705 31.0699C24.5704 29.2477 26.0528 27.7654 27.8748 27.7654C29.2162 27.7654 30.4148 28.5665 30.9285 29.8062C31.1222 30.2731 31.5778 30.5776 32.0832 30.5776C32.5885 30.5776 33.0442 30.2732 33.2378 29.8062C33.7515 28.5665 34.9502 27.7654 36.2915 27.7654C38.1135 27.7654 39.5959 29.2477 39.5959 31.0697C39.5959 31.9325 39.2675 32.7445 38.67 33.3635Z" fill="#33AFB0"/>
<path d="M1.24989 51.5904C1.93776 51.5904 2.49539 51.0327 2.49539 50.3449C2.49539 49.657 1.93776 49.0994 1.24989 49.0994C0.562023 49.0994 0.00439453 49.657 0.00439453 50.3449C0.00439453 51.0327 0.562023 51.5904 1.24989 51.5904Z" fill="#33AFB0"/>
<path d="M62.7497 14.9004C63.4375 14.9004 63.9952 14.3428 63.9952 13.6549C63.9952 12.9671 63.4375 12.4094 62.7497 12.4094C62.0618 12.4094 61.5042 12.9671 61.5042 13.6549C61.5042 14.3428 62.0618 14.9004 62.7497 14.9004Z" fill="#33AFB0"/>
</svg>
