<svg width="64" height="64" viewBox="0 0 64 64" fill="none" xmlns="http://www.w3.org/2000/svg">
<path d="M29.0625 18.125H32.75V22C32.75 22.6204 33.3171 23.125 33.9375 23.125H37.0625C37.6829 23.125 38.125 22.6204 38.125 22V18.125H41.6875C42.3079 18.125 42.75 17.6204 42.75 17V14C42.75 13.3796 42.3079 12.875 41.6875 12.875H38.125V9.375C38.125 8.75463 37.6829 8.25 37.0625 8.25H33.9375C33.3171 8.25 32.75 8.75463 32.75 9.375V12.875H29.0625C28.4421 12.875 27.875 13.3796 27.875 14V17C27.875 17.6204 28.4421 18.125 29.0625 18.125ZM29.625 14.625H33.4375C34.0579 14.625 34.5 14.1204 34.5 13.5V10H36.375V13.5C36.375 14.1204 36.9421 14.625 37.5625 14.625H41V16.375H37.5625C36.9421 16.375 36.375 16.8796 36.375 17.5V21.375H34.5V17.5C34.5 16.8796 34.0579 16.375 33.4375 16.375H29.625V14.625Z" fill="#EB5757"/>
<path d="M48.5625 8.125H48.5611C48.5267 6.58941 47.893 5.12821 46.7954 4.05372C45.6978 2.97924 44.2235 2.37674 42.6875 2.375H19.1343C18.9163 2.37499 18.7061 2.45634 18.545 2.60313L9.817 10.524C9.7228 10.6045 9.64607 10.7034 9.59155 10.8146C9.53704 10.9259 9.50588 11.0471 9.5 11.1709V50C9.5 53.2395 12.198 55.875 15.4375 55.875H15.5639C15.5983 57.4106 16.232 58.8718 17.3296 59.9463C18.4272 61.0208 19.9015 61.6233 21.4375 61.625H48.5625C49.3305 61.6229 50.0905 61.4691 50.7988 61.1723C51.5072 60.8756 52.1499 60.4417 52.69 59.8958C53.2302 59.3498 53.6571 58.7025 53.9463 57.9911C54.2354 57.2796 54.3811 56.518 54.375 55.75V14C54.3811 13.232 54.2354 12.4704 53.9463 11.7589C53.6571 11.0475 53.2302 10.4002 52.69 9.85421C52.1499 9.30826 51.5072 8.87444 50.7988 8.57768C50.0905 8.28092 49.3305 8.12708 48.5625 8.125ZM18.25 5.182V9C18.25 9.896 17.5835 10.625 16.6875 10.625H12.3363L18.25 5.182ZM15.4375 54.125C13.1625 54.125 11.25 52.275 11.25 50V12.375H16.6875C18.5485 12.375 20 10.861 20 9V4.125H42.6875C44.9625 4.125 46.75 5.975 46.75 8.25V50C46.75 52.275 44.9625 54.125 42.6875 54.125H15.4375ZM52.625 55.75C52.625 58.025 50.8375 59.875 48.5625 59.875H21.4375C20.3655 59.8737 19.336 59.4557 18.5666 58.7093C17.7972 57.9628 17.3481 56.9465 17.3144 55.875H42.6875C43.4555 55.8729 44.2155 55.7191 44.9238 55.4223C45.6322 55.1256 46.2749 54.6917 46.815 54.1458C47.3552 53.5998 47.7821 52.9525 48.0713 52.2411C48.3604 51.5296 48.5061 50.768 48.5 50V9.875C50.875 9.875 52.625 11.725 52.625 14V55.75Z" fill="#EB5757"/>
<path d="M16.1875 25H24.9375C25.1696 25 25.3921 24.9078 25.5562 24.7437C25.7203 24.5796 25.8125 24.3571 25.8125 24.125C25.8125 23.8929 25.7203 23.6704 25.5562 23.5063C25.3921 23.3422 25.1696 23.25 24.9375 23.25H16.1875C15.9554 23.25 15.7329 23.3422 15.5688 23.5063C15.4047 23.6704 15.3125 23.8929 15.3125 24.125C15.3125 24.3571 15.4047 24.5796 15.5688 24.7437C15.7329 24.9078 15.9554 25 16.1875 25Z" fill="#EB5757"/>
<path d="M16.1875 31.125H29.4375C29.6696 31.125 29.8921 31.0328 30.0562 30.8687C30.2203 30.7046 30.3125 30.4821 30.3125 30.25C30.3125 30.0179 30.2203 29.7954 30.0562 29.6313C29.8921 29.4672 29.6696 29.375 29.4375 29.375H16.1875C15.9554 29.375 15.7329 29.4672 15.5688 29.6313C15.4047 29.7954 15.3125 30.0179 15.3125 30.25C15.3125 30.4821 15.4047 30.7046 15.5688 30.8687C15.7329 31.0328 15.9554 31.125 16.1875 31.125Z" fill="#EB5757"/>
<path d="M16.1875 37.25H29.4375C29.6696 37.25 29.8921 37.1578 30.0562 36.9937C30.2203 36.8296 30.3125 36.6071 30.3125 36.375C30.3125 36.1429 30.2203 35.9204 30.0562 35.7563C29.8921 35.5922 29.6696 35.5 29.4375 35.5H16.1875C15.9554 35.5 15.7329 35.5922 15.5688 35.7563C15.4047 35.9204 15.3125 36.1429 15.3125 36.375C15.3125 36.6071 15.4047 36.8296 15.5688 36.9937C15.7329 37.1578 15.9554 37.25 16.1875 37.25Z" fill="#EB5757"/>
<path d="M16.1875 43.375H37.0625C37.2946 43.375 37.5171 43.2828 37.6812 43.1187C37.8453 42.9546 37.9375 42.7321 37.9375 42.5C37.9375 42.2679 37.8453 42.0454 37.6812 41.8813C37.5171 41.7172 37.2946 41.625 37.0625 41.625H16.1875C15.9554 41.625 15.7329 41.7172 15.5688 41.8813C15.4047 42.0454 15.3125 42.2679 15.3125 42.5C15.3125 42.7321 15.4047 42.9546 15.5688 43.1187C15.7329 43.2828 15.9554 43.375 16.1875 43.375Z" fill="#EB5757"/>
<path d="M43.3125 48.625C43.3125 48.3929 43.2203 48.1704 43.0562 48.0063C42.8921 47.8422 42.6696 47.75 42.4375 47.75H16.1875C15.9554 47.75 15.7329 47.8422 15.5688 48.0063C15.4047 48.1704 15.3125 48.3929 15.3125 48.625C15.3125 48.8571 15.4047 49.0796 15.5688 49.2437C15.7329 49.4078 15.9554 49.5 16.1875 49.5H42.4375C42.6696 49.5 42.8921 49.4078 43.0562 49.2437C43.2203 49.0796 43.3125 48.8571 43.3125 48.625Z" fill="#EB5757"/>
</svg>
