<svg width="64" height="64" viewBox="0 0 64 64" fill="none" xmlns="http://www.w3.org/2000/svg">
<g clip-path="url(#clip0)">
<path d="M14.8448 28.398C14.8214 28.3302 14.7892 28.2657 14.7491 28.2061C14.7096 28.15 14.6671 28.0968 14.6207 28.046C14.5192 27.9498 14.3995 27.8736 14.2692 27.8224C13.8712 27.6603 13.4152 27.7482 13.1061 28.046C12.694 28.4669 12.694 29.1402 13.1061 29.5606C13.527 29.9731 14.2003 29.9731 14.6207 29.5606C14.6666 29.5103 14.7096 29.4566 14.7491 29.4009C14.7892 29.3413 14.8214 29.2769 14.8448 29.209C14.8756 29.1485 14.8971 29.0835 14.9088 29.0166C14.9376 28.876 14.9376 28.731 14.9088 28.5899C14.8971 28.5235 14.8756 28.4586 14.8448 28.398Z" fill="#FEBF42"/>
<path d="M18.0483 25.1956C18.0249 25.1277 17.9927 25.0628 17.9521 25.0032C17.9131 24.9475 17.8701 24.8938 17.8242 24.8435C17.7222 24.7468 17.6025 24.6711 17.4722 24.6193C17.0747 24.4572 16.6187 24.5451 16.3096 24.8435C15.897 25.264 15.897 25.9374 16.3096 26.3584C16.7305 26.7711 17.4038 26.7711 17.8242 26.3584C17.8701 26.3076 17.9131 26.2544 17.9521 26.1982C17.9927 26.1386 18.0249 26.0742 18.0483 26.0063C18.0786 25.9457 18.1006 25.8808 18.1123 25.8143C18.1406 25.6732 18.1406 25.5282 18.1123 25.3875C18.1006 25.3206 18.0786 25.2561 18.0483 25.1956Z" fill="#FEBF42"/>
<path d="M19.4971 28.046C19.0845 28.4669 19.0845 29.1402 19.4971 29.5606C19.9175 29.9731 20.5908 29.9731 21.0117 29.5606C21.0576 29.5103 21.1001 29.4566 21.1396 29.4009C21.1797 29.3413 21.2124 29.2769 21.2354 29.209C21.2661 29.1485 21.2876 29.0835 21.2998 29.0166C21.3281 28.876 21.3281 28.731 21.2998 28.5899C21.2876 28.5235 21.2661 28.4586 21.2354 28.398C21.2119 28.3302 21.1797 28.2657 21.1396 28.2061C21.1006 28.15 21.0576 28.0968 21.0117 28.046C20.9097 27.9498 20.79 27.8736 20.6597 27.8224C20.2617 27.6603 19.8062 27.7482 19.4971 28.046Z" fill="#FEBF42"/>
<path d="M15.9889 11.7392C16.5778 11.7392 17.0553 11.2617 17.0553 10.6723V9.6059C17.0553 9.01654 16.5778 8.539 15.9889 8.539C15.3995 8.539 14.922 9.01654 14.922 9.6059V10.6723C14.922 11.2617 15.3995 11.7392 15.9889 11.7392Z" fill="#FEBF42"/>
<path d="M15.3911 15.8191C15.4507 15.8591 15.5156 15.8914 15.584 15.9148C15.6445 15.9456 15.709 15.967 15.7759 15.9788C15.8462 15.9905 15.9175 15.9978 15.9888 16.0002C16.0566 15.9983 16.1245 15.991 16.1914 15.9788C16.2617 15.9685 16.3301 15.947 16.394 15.9148C16.4619 15.8914 16.5264 15.8591 16.5859 15.8191C16.6392 15.7761 16.6934 15.7336 16.7461 15.6907C17.1582 15.2702 17.1582 14.5968 16.7461 14.1759C16.6924 14.1334 16.6387 14.091 16.5859 14.048C16.5264 14.0079 16.4619 13.9752 16.394 13.9523C16.3301 13.9196 16.2617 13.8981 16.1914 13.8883C15.8433 13.818 15.4829 13.9259 15.2314 14.1759C14.8188 14.5968 14.8188 15.2702 15.2314 15.6907C15.2842 15.7336 15.3379 15.7761 15.3911 15.8191Z" fill="#FEBF42"/>
<path d="M60.7993 29.8664C62.5664 29.8664 63.9995 28.4338 63.9995 26.6663C63.9995 24.8992 62.5664 23.4666 60.7993 23.4666H59.7324V21.3333C59.7305 19.5667 58.2993 18.1351 56.5327 18.1331H30.9328C29.614 18.1361 28.4324 18.9481 27.9568 20.1781L25.5994 16.7357V7.46673C27.3655 7.4638 28.7957 6.03218 28.7976 4.26657V3.20017C28.7957 1.43358 27.364 0.00195311 25.5974 0H10.6664C8.89983 0.00195311 7.4682 1.43358 7.46625 3.20017V4.26657C7.4682 6.03315 8.89983 7.46478 10.6664 7.46673L10.6615 16.7411L1.55077 30.0559C0.43359 31.6916 0.314939 33.8117 1.24364 35.5617C2.15233 37.32 3.97262 38.4172 5.95161 38.3996H27.7327V55.4663H4.26657C1.91014 55.4663 0 57.3765 0 59.7329C0 62.0893 1.91014 63.9995 4.26657 63.9995H38.3962L38.3996 64L38.4025 63.9995H56.5327C58.2993 63.9975 59.7305 62.5659 59.7324 60.7993V58.666H60.7993C62.5664 58.666 63.9995 57.2334 63.9995 55.4663C63.9995 53.6988 62.5664 52.2662 60.7993 52.2662H59.7324V49.0665H60.7993C62.5664 49.0665 63.9995 47.6334 63.9995 45.8663C63.9995 44.0988 62.5664 42.6661 60.7993 42.6661H59.7324V39.4665H60.7993C62.5664 39.4665 63.9995 38.0339 63.9995 36.2663C63.9995 34.4992 62.5664 33.0666 60.7993 33.0666H59.7324V29.8664H60.7993ZM61.8657 26.6663C61.8652 27.2551 61.3882 27.7327 60.7993 27.7332H56.5327C55.9434 27.7332 55.4658 27.2556 55.4658 26.6663C55.4658 26.0774 55.9434 25.5999 56.5327 25.5999H60.7993C61.3882 25.6004 61.8652 26.0774 61.8657 26.6663ZM27.7327 31.9997H7.92864L15.6371 20.2664H20.6224L27.7327 31.0823V31.9997ZM9.59953 4.26657V3.20017C9.60002 2.61131 10.0776 2.13377 10.6664 2.13328H25.5974C26.1863 2.13377 26.6634 2.61131 26.6643 3.20017V4.26657C26.6634 4.85543 26.1863 5.33296 25.5974 5.33345H10.6664C10.0776 5.33296 9.60002 4.85543 9.59953 4.26657ZM5.95161 36.2663C4.76558 36.2639 3.67819 35.6061 3.12497 34.5568C2.57176 33.5075 2.64402 32.2385 3.31198 31.2585L12.412 17.9593C12.6654 17.6014 12.8007 17.1742 12.7997 16.7357V7.46673H23.4661V16.7357C23.4646 17.1688 23.5965 17.5917 23.8445 17.9461L27.7327 23.6263V27.1985L22.3973 19.0824C21.9993 18.4896 21.3323 18.1341 20.6185 18.1331H15.6371C14.9208 18.1346 14.2533 18.4955 13.8597 19.0941L5.06002 32.4807C4.84517 32.8083 4.82711 33.2277 5.01314 33.573C5.19918 33.9177 5.55952 34.133 5.95161 34.133H27.7327V36.2663H5.95161ZM2.13328 59.7329C2.13426 58.5552 3.08884 57.6011 4.26657 57.5996H6.39985V61.8662H4.26657C3.08884 61.8647 2.13426 60.9106 2.13328 59.7329ZM8.53313 61.8662V57.5996H10.6664V61.8662H8.53313ZM30.9328 61.8662H12.7997V57.5996H37.3327V61.8662H30.9328ZM44.6266 59.7329L39.466 61.4526V58.0127L44.6266 59.7329ZM61.8657 55.4663C61.8652 56.0552 61.3882 56.5322 60.7993 56.5327H56.5327C55.9434 56.5327 55.4658 56.0552 55.4658 55.4663C55.4658 54.877 55.9434 54.3994 56.5327 54.3994H60.7993C61.3882 54.3999 61.8652 54.8775 61.8657 55.4663ZM61.8657 45.8663C61.8652 46.4552 61.3882 46.9322 60.7993 46.9327H56.5327C55.9434 46.9327 55.4658 46.4552 55.4658 45.8663C55.4658 45.277 55.9434 44.7994 56.5327 44.7994H60.7993C61.3882 44.7999 61.8652 45.2775 61.8657 45.8663ZM61.8657 36.2663C61.8652 36.8552 61.3882 37.3327 60.7993 37.3332H56.5327C55.9434 37.3332 55.4658 36.8556 55.4658 36.2663C55.4658 35.6774 55.9434 35.1999 56.5327 35.1999H60.7993C61.3882 35.2004 61.8652 35.6774 61.8657 36.2663ZM57.5991 33.0666H56.5327C54.7652 33.0666 53.3326 34.4992 53.3326 36.2663C53.3326 38.0339 54.7652 39.4665 56.5327 39.4665H57.5991V42.6661H56.5327C54.7652 42.6661 53.3326 44.0988 53.3326 45.8663C53.3326 47.6334 54.7652 49.0665 56.5327 49.0665H57.5991V52.2662H56.5327C54.7652 52.2662 53.3326 53.6988 53.3326 55.4663C53.3326 57.2334 54.7652 58.666 56.5327 58.666H57.5991V60.7993C57.5986 61.3882 57.1216 61.8657 56.5327 61.8662H44.9733L45.3014 61.7568C46.173 61.4668 46.7608 60.6513 46.7608 59.7329C46.7608 58.8144 46.173 57.999 45.3014 57.709L38.737 55.521C38.6232 55.5113 38.5104 55.4932 38.3996 55.4663H29.866V21.3333C29.8669 20.7445 30.344 20.2669 30.9328 20.2664H56.5327C57.1216 20.2669 57.5986 20.7445 57.5991 21.3333V23.4666H56.5327C54.7652 23.4666 53.3326 24.8992 53.3326 26.6663C53.3326 28.4338 54.7652 29.8664 56.5327 29.8664H57.5991V33.0666Z" fill="#FEBF42"/>
<path d="M38.3999 23.4687H34.1333C32.9556 23.4702 32.001 24.4243 32 25.602V29.8686C32.001 31.0464 32.9556 32.0005 34.1333 32.0019H38.3999C39.5776 32.0005 40.5317 31.0464 40.5332 29.8686V25.602C40.5317 24.4243 39.5776 23.4702 38.3999 23.4687ZM34.1333 29.8686V25.602H38.3999L38.4009 29.8686H34.1333Z" fill="#FEBF42"/>
<path d="M42.6763 26.6645H50.1431C50.7319 26.6645 51.2095 26.187 51.2095 25.5981C51.2095 25.0088 50.7319 24.5312 50.1431 24.5312H42.6763C42.0869 24.5312 41.6094 25.0088 41.6094 25.5981C41.6094 26.187 42.0869 26.6645 42.6763 26.6645Z" fill="#FEBF42"/>
<path d="M51.2095 28.8046H42.6763C42.0869 28.8046 41.6094 29.2822 41.6094 29.8715C41.6094 30.4604 42.0869 30.9379 42.6763 30.9379H51.2095C51.7988 30.9379 52.2764 30.4604 52.2764 29.8715C52.2764 29.2822 51.7988 28.8046 51.2095 28.8046Z" fill="#FEBF42"/>
<path d="M38.3999 34.1328H34.1333C32.9556 34.1343 32.001 35.0884 32 36.2661V40.5327C32.001 41.7105 32.9556 42.6651 34.1333 42.666H38.3999C39.5776 42.6651 40.5317 41.7105 40.5332 40.5327V36.2661C40.5317 35.0884 39.5776 34.1343 38.3999 34.1328ZM34.1333 40.5327V36.2661H38.3999L38.4009 40.5327H34.1333Z" fill="#FEBF42"/>
<path d="M42.6763 37.3286H50.1431C50.7319 37.3286 51.2095 36.8511 51.2095 36.2617C51.2095 35.6729 50.7319 35.1953 50.1431 35.1953H42.6763C42.0869 35.1953 41.6094 35.6729 41.6094 36.2617C41.6094 36.8511 42.0869 37.3286 42.6763 37.3286Z" fill="#FEBF42"/>
<path d="M51.2095 39.4687H42.6763C42.0869 39.4687 41.6094 39.9463 41.6094 40.5351C41.6094 41.1245 42.0869 41.602 42.6763 41.602H51.2095C51.7988 41.602 52.2764 41.1245 52.2764 40.5351C52.2764 39.9463 51.7988 39.4687 51.2095 39.4687Z" fill="#FEBF42"/>
<path d="M38.3999 44.7969H34.1333C32.9556 44.7984 32.001 45.753 32 46.9302V51.1973C32.001 52.3745 32.9556 53.3291 34.1333 53.3306H38.3999C39.5776 53.3291 40.5317 52.3745 40.5332 51.1973V46.9302C40.5317 45.753 39.5776 44.7984 38.3999 44.7969ZM34.1333 51.1973V46.9302H38.3999L38.4009 51.1973H34.1333Z" fill="#FEBF42"/>
<path d="M42.6763 48.0005H50.1431C50.7319 48.0005 51.2095 47.5229 51.2095 46.9336C51.2095 46.3447 50.7319 45.8672 50.1431 45.8672H42.6763C42.0869 45.8672 41.6094 46.3447 41.6094 46.9336C41.6094 47.5229 42.0869 48.0005 42.6763 48.0005Z" fill="#FEBF42"/>
<path d="M51.2095 50.1328H42.6763C42.0869 50.1328 41.6094 50.6104 41.6094 51.1997C41.6094 51.7886 42.0869 52.2661 42.6763 52.2661H51.2095C51.7988 52.2661 52.2764 51.7886 52.2764 51.1997C52.2764 50.6104 51.7988 50.1328 51.2095 50.1328Z" fill="#FEBF42"/>
</g>
<defs>
<clipPath id="clip0">
<rect width="64" height="64" fill="white"/>
</clipPath>
</defs>
</svg>
