<svg width="64" height="64" viewBox="0 0 64 64" fill="none" xmlns="http://www.w3.org/2000/svg">
<path d="M49.6002 29.5735H37.9533L35.1191 21.0668C34.8973 20.4012 34.253 19.8764 33.5661 19.9734C32.8633 19.9894 32.2541 20.4577 32.0633 21.1329L27.3945 37.4701L22.363 14.8268C22.2093 14.142 21.6291 13.6364 20.9283 13.5799C20.2318 13.533 19.5747 13.9265 19.3156 14.5794L13.3156 29.5736H1.60001C0.715753 29.5736 0 30.2893 0 31.1736C0 32.0578 0.715753 32.7736 1.60001 32.7736H14.4001C15.0528 32.7746 15.6438 32.3768 15.8848 31.7677L20.3627 20.5773L25.6374 44.3214C25.7962 45.0371 26.4214 45.5523 27.1531 45.5748C27.1691 45.5748 27.184 45.5748 27.2 45.5748C27.9125 45.5748 28.5407 45.1033 28.7371 44.4153L33.7185 26.9869L35.2811 31.6803C35.4998 32.3331 36.112 32.7737 36.8 32.7737H49.6001C50.4843 32.7737 51.2001 32.058 51.2001 31.1737C51.2002 30.2891 50.4844 29.5735 49.6002 29.5735Z" fill="#F6356A"/>
<path d="M58.3766 8.0468C54.6274 4.29753 49.7132 2.4234 44.8001 2.4234C40.2027 2.4234 35.6427 4.13116 32 7.4133C28.3563 4.13116 23.7974 2.4234 19.2 2.4234C14.2858 2.4234 9.37268 4.29753 5.62341 8.04692C0.651643 13.0197 -0.949489 20.0235 0.673018 26.3765H4.00103C2.2944 20.88 3.54128 14.6548 7.8858 10.3103C10.9077 7.28842 14.9258 5.62441 19.2 5.62441C23.1007 5.62441 26.7499 7.06979 29.6619 9.61056L32 11.7962L34.3393 9.60955C37.2513 7.06979 40.9004 5.62341 44.8001 5.62341C49.0742 5.62341 53.0913 7.28742 56.1142 10.3093C62.3531 16.5472 62.3521 26.6988 56.1142 32.9367L32 57.0507L10.9258 35.9765H6.39992L32 61.5766L58.3766 35.2C65.8743 27.7014 65.8743 15.5456 58.3766 8.0468Z" fill="#F6356A"/>
</svg>
