<svg width="19" height="28" viewBox="0 0 19 28" fill="none" xmlns="http://www.w3.org/2000/svg">
<path d="M1.99819 23.6026H16.1725C16.366 23.6026 16.5225 23.4461 16.5225 23.2526V3.17974C16.5225 2.98619 16.366 2.82974 16.1725 2.82974H1.99819C1.80464 2.82974 1.64819 2.98619 1.64819 3.17974V23.2526C1.64819 23.4458 1.80464 23.6026 1.99819 23.6026ZM2.34819 3.52974H15.8225V22.9026H2.34819V3.52974Z" fill="#41B5C2"/>
<path d="M15.8225 3.52974H2.34819V22.9026H15.8225V3.52974Z" fill="#41B5C2"/>
<path d="M1.8746 28H16.2953C17.3289 28 18.1699 27.1589 18.1699 26.125V1.87495C18.1699 0.84105 17.3289 0 16.2953 0H1.8746C0.84105 0 0 0.84105 0 1.87495V26.1247C0 27.1589 0.84105 28 1.8746 28ZM0.7 1.87495C0.7 1.22675 1.2271 0.7 1.8746 0.7H16.2953C16.9432 0.7 17.4699 1.2271 17.4699 1.87495V26.1247C17.4699 26.7729 16.9428 27.2996 16.2953 27.2996H1.8746C1.22675 27.2996 0.7 26.7725 0.7 26.1247V1.87495V1.87495Z" fill="black"/>
<path d="M8.43643 2.29671H10.7349C10.9284 2.29671 11.0849 2.14026 11.0849 1.94671C11.0849 1.75316 10.9284 1.59671 10.7349 1.59671H8.43643C8.24288 1.59671 8.08643 1.75316 8.08643 1.94671C8.08643 2.14026 8.24288 2.29671 8.43643 2.29671Z" fill="black"/>
<path d="M7.18695 2.19451C7.22195 2.22601 7.26045 2.25401 7.30245 2.27186C7.3441 2.28936 7.38995 2.29601 7.43545 2.29601C7.48095 2.29601 7.52645 2.28901 7.56845 2.27186C7.61045 2.25401 7.6486 2.22601 7.68395 2.19451C7.71545 2.15951 7.73995 2.12101 7.75745 2.07901C7.77495 2.03701 7.78545 1.99151 7.78545 1.94601C7.78545 1.90051 7.77495 1.85501 7.75745 1.81301C7.73995 1.77101 7.71545 1.73286 7.68395 1.69751C7.6486 1.66601 7.61045 1.64151 7.56845 1.62401C7.43895 1.57186 7.2846 1.60301 7.18695 1.69751C7.1551 1.73286 7.13095 1.77101 7.11345 1.81301C7.0956 1.85501 7.08545 1.90051 7.08545 1.94601C7.08545 1.99151 7.0956 2.03701 7.11345 2.07901C7.13095 2.12101 7.1551 2.15951 7.18695 2.19451Z" fill="black"/>
<path d="M9.08524 24.179C8.38944 24.179 7.82349 24.745 7.82349 25.4408C7.82349 26.1362 8.38944 26.7022 9.08524 26.7022C9.78069 26.7022 10.3466 26.1362 10.3466 25.4408C10.347 24.745 9.78069 24.179 9.08524 24.179ZM9.08524 26.0025C8.77514 26.0025 8.52349 25.7505 8.52349 25.4411C8.52349 25.131 8.77549 24.8794 9.08524 24.8794C9.39499 24.8794 9.64664 25.1314 9.64664 25.4411C9.64699 25.7505 9.39499 26.0025 9.08524 26.0025Z" fill="black"/>
<path d="M13.5958 7.45709C13.6577 6.92614 13.2759 6.44384 12.7449 6.38189C12.2133 6.32064 11.7317 6.70144 11.6697 7.23239L11.6246 7.61879C11.5948 7.87499 11.6669 8.12839 11.8276 8.33174C11.9886 8.53544 12.2185 8.66389 12.4751 8.69364C12.5129 8.69819 12.551 8.70029 12.5885 8.70029C12.851 8.70029 13.0925 8.59074 13.2699 8.41434C14.3679 9.84619 14.2653 11.9091 12.9556 13.2191C11.5315 14.6433 9.21235 14.644 7.78715 13.2191C6.46415 11.8961 6.3714 9.80349 7.5054 8.37024C7.54355 8.41364 7.58485 8.45459 7.63105 8.49134C7.8043 8.62854 8.0136 8.70134 8.2306 8.70134C8.26805 8.70134 8.30655 8.69889 8.34435 8.69434C8.60055 8.66459 8.83085 8.53614 8.99185 8.33244C9.15285 8.12909 9.22495 7.87534 9.19485 7.61949L9.15005 7.23309C9.08775 6.70214 8.6051 6.32169 8.0745 6.38259C7.5432 6.44489 7.16205 6.92754 7.224 7.45814L7.24185 7.61109C5.59685 9.31314 5.6119 12.034 7.2919 13.714C7.90335 14.3255 8.65375 14.7133 9.44195 14.8844V15.4178C9.44195 15.8189 9.71425 16.1546 10.0825 16.2585V18.3204C10.0825 19.0501 9.5578 19.6437 8.9131 19.6437C8.2684 19.6437 7.74375 19.0501 7.74375 18.3204V16.8948C7.74375 15.779 6.90515 14.8715 5.8744 14.8715C4.92415 14.8715 4.1391 15.6439 4.0222 16.639C3.54795 16.7443 3.19165 17.1671 3.19165 17.6725V17.8797C3.19165 18.4642 3.66695 18.9399 4.25145 18.9399H4.459C5.0435 18.9399 5.5188 18.4642 5.5188 17.8797V17.6725C5.5188 17.1811 5.1814 16.7706 4.7271 16.6509C4.8286 16.0377 5.30355 15.5715 5.8744 15.5715C6.5191 15.5715 7.04375 16.1651 7.04375 16.8948V18.3204C7.04375 19.4362 7.88235 20.3437 8.9131 20.3437C9.94385 20.3437 10.7825 19.4358 10.7825 18.3204V16.2617C11.1556 16.1609 11.4324 15.8224 11.4324 15.4178V14.8522C12.172 14.6674 12.873 14.2912 13.4502 13.714C15.106 12.0582 15.1424 9.39294 13.5688 7.68669L13.5958 7.45709ZM8.1557 7.07699C8.1662 7.07594 8.17705 7.07524 8.1872 7.07524C8.3223 7.07524 8.4392 7.17639 8.4553 7.31324L8.5001 7.69964C8.50815 7.77034 8.4882 7.84069 8.4434 7.89739C8.39825 7.95409 8.33455 7.99014 8.26385 7.99819H8.2635C8.19105 8.00729 8.12245 7.98629 8.06575 7.94149C8.00905 7.89634 7.973 7.83264 7.96495 7.76159L7.9198 7.37589C7.9023 7.23064 8.0108 7.09414 8.1557 7.07699ZM4.8195 17.8783C4.8195 18.0768 4.65815 18.2385 4.4597 18.2385H4.25215C4.0537 18.2385 3.89235 18.0768 3.89235 17.8783V17.6711C3.89235 17.4727 4.0537 17.311 4.25215 17.311H4.4597C4.65815 17.311 4.8195 17.4727 4.8195 17.6711V17.8783ZM10.7328 15.4168C10.7328 15.5144 10.653 15.5942 10.5553 15.5942H10.3191C10.2214 15.5942 10.142 15.5144 10.142 15.4168V14.9758C10.2183 14.9796 10.2949 14.9866 10.3712 14.9866C10.4916 14.9866 10.6124 14.9793 10.7324 14.9695V15.4168H10.7328ZM12.5563 7.99819C12.4852 7.99014 12.4215 7.95409 12.3767 7.89739C12.3316 7.84069 12.3113 7.77034 12.3197 7.69964L12.3648 7.31359C12.3809 7.17639 12.4978 7.07524 12.6326 7.07524C12.6431 7.07524 12.6536 7.07559 12.6641 7.07699C12.8118 7.09449 12.9178 7.22889 12.9007 7.37589L12.8555 7.76159C12.8384 7.90894 12.705 8.01814 12.5563 7.99819Z" fill="white"/>
</svg>
