<svg xmlns="http://www.w3.org/2000/svg" width="22" height="20" fill="none" viewBox="0 0 22 20">
    <path fill="#543379" d="M6.393 0C4.116 0 2.495 1.03 1.466 2.468.436 3.905 0 5.748 0 7.435c0 2.749 1.2 5.216 3.15 7.325 1.948 2.108 4.677 3.873 7.749 5.217.062.03.14.03.202 0 5.036-2.203 9.121-5.498 10.447-9.653.047-.14-.031-.281-.172-.312-.015 0-.047-.016-.062-.016h-6.05L13.8 6.56c-.063-.125-.219-.188-.343-.125-.063.031-.11.078-.125.14l-2.292 6.654L8.965 5.81c-.03-.14-.187-.218-.312-.172-.078.016-.14.079-.171.157L7 9.98H.95c-.25-.827-.42-1.67-.42-2.561 0-1.593.436-3.342 1.371-4.67C2.853 1.42 4.288.499 6.408.499c1.669 0 3.352.704 4.397 2.203.078.11.25.14.359.063.015-.016.046-.032.062-.063C12.271 1.218 13.97.5 15.623.5c2.12 0 3.57.921 4.506 2.249.951 1.328 1.372 3.077 1.372 4.67 0 .422-.031.828-.094 1.25-.03.14.047.28.188.312.14.031.28-.047.312-.188v-.046c.062-.438.093-.875.093-1.312 0-1.687-.452-3.53-1.466-4.967C19.505 1.03 17.884 0 15.607 0c-1.715 0-3.445.718-4.615 2.187C9.854.718 8.108 0 6.392 0zM20.94 10.511c-1.372 3.749-5.161 6.842-9.932 8.95-2.994-1.327-5.613-3.03-7.484-5.045-1.107-1.187-1.902-2.514-2.417-3.905h6.05c.109 0 .202-.078.233-.171l1.263-3.593 2.09 7.435c.03.14.187.219.312.172.078-.016.14-.078.171-.156l2.339-6.826 1.278 2.983c.032.094.125.156.234.156"/>
    <path fill="#41B5C2" d="M20.94 10.52c-1.372 3.749-5.16 6.842-9.932 8.95-2.993-1.328-5.613-3.03-7.484-5.045-1.107-1.187-1.902-2.514-2.417-3.905h6.05c.11 0 .203-.078.234-.171l1.263-3.593 2.09 7.435c.03.14.186.219.311.172.078-.016.14-.078.171-.156l2.34-6.826 1.278 2.983c.031.094.125.156.234.156"/>
</svg>
