<svg xmlns="http://www.w3.org/2000/svg" width="22" height="22" fill="none" viewBox="0 0 22 22">
    <g clip-path="url(#clip0)">
        <path fill="#FF6400" d="M13.756 7.317h-2.588V4.752H7.19v2.565H4.6v3.992H7.19v2.566h3.978v-2.566h2.588V7.317z"/>
        <path fill="#000" d="M13.756 16.963l4.41 4.372c.862.855 2.3.855 3.21 0 .864-.855.864-2.281 0-3.184l-4.36-4.324c-.384.618-.816 1.14-1.295 1.663-.623.618-1.294 1.093-1.965 1.473z"/>
        <path fill="#000" d="M9.394 18.579c-2.444 0-4.84-.95-6.614-2.709C.959 14.112 0 11.784 0 9.313c0-2.518.959-4.846 2.732-6.605 3.643-3.61 9.586-3.61 13.277 0 3.067 3.041 3.642 7.698 1.39 11.404-.384.665-.863 1.236-1.39 1.758-.575.57-1.294 1.093-2.013 1.52-1.438.809-3.02 1.189-4.602 1.189zm0-17.629c-2.157 0-4.313.808-5.943 2.424C1.821 4.989.959 7.08.959 9.314c0 2.232.862 4.323 2.444 5.891 2.636 2.614 6.806 3.184 10.065 1.378.671-.38 1.294-.855 1.822-1.378.48-.475.863-.998 1.246-1.568 2.013-3.279 1.486-7.507-1.246-10.216C13.708 1.758 11.55.951 9.394.951z"/>
    </g>
    <defs>
        <clipPath id="clip0">
            <path fill="#fff" d="M0 0H22V22H0z"/>
        </clipPath>
    </defs>
</svg>
