<svg xmlns="http://www.w3.org/2000/svg" width="16" height="22" fill="none" viewBox="0 0 16 22">
    <g clip-path="url(#clip0)">
        <path fill="#000" d="M8.755 16.21H8.33v-.423c0-.17-.113-.283-.282-.283-.17 0-.283.114-.283.283v.423h-.423c-.17 0-.283.113-.283.283 0 .17.113.282.283.282h.423v.424c0 .17.113.282.283.282.17 0 .282-.113.282-.282v-.424h.424c.17 0 .282-.113.282-.282 0-.17-.141-.282-.282-.282zM11.466 11.155h-6.92c-.169 0-.282.113-.282.283 0 .17.113.282.283.282h6.89c.17 0 .283-.113.283-.282 0-.17-.113-.283-.254-.283zM11.466 12.709h-6.92c-.169 0-.282.113-.282.282 0 .17.113.282.283.282h6.89c.17 0 .283-.113.283-.282 0-.17-.113-.282-.254-.282zM11.466 14.262h-6.92c-.169 0-.282.113-.282.282 0 .17.113.283.283.283h6.89c.17 0 .283-.113.283-.283 0-.17-.113-.282-.254-.282z"/>
        <path fill="#000" d="M.282 22h15.335c.17 0 .283-.113.283-.282V2.824c0-.17-.113-.282-.283-.282H11.41v-.537c0-.17-.113-.282-.282-.282H9.546V1.61C9.546.734 8.84 0 7.936 0c-.904 0-1.61.706-1.61 1.61v.113H4.745c-.17 0-.283.113-.283.282v.537H.282c-.169 0-.282.113-.282.282v18.894c0 .14.141.282.282.282zM5.083 2.288h1.582c.17 0 .282-.113.282-.283V1.61c0-.565.452-1.045 1.045-1.045.565 0 1.045.452 1.045 1.045v.395c0 .17.113.283.283.283H10.9v1.327H5.083V2.288zM4.801 4.18h6.326c.17 0 .282-.113.282-.283v-.79h1.808v15.928H2.71V3.107H4.52v.79c0 .17.113.283.282.283zM.565 3.107h1.553v16.21c0 .17.113.282.283.282h11.098c.17 0 .283-.113.283-.282V3.107h1.553v18.328H.565V3.107z"/>
        <path fill="#000" d="M7.964 1.864c.187 0 .339-.152.339-.339 0-.187-.152-.339-.339-.339-.187 0-.339.152-.339.339 0 .187.152.339.339.339z"/>
        <path fill="#FF6400" d="M4.406 8.275c0 .17.113.282.282.282H6.27c.14 0 .226-.085.282-.198l.056-.226.368 1.187c.028.113.17.197.282.197.141 0 .226-.113.254-.226l.283-1.496.451 1.525c.029.113.17.197.283.197.113 0 .226-.084.282-.197l.396-1.469.452 1.469c.028.113.112.17.225.197h.029c.084 0 .197-.056.254-.14l.508-.82h.763c.17 0 .282-.113.282-.282 0-.17-.113-.283-.282-.283h-.932c-.085 0-.198.057-.254.141l-.255.424-.564-1.807c-.029-.113-.142-.198-.283-.198-.113 0-.226.085-.254.198l-.367 1.412-.48-1.638c-.028-.113-.17-.198-.283-.198-.14 0-.226.113-.254.226l-.31 1.525-.311-1.045c-.028-.113-.141-.198-.283-.198-.112 0-.225.085-.254.198l-.254.96H4.716c-.197 0-.31.141-.31.283z"/>
    </g>
    <defs>
        <clipPath id="clip0">
            <path fill="#fff" d="M0 0H15.9V22H0z"/>
        </clipPath>
    </defs>
</svg>
