<svg xmlns="http://www.w3.org/2000/svg" width="24" height="16" fill="none" viewBox="0 0 24 16">
    <path fill="#41B5C2" d="M21.964 16H2.036C.912 15.999.001 15.07 0 13.925V2.075C0 .93.912.001 2.036 0h19.928C23.088.001 23.999.93 24 2.075v11.85c0 1.145-.912 2.074-2.036 2.075zM2.036.765c-.71 0-1.285.587-1.286 1.31v11.85c0 .723.577 1.31 1.286 1.31h19.928c.71 0 1.285-.587 1.286-1.31V2.075c0-.723-.577-1.31-1.286-1.31H2.036z"/>
    <path fill="#41B5C2" d="M16.685 4.016h-5.37c-.174 0-.315-.183-.315-.408 0-.225.14-.408.315-.408h5.37c.174 0 .315.183.315.408 0 .225-.141.408-.315.408zM20.421 4.016h-2.015c-.224 0-.406-.183-.406-.408 0-.225.182-.408.406-.408h2.015c.225 0 .407.183.407.408 0 .225-.182.408-.407.408z"/>
    <path fill="#41B5C2" fill-rule="evenodd" d="M14.321 6.133h-2.915c-.224 0-.406-.179-.406-.4 0-.22.182-.4.406-.4h2.915c.014 0 .029.001.043.003l.042-.003h4.915c.225 0 .406.18.406.4 0 .221-.181.4-.406.4h-4.915c-.014 0-.028 0-.042-.002-.014.002-.029.002-.043.002zM11.406 8.533h2.915c.014 0 .029 0 .043-.002.014.002.028.002.042.002h6.267c.18 0 .327-.179.327-.4 0-.22-.146-.4-.327-.4h-6.267l-.042.003c-.014-.002-.029-.003-.043-.003h-2.915c-.224 0-.406.18-.406.4 0 .221.182.4.406.4zM11.406 10.933h2.915c.014 0 .029 0 .043-.002.014.002.028.002.042.002h6.915c.225 0 .406-.179.406-.4 0-.22-.181-.4-.406-.4h-6.915l-.042.003c-.014-.002-.029-.003-.043-.003h-2.915c-.224 0-.406.18-.406.4 0 .221.182.4.406.4z" clip-rule="evenodd"/>
    <path fill="#41B5C2" d="M15.776 13.616h-2.915c-.224 0-.406-.183-.406-.408 0-.226.182-.408.406-.408h2.915c.225 0 .407.182.407.408 0 .225-.182.408-.407.408zM11.049 13.616H8.134c-.225 0-.407-.183-.407-.408 0-.226.182-.408.407-.408h2.915c.224 0 .406.182.406.408 0 .225-.182.408-.406.408zM6.321 13.616H3.406c-.224 0-.406-.183-.406-.408 0-.226.182-.408.406-.408h2.915c.225 0 .406.182.406.408 0 .225-.181.408-.406.408zM20.506 13.616h-2.917c-.225 0-.406-.183-.406-.408 0-.226.181-.408.406-.408h2.915c.224 0 .406.182.406.408 0 .225-.182.408-.406.408h.002zM8.698 3.883c-.105-.04-.143-.083-.143-.166 0-.103.079-.162.201-.162.046 0 .09.007.133.021l.05.016c.006.003.008.007.006.013l-.023.064-.002.004-.003.002h-.004-.003l-.045-.014c-.036-.012-.073-.018-.11-.018-.062 0-.103.029-.103.074 0 .036.02.06.082.083l.095.036c.1.037.144.08.144.166 0 .11-.081.17-.214.17-.056 0-.111-.009-.164-.029l-.044-.014c-.006-.003-.008-.007-.006-.012l.022-.066c.003-.005.007-.008.012-.005l.047.015c.043.015.088.022.133.022.064 0 .116-.024.116-.081 0-.037-.036-.063-.084-.081l-.093-.038zM9.656 4.151v.004l-.003.003-.003.003h-.085l-.003-.003-.002-.003v-.28c-.002-.055.001-.11.007-.165 0-.01-.008-.013-.012-.002-.008.023-.018.045-.027.068l-.081.192c-.01.023-.021.056-.03.085l-.005.005c-.002.002-.004.002-.007.002h-.07c-.003 0-.005 0-.007-.002l-.004-.005-.03-.085-.081-.192c-.01-.023-.02-.045-.028-.068-.005-.011-.013-.009-.012.002.006.055.009.11.008.165v.28l-.002.004-.003.002h-.083-.003l-.004-.002-.002-.004v-.582-.004l.002-.003.004-.003h.123c.002 0 .004 0 .006.002.002.001.004.004.004.006.006.021.013.043.022.063l.085.206c.012.03.025.07.033.099.003.009.01.009.012 0 .009-.03.02-.07.032-.1l.086-.204c.009-.02.016-.042.023-.064 0-.003.001-.005.003-.006.002-.002.005-.002.007-.002h.123l.003.003.002.003v.004l.002.578z"/>
    <path fill="#F48366" d="M8.738 5.827c-.089-.457-.168-.793-.32-1.133-.107-.237-.503-.86-.642-.931-.044-.023-.054.046-.008.125.046.08.162.309.095.336-.03.013-.21-.486-.571-.64-.024-.005-.04.06.006.128.183.267.36.578.278.588-.04.004-.274-.538-.61-.647-.049-.015-.037.106.084.252.188.23.274.468.232.49-.025.013-.307-.445-.52-.486-.064-.013-.02.131.086.274.294.394.344.541.327.621-.01.051-.171-.1-.226-.129-.207-.106-.257-.04-.215.021.097.143.567.519.72 1.287.046.227.06.773-.036 1.198-.09.393-.2.563-.328.779-.156.249-.364.46-.61.62-.312.204-.681.305-1.054.287-.42-.015-.73-.13-.964-.301.146.166.303.321.47.466.426.368 1.213.834 2.266 1.04.142-.106.275-.224.397-.352.274-.29.503-.59.68-.953.184-.374.392-.806.464-1.388.063-.522.11-.984 0-1.552z"/>
    <path fill="#FEC465" d="M4.465 8.57c-.212-.202-.52-.579-.66-.894-.243-.54-.3-1.11-.209-1.726.107-.726.26-1.227.6-2.083.005-.255-.448.27-.477.213-.103-.195.595-1.488.443-1.644-.046-.047-.147.088-.248.268-.142.253-.264.6-.325.564-.034-.02-.006-.239.06-.51.069-.282.176-.61.079-.624-.147-.02-.357.92-.496.97-.042.013-.005-.303.018-.55.016-.165.076-.35-.054-.276-.094.053-.3.782-.34.733-.02-.022-.017-.184-.007-.353.008-.132-.01-.266-.068-.14-.097.209-.137.363-.21.582-.28.826-.458 1.684-.53 2.554-.03.39-.058.783-.03 1.187.035.415.11.826.225 1.227.115.41.321.804.587 1.193.24.334.531.626.865.866.427.301.746.419 1.09.484.306.056.619.07.929.04.653-.05 1.488-.58 1.487-.58-1.051-.206-1.836-.67-2.264-1.04-.165-.143-.32-.297-.465-.461z"/>
</svg>
