<svg xmlns="http://www.w3.org/2000/svg" width="24" height="22" fill="none" viewBox="0 0 24 22">
    <g clip-path="url(#clip0)">
        <path fill="#000" d="M21.357 10.357c0-1.953-1.672-3.546-3.721-3.546-2.05 0-3.721 1.593-3.721 3.546 0 1.311.755 2.52 1.995 3.136l.297.154-.324.077c-.323.103-.647.206-.97.334l-.136.078-.053-.129c-.432-.977-1.403-1.62-2.508-1.62-.971 0-1.86.49-2.346 1.286l-.054.103-.108-.052c-.378-.18-.782-.308-1.187-.41l-.35-.078.323-.154c1.376-.617 2.239-1.954 2.239-3.393 0-2.082-1.78-3.752-3.937-3.752-2.185 0-3.938 1.696-3.938 3.752 0 1.44.89 2.776 2.239 3.393l.323.154-.35.077C2.076 14.058 0 16.628 0 19.558v.412h7.82l-.054.18c-.162.462-.242.95-.242 1.439V22h9.41v-.411c0-.488-.08-.977-.242-1.44l-.054-.18H24v-.41c0-2.7-1.888-5.09-4.611-5.835l-.324-.077.297-.154c1.213-.617 1.995-1.825 1.995-3.136zm-9.141 2.853c1.024 0 1.833.797 1.833 1.748 0 .977-.835 1.748-1.833 1.748s-1.834-.797-1.834-1.748.809-1.748 1.834-1.748zM3.72 9.664c0-1.62 1.376-2.93 3.075-2.93 1.698 0 3.074 1.31 3.074 2.93 0 1.619-1.403 2.93-3.074 2.93-1.672 0-3.075-1.311-3.075-2.93zm4.558 9.483H.889l.028-.128c.296-2.879 2.831-5.063 5.879-5.063.943 0 1.833.205 2.642.59l.081.052v.077c-.027.103-.027.206-.027.309 0 .873.459 1.67 1.214 2.158l.215.155-.27.077c-.97.308-1.806.925-2.372 1.722v.051zm.134 2.03l.027-.154c.297-1.747 1.915-3.058 3.776-3.058 1.86 0 3.478 1.31 3.775 3.058l.027.155H8.413zm14.67-2.184l.027.154h-6.957l-.027-.051c-.566-.797-1.402-1.414-2.373-1.722l-.27-.077.216-.155c.728-.462 1.186-1.207 1.213-2.03v-.077l.054-.026c.81-.437 1.726-.642 2.643-.642 2.831-.052 5.177 1.979 5.474 4.626zm-5.447-5.937c-1.564 0-2.831-1.208-2.831-2.698 0-1.491 1.267-2.7 2.831-2.7s2.831 1.209 2.831 2.7c0 1.49-1.267 2.698-2.831 2.698z"/>
        <path fill="#000" d="M12.54.437l-.082.051-.054-.051c-1.024-.668-2.373-.54-3.262.283-.998.95-.998 2.493 0 3.444l3.29 3.135.026-.026.027.026 3.29-3.135c.998-.951.998-2.493 0-3.444-.836-.849-2.211-.951-3.236-.283zm2.642 3.135l-2.67 2.545-.027-.026-.027.026-2.67-2.545c-.646-.616-.646-1.644 0-2.261.324-.309.729-.463 1.187-.463.459 0 .863.154 1.187.463l.35.334.35-.334c.648-.617 1.727-.617 2.374 0 .593.617.593 1.619-.054 2.261z"/>
        <path fill="#FF7401" d="M15.182 3.572l-2.67 2.545-.027-.026-.027.026-2.67-2.545c-.646-.616-.646-1.644 0-2.261.324-.309.729-.463 1.187-.463.459 0 .863.154 1.187.463l.35.334.35-.334c.648-.617 1.727-.617 2.374 0 .593.617.593 1.619-.054 2.261z"/>
    </g>
    <defs>
        <clipPath id="clip0">
            <path fill="#fff" d="M0 0H24V22H0z"/>
        </clipPath>
    </defs>
</svg>
