<svg xmlns="http://www.w3.org/2000/svg" width="24" height="22" fill="none" viewBox="0 0 24 22">
    <path fill="#FF5417" d="M15.31 3.915c-1.212-.491-2.47-.083-3.31 1.038-.84-1.12-2.1-1.53-3.311-1.038-1.234.5-2.353 1.993-1.894 4.09.76 3.48 4.912 5.285 5.089 5.36.037.017.076.024.116.024.04 0 .078-.007.116-.023.176-.076 4.329-1.881 5.089-5.36.458-2.098-.66-3.592-1.895-4.091z"/>
    <path fill="#fff" d="M13.627 8.41H12.3V7.058c0-.17-.135-.306-.3-.306-.166 0-.3.137-.3.306V8.41h-1.327c-.166 0-.3.136-.3.305 0 .17.134.306.3.306H11.7v1.352c0 .17.134.306.3.306.165 0 .3-.137.3-.306V9.021h1.327c.165 0 .3-.137.3-.306 0-.169-.134-.305-.3-.305z"/>
    <path fill="#000" d="M1.371 17.473H9.03c-.043.53-.235 1.895-1.092 2.745l-.005.008H6.738c-.166 0-.3.136-.3.305v1.163c0 .17.134.306.3.306h10.524c.165 0 .3-.137.3-.306v-1.163c0-.169-.135-.305-.3-.305h-1.195l-.005-.008c-.853-.847-1.047-2.214-1.09-2.745h7.657c.756 0 1.371-.627 1.371-1.397V1.742C24 .782 23.233 0 22.29 0H1.371C.615 0 0 .627 0 1.397v14.679c0 .77.615 1.397 1.371 1.397zm15.59 3.916H7.039v-.552h9.924v.552zm-1.68-1.163H8.719c.718-.995.878-2.253.913-2.753h4.736c.035.5.195 1.758.913 2.753zM.6 1.397c0-.433.346-.786.771-.786H22.29c.612 0 1.11.508 1.11 1.131v14.334c0 .433-.346.786-.772.786H1.371c-.425 0-.771-.353-.771-.786V1.397z"/>
    <path fill="#000" d="M1.97 15.207h20.06c.165 0 .3-.137.3-.306v-12.7c0-.17-.135-.306-.3-.306H1.97c-.166 0-.3.137-.3.306v12.7c0 .169.134.306.3.306zm.3-12.7h19.46v12.088H2.27V2.508z"/>
</svg>
