<svg xmlns="http://www.w3.org/2000/svg" width="22" height="20" fill="none" viewBox="0 0 22 20">
    <g clip-path="url(#clip0)">
        <path fill="#000" d="M11.185 1.871c1.022-.698 2.129-1.145 3.35-1.312 4.144-.559 7.04 2.206 7.408 5.53.227 1.956-.369 3.688-1.731 5.168-.057.056-.114.14-.114.223-.227 1.146-.738 1.593-1.902 1.732-.028 0-.028.028-.056.028-.086 1.201-.88 1.9-1.988 1.928 0 .586-.198 1.117-.71 1.508-.482.391-1.05.503-1.674.363-.085.698-.54 1.117-.994 1.536-.283.252-.539.531-.823.81-.596.587-1.277.755-2.044.475-.766-.279-1.164-.866-1.192-1.704 0-.027 0-.055-.028-.111-.54.028-1.022-.168-1.42-.531-.397-.363-.567-.838-.567-1.397-.54-.028-1.022-.167-1.42-.558-.397-.364-.54-.838-.568-1.37-.085 0-.17-.027-.255-.027-1.079-.14-1.732-.894-1.703-1.955 0-.112-.057-.252-.142-.308C1.476 10.866.625 9.665.256 8.184c-.54-2.15-.284-4.162 1.164-5.894 2.384-2.877 6.812-3.072 9.623-.502.085.028.113.056.142.083zm.653 13.101c.056 0 .085.028.113.028.625.028 1.107.28 1.476.726.114.14.256.252.426.335.426.252.965.084 1.22-.335.228-.39.171-.81-.226-1.2l-3.804-3.744-.199-.195c-.17-.196-.142-.447.028-.615.17-.168.426-.195.625-.028.085.056.142.14.199.196l3.832 3.77c.255.252.54.392.908.308.37-.084.596-.307.682-.67.113-.364-.029-.643-.284-.894-1.335-1.285-2.64-2.598-3.974-3.883-.228-.224-.256-.503-.057-.698.198-.196.482-.168.71.055.766.755 1.532 1.48 2.299 2.235l1.703 1.676c.483.447 1.164.363 1.476-.168.227-.363.142-.782-.199-1.145-1.816-1.871-3.662-3.687-5.507-5.503-.028-.027-.085-.083-.17-.14-.057.057-.085.113-.142.168-.681.67-1.334 1.341-2.044 1.984-1.448 1.312-3.662 1.089-4.91-.447C7.493 5.363 8.97 3.91 10.446 2.486 8.062.112 3.832.446 1.93 3.184.738 4.888.71 6.732 1.42 8.604c.369.977.993 1.815 1.816 2.513l1.448-1.424c.511-.503 1.107-.643 1.788-.447.682.195 1.136.642 1.306 1.313.057.167.057.363.085.53.54 0 1.022.168 1.391.559.398.391.54.866.568 1.369 1.363.056 2.044.977 2.016 1.955zm7.976-4.665s.029-.056.057-.056c.057-.083.114-.14.17-.223.824-1.201 1.193-2.514.966-3.967-.284-1.787-1.193-3.184-2.84-4.022-2.1-1.09-4.967-.726-6.784.922-1.362 1.229-2.611 2.542-3.945 3.827v.056c.851.614 2.129.474 2.952-.308.766-.726 1.504-1.48 2.27-2.234.398-.391.597-.391.994 0l2.84 2.793c1.078 1.033 2.185 2.123 3.32 3.212zM7.892 12.011c-.114.056-.312.084-.454.196-.54.474-1.05.977-1.533 1.508-.313.363-.256.866.113 1.201.34.335.88.335 1.22.028.483-.447.966-.922 1.42-1.397.284-.279.34-.614.17-.977-.17-.335-.454-.503-.936-.559zm3.066 2.905c-.029 0-.057-.028-.057-.028 0-.39-.199-.67-.568-.81-.369-.167-.71-.111-.993.168-.455.419-.909.866-1.335 1.313-.397.39-.397.921-.056 1.285.397.39.936.39 1.334 0 .454-.42.88-.838 1.306-1.285.141-.196.227-.447.369-.643zM9.595 18.1c.057.392.284.727.624.866.37.14.71.084.994-.195.454-.447.937-.894 1.391-1.369.37-.363.34-.894 0-1.229-.369-.363-.908-.39-1.277-.028-.483.447-.937.894-1.391 1.369-.142.168-.227.391-.341.587zM3.69 12.29c.057.42.256.699.597.866.369.168.71.112.993-.167.483-.447.937-.922 1.391-1.369.37-.363.34-.894 0-1.229-.369-.363-.908-.391-1.277-.028-.454.447-.937.894-1.363 1.369-.17.14-.255.363-.34.559z"/>
        <path fill="#FFD2BF" d="M11.837 14.972c.057 0 .086.028.114.028.624.028 1.107.28 1.476.726.114.14.256.252.426.335.426.252.965.084 1.22-.335.228-.39.17-.81-.226-1.2l-3.804-3.744c-.057-.056-.142-.14-.2-.195-.17-.196-.141-.447.03-.615.17-.168.425-.195.624-.028.085.056.142.14.198.196l3.833 3.77c.255.252.54.392.908.308.37-.084.596-.307.681-.67.114-.364-.028-.643-.283-.894-1.335-1.285-2.64-2.598-3.975-3.883-.227-.224-.255-.503-.056-.698.198-.196.482-.168.71.055.766.755 1.532 1.48 2.299 2.235l1.703 1.676c.482.447 1.164.363 1.476-.168.227-.363.142-.782-.199-1.145-1.817-1.871-3.662-3.687-5.507-5.503-.028-.027-.085-.083-.17-.14-.057.057-.085.113-.142.168-.681.67-1.334 1.341-2.044 1.984-1.448 1.312-3.662 1.089-4.91-.447C7.493 5.363 8.97 3.91 10.446 2.486 8.062.112 3.832.446 1.93 3.184.738 4.888.71 6.732 1.42 8.604c.368.977.993 1.815 1.816 2.513l1.448-1.424c.51-.503 1.107-.643 1.788-.447.682.195 1.136.642 1.306 1.313.057.167.057.363.085.53.54 0 1.022.168 1.391.559.398.391.54.866.568 1.369 1.363.056 2.044.977 2.015 1.955z"/>
    </g>
    <defs>
        <clipPath id="clip0">
            <path fill="#fff" d="M0 0H22V20H0z"/>
        </clipPath>
    </defs>
</svg>
