<svg width="27" height="24" viewBox="0 0 27 24" fill="none" xmlns="http://www.w3.org/2000/svg">
<g clip-path="url(#clip0)">
<path d="M14.0343 0.286377L11.1584 2.29115L18.3482 5.7279L14.6095 0.286377H14.0343Z" fill="#4FD816"/>
<path d="M6.84466 0.859131L4.25635 6.58705H19.211L6.84466 0.859131Z" fill="#4FD816"/>
<path d="M0.920311 8.64901C0.920311 7.90438 1.49549 7.33159 2.24322 7.33159H3.85373V23.0834H2.24322C1.49549 23.0834 0.920311 22.5106 0.920311 21.766V8.64901ZM6.90218 1.71822C6.9597 1.54638 7.13225 1.4891 7.30481 1.4891C7.36232 1.4891 7.41984 1.4891 7.47736 1.54638L18.6358 6.4724H16.3926L9.49049 3.37932C9.31794 3.32204 9.14538 3.37932 9.08786 3.55116C8.68524 4.41035 7.64991 4.8113 6.78715 4.41035C6.72963 4.35307 6.61459 4.35307 6.55707 4.41035C6.44204 4.41035 6.327 4.46762 6.327 4.5249L5.46423 6.41512H4.65898L6.90218 1.71822ZM13.8619 0.973592C13.9194 0.916313 14.0344 0.916313 14.0919 0.916313H14.1494C14.2645 0.916313 14.3795 0.973592 14.437 1.08815L17.658 5.21226L11.6187 2.52013L13.8619 0.973592ZM6.44204 6.41512L6.78715 5.32681C7.82247 5.61321 8.91531 5.21225 9.49049 4.29579L14.6096 6.41512H6.44204ZM22.432 7.33159C23.1798 7.33159 23.7549 7.90438 23.7549 8.64901V12.0285H21.3967C19.6712 12.0285 18.2332 13.4605 18.2332 15.1788C18.2332 16.8972 19.6712 18.3292 21.3967 18.3292H23.7549V21.766C23.7549 22.5106 23.1798 23.0834 22.432 23.0834H4.77402V7.33159H22.432ZM24.9053 12.945C25.1929 12.945 25.423 13.1741 25.423 13.4605V16.9545C25.423 17.2409 25.1929 17.47 24.9053 17.47H21.7418C20.3614 17.47 19.211 16.6108 19.211 15.2361C19.211 13.8614 20.3614 13.0022 21.7418 13.0022H25.1929L24.9053 12.945ZM1.95563 23.9998C11.0435 23.9998 7.13225 23.9998 22.7196 23.9998C23.8125 23.9998 24.6752 23.1407 24.6752 22.0523V18.3292H25.1929C25.8256 18.3292 26.3433 17.8137 26.3433 17.1836V13.1741C26.3433 12.544 25.8256 12.0285 25.1929 12.0285H24.6752V8.36261C24.6752 7.27431 23.8125 6.41512 22.7196 6.41512H20.3614L18.8659 5.72777L14.9547 0.458079C14.7821 0.228962 14.5521 0.0571242 14.2645 0.0571242C13.9769 -0.000154987 13.6893 0.0571242 13.4592 0.228962L10.7559 2.17646L7.36232 0.687196C6.84466 0.458079 6.21196 0.687196 5.98189 1.20271L3.62366 6.4724H1.89812C0.805275 6.4724 -0.0574951 7.33159 -0.0574951 8.41989V22.1096C2.28652e-05 23.1407 0.862793 23.9998 1.95563 23.9998Z" fill="black"/>
<path d="M22.317 15.1791C22.317 15.6946 21.9144 16.0956 21.3967 16.0956C20.8791 16.0956 20.4764 15.6946 20.4764 15.1791C20.4764 14.6636 20.8791 14.2626 21.3967 14.2626C21.9144 14.3199 22.317 14.7209 22.317 15.1791ZM19.9012 15.1791C19.9012 16.0383 20.5915 16.7256 21.4542 16.7256C22.317 16.7256 23.0072 16.0383 23.0072 15.1791C23.0072 14.3199 22.317 13.6326 21.4542 13.6326C20.5915 13.6898 19.9012 14.3772 19.9012 15.1791Z" fill="black"/>
</g>
<defs>
<clipPath id="clip0">
<rect width="26.2857" height="24" fill="white"/>
</clipPath>
</defs>
</svg>
