<svg width="24" height="24" viewBox="0 0 24 24" fill="none" xmlns="http://www.w3.org/2000/svg">
<path d="M18.5038 1C20.8735 1.00163 22.9758 2.52109 23.7208 4.77096C24.4658 7.02062 23.686 9.49468 21.7856 10.9105C19.8855 12.3263 17.2919 12.3658 15.3496 11.008C13.4071 9.65046 12.5528 7.20124 13.2292 4.92999C13.9251 2.59786 16.07 0.999593 18.5038 1V1Z" fill="#4FD816"/>
<path d="M18.4114 4.39466C18.4147 4.39466 18.4179 4.39523 18.4211 4.39523C18.4355 4.39523 18.45 4.39428 18.4644 4.39257C18.9411 4.39693 19.3254 4.78425 19.3262 5.26081C19.3262 5.47554 19.5003 5.64964 19.715 5.64964C19.9298 5.64964 20.1039 5.47554 20.1039 5.26081C20.1027 4.48788 19.5648 3.81938 18.8099 3.65306V3.27922C18.8099 3.06448 18.6358 2.89038 18.4211 2.89038C18.2064 2.89038 18.0323 3.06448 18.0323 3.27922V3.66995C17.2341 3.88374 16.7179 4.65572 16.8255 5.47497C16.9332 6.29422 17.6313 6.90691 18.4576 6.9071C18.9373 6.9071 19.3262 7.29594 19.3262 7.77572C19.3262 8.25531 18.9373 8.64415 18.4576 8.64415C17.9778 8.64415 17.589 8.25531 17.589 7.77572C17.589 7.56079 17.4148 7.38688 17.2001 7.38688C16.9854 7.38688 16.8113 7.56079 16.8113 7.77572C16.8122 8.52073 17.3127 9.17253 18.0323 9.366V9.79224C18.0323 10.007 18.2064 10.1811 18.4211 10.1811C18.6358 10.1811 18.8099 10.007 18.8099 9.79224V9.38347C19.6311 9.20367 20.1849 8.43397 20.0944 7.59839C20.0038 6.76261 19.2983 6.12923 18.4576 6.12942C17.9867 6.13018 17.6011 5.7554 17.5886 5.28473C17.576 4.81406 17.941 4.41915 18.4112 4.39466H18.4114Z" fill="black"/>
<path d="M18.48 1.00011C17.2789 0.992515 16.109 1.38116 15.1511 2.10549C14.3024 2.75823 13.6546 3.63653 13.2819 4.64014H3.63072C3.41694 4.64014 3.2434 4.83285 3.24188 5.04664L3.15018 18.6869H0.399089C0.184355 18.6869 0 18.8424 0 19.0573V20.785C0 22.4196 1.31232 23.7573 2.91627 23.8302V23.839H14.9216V23.8278C15.0188 23.8316 15.0625 23.839 15.1204 23.839H15.1287C16.8128 23.8346 18.1764 22.4689 18.1781 20.7847V12.0324C18.2753 12.0377 18.379 12.0411 18.479 12.0411C21.5278 12.0415 23.9996 9.5701 24 6.5211C24.0002 3.4723 21.5288 1.00049 18.48 1.00011V1.00011ZM0.777672 20.7847V19.4646H12.0539V20.779C12.0539 21.6776 12.4638 22.478 13.0917 23.0613H3.06152C1.80425 23.0585 0.784697 22.0419 0.777672 20.7847V20.7847ZM15.1257 23.0613H15.1204C15.0718 23.0613 15.0116 23.0569 14.9556 23.0533C13.7623 22.9666 12.8369 21.9759 12.8316 20.7794V19.0573C12.8348 18.958 12.7967 18.8617 12.7264 18.7915C12.656 18.7213 12.5595 18.6835 12.4602 18.6869H3.92785L4.0169 5.41782H13.0665C12.997 5.78178 12.9613 6.15144 12.9596 6.52186C12.9596 7.30922 13.1278 8.04247 13.4316 8.77154H9.75584C9.5411 8.77154 9.367 8.94564 9.367 9.16037C9.367 9.37511 9.5411 9.54921 9.75584 9.54921H13.8538C14.6628 10.7934 15.9432 11.6548 17.4004 11.9354V20.7843C17.3991 22.0404 16.3818 23.0586 15.1257 23.0613V23.0613ZM18.48 11.2635C18.2671 11.2637 18.0545 11.2494 17.8436 11.2209H17.843C15.5022 10.9071 13.737 8.8864 13.737 6.52091C13.737 3.90139 15.8605 1.77797 18.48 1.77797C21.0993 1.77797 23.2227 3.90139 23.2227 6.52091C23.2227 9.14025 21.0993 11.2637 18.48 11.2637V11.2635Z" fill="black"/>
<path d="M7.26011 11.3108C6.57357 11.3108 6.01538 11.8513 6.01538 12.5157C6.01538 13.18 6.57357 13.7211 7.26011 13.7211C7.94646 13.7211 8.50427 13.1804 8.50427 12.5157C8.50427 11.8509 7.94608 11.3108 7.26011 11.3108V11.3108ZM7.26011 12.9434C7.00247 12.9434 6.79305 12.7515 6.79305 12.5157C6.79305 12.2798 7.00247 12.0885 7.26011 12.0885C7.51756 12.0885 7.7266 12.28 7.7266 12.5157C7.7266 12.7513 7.51737 12.9434 7.26011 12.9434Z" fill="black"/>
<path d="M14.9397 12.1252H9.7559C9.54117 12.1252 9.36707 12.2993 9.36707 12.5141C9.36707 12.7288 9.54117 12.9029 9.7559 12.9029H14.9397C15.1544 12.9029 15.3285 12.7288 15.3285 12.5141C15.3285 12.2993 15.1544 12.1252 14.9397 12.1252Z" fill="black"/>
<path d="M7.26011 7.93066C6.57357 7.93066 6.01538 8.47139 6.01538 9.1361C6.01538 9.80081 6.57357 10.341 7.26011 10.341C7.94646 10.341 8.50427 9.80062 8.50427 9.1361C8.50427 8.47177 7.94608 7.93066 7.26011 7.93066ZM7.26011 9.56329C7.00247 9.56329 6.79305 9.37172 6.79305 9.1361C6.79305 8.90048 7.00247 8.70834 7.26011 8.70834C7.51756 8.70834 7.7266 8.90029 7.7266 9.1361C7.7266 9.37191 7.51737 9.56329 7.26011 9.56329Z" fill="black"/>
<path d="M7.26011 14.6907C6.57357 14.6907 6.01538 15.2312 6.01538 15.8955C6.01538 16.5601 6.57357 17.1004 7.26011 17.1004C7.94646 17.1004 8.50427 16.5599 8.50427 15.8955C8.50427 15.2312 7.94608 14.6907 7.26011 14.6907ZM7.26011 16.3227C7.00247 16.3227 6.79305 16.1312 6.79305 15.8955C6.79305 15.6599 7.00247 15.4684 7.26011 15.4684C7.51756 15.4684 7.7266 15.6599 7.7266 15.8955C7.7266 16.1312 7.51737 16.3227 7.26011 16.3227Z" fill="black"/>
<path d="M14.9397 15.5276H9.7559C9.54117 15.5276 9.36707 15.7017 9.36707 15.9164C9.36707 16.1312 9.54117 16.3053 9.7559 16.3053H14.9397C15.1544 16.3053 15.3285 16.1312 15.3285 15.9164C15.3285 15.7017 15.1544 15.5276 14.9397 15.5276Z" fill="black"/>
</svg>
