<svg xmlns="http://www.w3.org/2000/svg" width="24" height="26" fill="none" viewBox="0 0 24 26">
    <g clip-path="url(#clip0)">
        <path fill="#000" d="M1.225 14.602c.55 0 1.014-.55 1.014-1.19v-.32h7.014v.32c0 .64.465 1.19 1.014 1.19.338 0 .634.32.634.732v.504H.591v-.503c0-.412.296-.733.634-.733zm0-2.93v-.87c0-.411.296-.777.718-.777h7.648c.38 0 .719.32.719.778v.87c0 .412-.296.778-.719.778h-7.69c-.38 0-.676-.367-.676-.778zm9.042 13.687H1.225c-.338 0-.634-.32-.634-.732v-.87h10.31v.87c0 .412-.296.732-.634.732zm.634-2.243H.591V16.48h10.31v6.637zM1.225 26h9.042c.676 0 1.226-.64 1.226-1.419v-9.246c0-.779-.55-1.42-1.226-1.42-.253 0-.422-.228-.422-.503v-.366c.591-.137 1.014-.687 1.014-1.373v-.87c0-.778-.592-1.42-1.31-1.42H1.901c-.718 0-1.31.642-1.31 1.42v.87c0 .686.465 1.236 1.014 1.373v.366c0 .275-.21.503-.422.503-.676 0-1.225.641-1.225 1.42v9.292C0 25.405.549 26 1.225 26zM13.732 5.218c.55 0 1.014-.549 1.014-1.19v-.32h7.015v.32c0 .641.464 1.19 1.014 1.19.338 0 .634.32.634.733v2.105h-10.31V5.951c0-.366.295-.733.633-.733zm0-2.93V1.42c0-.412.296-.778.719-.778h7.648c.38 0 .718.32.718.778v.87c0 .412-.296.778-.718.778h-7.69c-.38 0-.677-.32-.677-.778zm9.043 23.071h-9.043c-.338 0-.633-.32-.633-.732v-3.845h10.31v3.845c0 .412-.296.732-.634.732zm.634-5.218h-10.31V8.743h10.31v11.398zM13.732 26h9.043C23.45 26 24 25.36 24 24.581V5.996c0-.778-.55-1.419-1.225-1.419-.254 0-.423-.228-.423-.503v-.366c.592-.138 1.014-.687 1.014-1.373v-.916C23.41.641 22.817 0 22.1 0h-7.69c-.719 0-1.31.64-1.31 1.419v.87c0 .686.464 1.236 1.014 1.373v.366c0 .275-.211.504-.423.504-.676 0-1.225.64-1.225 1.419v18.63c.042.824.591 1.419 1.267 1.419z"/>
        <path fill="#000" d="M14.831 12.36c.127-.138.338-.23.55-.23.21 0 .38.092.549.23l.507.549-1.057 1.144-.507-.55c-.126-.137-.21-.366-.21-.595-.043-.183.041-.412.168-.549zm2.789 2.196c0 .23-.085.412-.212.595-.295.32-.76.32-1.056 0l-.507-.549 1.056-1.144.508.55c.126.09.21.32.21.548zm-3.212-.595l1.48 1.602c.253.275.591.412.971.412.338 0 .676-.137.972-.412.254-.274.38-.64.38-1.052 0-.412-.126-.779-.38-1.053L16.352 11.9c-.55-.595-1.394-.595-1.901 0-.254.275-.38.641-.38 1.053-.043.366.084.733.338 1.007zM4.479 18.401c.169-.183.338-.229.549-.229.211 0 .38.092.55.23l.549.594-1.141 1.145-.55-.595c-.126-.138-.21-.32-.21-.55 0-.228.084-.412.253-.595zM7.267 20.6c0 .228-.084.412-.21.595-.297.32-.761.32-1.1 0l-.549-.595 1.099-1.145.55.595c.126.138.21.32.21.55zm-3.21-.55l1.478 1.602c.254.275.634.412.972.412.338 0 .718-.137.972-.412.253-.274.38-.64.38-1.052 0-.412-.127-.779-.38-1.053l-1.48-1.602c-.548-.595-1.394-.595-1.943 0-.253.274-.38.64-.38 1.052-.042.412.084.779.38 1.053zM21 18.218c-.507.138-1.056-.137-1.268-.595l2.155-.595c0 .229-.042.412-.169.641-.169.275-.422.458-.718.55zm-.55-2.426c.085-.046.17-.046.296-.046.423 0 .803.23 1.014.641l-2.155.595c0-.229.043-.412.17-.64.126-.275.38-.458.676-.55zm-.168-.64c-.465.137-.846.411-1.1.87-.253.457-.295.96-.21 1.418.21.87.93 1.42 1.69 1.42.127 0 .296 0 .422-.047.465-.137.845-.412 1.099-.87.253-.411.296-.96.211-1.418-.211-1.007-1.14-1.602-2.112-1.374zM19.225 11.58c.042-.228.127-.411.254-.594l1.31 1.922c-.465.184-1.015.046-1.353-.412-.169-.274-.253-.595-.21-.915zm1.141-1.098c.338 0 .718.183.93.504.169.274.253.595.21.915-.041.23-.126.412-.253.595l-1.31-1.922c.17-.046.296-.092.423-.092zm0 3.159c.38 0 .718-.137 1.056-.366.38-.32.634-.733.676-1.236.043-.504-.042-1.007-.338-1.42-.591-.823-1.69-1.006-2.45-.411-.338.32-.592.778-.676 1.236-.085.503.042 1.007.338 1.419.338.503.887.778 1.394.778z"/>
        <path fill="#FF7401" d="M4.48 18.401c.168-.183.337-.229.548-.229.212 0 .38.092.55.23l.549.595-1.14 1.144-.55-.595c-.127-.137-.211-.32-.211-.55 0-.228.084-.412.253-.595zM14.83 12.36c.128-.138.339-.23.55-.23.211 0 .38.092.55.23l.506.548-1.056 1.145-.507-.55c-.127-.137-.211-.366-.211-.595-.042-.183.042-.412.169-.549z"/>
        <path fill="#F8CC61" d="M21 18.218c-.507.138-1.056-.137-1.268-.595l2.155-.595c0 .229-.042.412-.169.641-.169.275-.422.458-.718.55zM20.45 15.792c.085-.045.17-.045.296-.045.423 0 .803.228 1.014.64l-2.155.596c0-.23.043-.413.17-.641.126-.275.38-.458.676-.55zM19.226 11.581c.042-.229.126-.412.253-.595l1.31 1.922c-.465.184-1.014.046-1.352-.412-.17-.274-.254-.595-.211-.915zM20.366 10.482c.338 0 .719.184.93.504.169.274.253.595.211.915-.042.23-.127.412-.253.595l-1.31-1.922c.169-.046.296-.092.422-.092z"/>
    </g>
    <defs>
        <clipPath id="clip0">
            <path fill="#fff" d="M0 0H24V26H0z"/>
        </clipPath>
    </defs>
</svg>
