<svg xmlns="http://www.w3.org/2000/svg" width="22" height="23" fill="none" viewBox="0 0 22 23">
    <g clip-path="url(#clip0)">
        <path fill="#FEC465" stroke="#000" d="M18.373 8.408l.1.283.296.045 2.731.42v3.69l-2.733.422-.295.046-.1.282c-.095.27-.203.53-.326.785l-.13.27.177.242 1.635 2.23-2.609 2.609-2.23-1.636-.242-.177-.27.13c-.254.122-.516.23-.784.325l-.282.1-.046.296-.42 2.731H9.154l-.42-2.732-.046-.295-.28-.1c-.27-.096-.53-.205-.786-.327l-.27-.13-.242.177-2.23 1.637-2.61-2.61 1.635-2.232.177-.24-.129-.27c-.121-.255-.23-.517-.325-.785l-.1-.282-.295-.046-2.733-.42v-3.69l2.733-.422.296-.045.1-.283c.094-.269.203-.529.325-.783l.13-.27-.177-.243-1.635-2.23 2.609-2.609 2.227 1.635.241.177.27-.13c.257-.122.518-.231.786-.326l.283-.1.045-.295L9.153.5h3.691l.42 2.732.046.295.281.1c.271.096.531.204.786.327l.27.13.243-.177 2.229-1.635 2.61 2.61-1.634 2.229-.178.242.13.27c.123.256.231.516.326.785zm-7.372-2.46h0c-2.792.001-5.052 2.262-5.052 5.053 0 2.788 2.261 5.051 5.05 5.051 2.792 0 5.053-2.262 5.053-5.052 0-2.79-2.262-5.05-5.05-5.052z"/>
    </g>
    <defs>
        <clipPath id="clip0">
            <path fill="#fff" d="M0 0H22V22.001H0z"/>
        </clipPath>
    </defs>
</svg>
