<svg xmlns="http://www.w3.org/2000/svg" width="24" height="24" fill="none" viewBox="0 0 24 24">
    <g clip-path="url(#clip0)">
        <path fill="#000" d="M9.12 8.79c-1.05.42-1.98 1.65-1.59 3.36.66 2.85 4.17 4.29 4.32 4.35.03 0 .06.03.12.03s.09 0 .12-.03c.15-.06 3.69-1.53 4.32-4.35.39-1.71-.54-2.94-1.59-3.36-1.02-.42-2.1-.09-2.85.81-.72-.9-1.8-1.23-2.85-.81zm3.12 1.47c.69-1.11 1.68-1.2 2.37-.9.81.33 1.53 1.29 1.23 2.67-.54 2.25-3.27 3.6-3.87 3.87-.6-.27-3.33-1.62-3.87-3.9-.3-1.35.42-2.34 1.23-2.67.21-.09.45-.15.69-.15.57 0 1.2.27 1.68 1.05.12.21.42.21.54.03z"/>
        <path fill="#000" d="M19.74 2.46c.15 1.05 1.05 1.86 2.13 1.86 1.17 0 2.16-.96 2.16-2.16C24 .96 23.04 0 21.87 0c-1.08 0-1.98.81-2.13 1.86h-2.91c-.12 0-.21.06-.27.18l-1.83 3.72c-.84-.36-1.74-.57-2.7-.57-.96 0-1.89.21-2.7.57L7.44 2.01c-.06-.09-.15-.18-.27-.18H4.26C4.11.81 3.24 0 2.16 0 .96 0 0 .96 0 2.16c0 1.17.96 2.16 2.16 2.16 1.08 0 1.98-.81 2.13-1.86h2.73L8.76 6c-2.04 1.11-3.45 3.24-3.57 5.7h-.9c-.15-1.05-1.05-1.86-2.13-1.86C.96 9.84 0 10.83 0 12c0 1.17.96 2.16 2.16 2.16 1.08 0 1.98-.81 2.13-1.86h.9c.12 2.61 1.71 4.86 3.99 5.91l-2.13 3.36H4.29c-.15-1.05-1.05-1.86-2.13-1.86-1.17 0-2.16.96-2.16 2.16C0 23.04.96 24 2.16 24c1.08 0 1.98-.81 2.13-1.86H7.2c.09 0 .21-.06.24-.15l2.28-3.57c.72.24 1.47.39 2.28.39.81 0 1.56-.15 2.28-.39l2.28 3.57c.06.09.15.15.24.15h2.91c.15 1.05 1.05 1.86 2.13 1.86 1.17 0 2.16-.96 2.16-2.16 0-1.17-.96-2.16-2.16-2.16-1.08 0-1.98.81-2.13 1.86h-2.76l-2.13-3.36c2.28-1.02 3.9-3.27 3.99-5.88h.9c.15 1.05 1.05 1.86 2.13 1.86 1.17 0 2.16-.96 2.16-2.16 0-1.17-.96-2.16-2.16-2.16-1.08 0-1.98.81-2.13 1.86h-.9c-.12-2.46-1.53-4.59-3.57-5.7l1.77-3.54h2.73zM21.87.6c.84 0 1.53.69 1.53 1.56 0 .87-.69 1.56-1.56 1.56-.87 0-1.56-.69-1.56-1.56 0-.87.72-1.56 1.59-1.56zM2.16 3.69C1.29 3.69.6 3 .6 2.16.6 1.32 1.29.6 2.16.6c.87 0 1.56.69 1.56 1.56 0 .87-.72 1.53-1.56 1.53zm0 19.71c-.87 0-1.56-.69-1.56-1.56 0-.87.69-1.56 1.56-1.56.87 0 1.56.69 1.56 1.56 0 .87-.72 1.56-1.56 1.56zm19.71-3.09c.84 0 1.56.69 1.56 1.56 0 .87-.72 1.53-1.56 1.53-.84 0-1.56-.69-1.56-1.56 0-.87.69-1.53 1.56-1.53zM2.16 13.56C1.29 13.56.6 12.84.6 12c0-.84.69-1.56 1.56-1.56.87 0 1.56.69 1.56 1.56 0 .87-.72 1.56-1.56 1.56zm19.71-3.12c.84 0 1.56.69 1.56 1.56 0 .87-.69 1.56-1.56 1.56-.87 0-1.56-.69-1.56-1.56 0-.87.69-1.56 1.56-1.56zM18.24 12c0 3.42-2.79 6.21-6.24 6.21S5.79 15.42 5.79 12 8.58 5.79 12 5.79s6.24 2.79 6.24 6.21z"/>
        <path fill="#FF6400" d="M12.24 10.26c.69-1.11 1.68-1.2 2.37-.9.81.33 1.53 1.29 1.23 2.67-.54 2.25-3.27 3.6-3.87 3.87-.6-.27-3.33-1.62-3.87-3.9-.3-1.35.42-2.34 1.23-2.67.21-.09.45-.15.69-.15.57 0 1.2.27 1.68 1.05.12.21.42.21.54.03z"/>
    </g>
    <defs>
        <clipPath id="clip0">
            <path fill="#fff" d="M0 0H24V24H0z"/>
        </clipPath>
    </defs>
</svg>
