<svg xmlns="http://www.w3.org/2000/svg" width="19" height="28" fill="none" viewBox="0 0 19 28">
    <path fill="#41B5C2" d="M1.998 23.603h14.175c.193 0 .35-.157.35-.35V3.18c0-.194-.157-.35-.35-.35H1.997c-.193 0-.35.156-.35.35v20.073c0 .193.157.35.35.35zm.35-20.073h13.474v19.373H2.348V3.53z"/>
    <path fill="#41B5C2" d="M15.822 3.53H2.348v19.373h13.474V3.53z"/>
    <path fill="#000" d="M1.875 28h14.42c1.034 0 1.875-.841 1.875-1.875V1.875C18.17.84 17.329 0 16.295 0H1.875C.84 0 0 .841 0 1.875v24.25C0 27.159.841 28 1.875 28zM.7 1.875C.7 1.227 1.227.7 1.875.7h14.42c.648 0 1.175.527 1.175 1.175v24.25c0 .648-.527 1.175-1.175 1.175H1.875C1.227 27.3.7 26.773.7 26.125V1.875z"/>
    <path fill="#000" d="M8.436 2.297h2.299c.193 0 .35-.157.35-.35 0-.194-.157-.35-.35-.35H8.436c-.193 0-.35.156-.35.35 0 .193.157.35.35.35zM7.187 2.195c.035.031.073.059.115.077.042.017.088.024.133.024.046 0 .091-.007.133-.024.042-.018.08-.046.116-.077.031-.035.056-.074.073-.116.018-.042.028-.087.028-.133 0-.045-.01-.091-.028-.133-.017-.042-.042-.08-.073-.115-.035-.032-.074-.056-.116-.074-.129-.052-.283-.021-.381.074-.032.035-.056.073-.074.115-.017.042-.028.088-.028.133 0 .046.01.091.028.133.018.042.042.08.074.116zM9.085 24.179c-.696 0-1.262.566-1.262 1.262 0 .695.566 1.261 1.262 1.261.696 0 1.262-.566 1.262-1.261 0-.696-.566-1.262-1.262-1.262zm0 1.824c-.31 0-.562-.253-.562-.562 0-.31.252-.562.562-.562.31 0 .562.252.562.562 0 .31-.252.562-.562.562z"/>
    <path fill="#fff" d="M13.596 7.457c.062-.53-.32-1.013-.851-1.075-.532-.061-1.013.32-1.075.85l-.045.387c-.03.256.042.51.203.713.16.203.39.332.647.362.038.004.076.006.114.006.262 0 .503-.11.68-.286 1.099 1.432.996 3.495-.313 4.805-1.425 1.424-3.744 1.425-5.169 0-1.323-1.323-1.416-3.416-.282-4.849.039.044.08.085.126.121.173.138.383.21.6.21.037 0 .076-.002.113-.007.257-.03.487-.158.648-.362.16-.203.233-.457.203-.713l-.045-.386c-.062-.53-.545-.911-1.075-.85-.532.062-.913.545-.851 1.075l.018.153c-1.645 1.702-1.63 4.423.05 6.103.611.611 1.362 1 2.15 1.17v.534c0 .4.272.737.64.84v2.062c0 .73-.524 1.324-1.169 1.324s-1.17-.594-1.17-1.324v-1.425c0-1.116-.838-2.024-1.869-2.024-.95 0-1.735.773-1.852 1.768-.474.105-.83.528-.83 1.034v.207c0 .584.475 1.06 1.06 1.06h.207c.585 0 1.06-.476 1.06-1.06v-.207c0-.492-.338-.902-.792-1.022.102-.613.577-1.08 1.147-1.08.645 0 1.17.594 1.17 1.324v1.425c0 1.116.838 2.024 1.87 2.024 1.03 0 1.869-.908 1.869-2.024v-2.058c.373-.101.65-.44.65-.844v-.566c.739-.185 1.44-.56 2.017-1.138 1.656-1.656 1.692-4.321.119-6.027l.027-.23zm-5.44-.38l.031-.002c.135 0 .252.101.268.238L8.5 7.7c.008.07-.012.14-.057.197-.045.057-.108.093-.18.101-.072.01-.14-.012-.197-.057-.057-.045-.093-.108-.101-.18l-.045-.385c-.018-.145.09-.282.236-.299zM4.819 17.878c0 .199-.16.36-.36.36h-.207c-.198 0-.36-.161-.36-.36v-.207c0-.198.162-.36.36-.36h.208c.198 0 .36.162.36.36v.207zm5.914-2.461c0 .097-.08.177-.178.177h-.236c-.098 0-.177-.08-.177-.177v-.441c.076.004.153.01.23.01.12 0 .24-.007.36-.017v.448zm1.823-7.419c-.07-.008-.134-.044-.18-.1-.044-.057-.065-.128-.056-.198l.045-.386c.016-.138.133-.239.268-.239.01 0 .02 0 .031.002.148.017.254.152.237.299l-.046.386c-.017.147-.15.256-.299.236z"/>
</svg>
