<svg width="34" height="35" viewBox="0 0 34 35" fill="none" xmlns="http://www.w3.org/2000/svg">
<path fill-rule="evenodd" clip-rule="evenodd" d="M17.0741 0C26.0264 0 33.2837 7.74878 33.2837 17.3076C33.2837 26.8664 26.0264 34.6153 17.0741 34.6153C8.12175 34.6153 0.864441 26.8664 0.864441 17.3076C0.864441 7.74878 8.12175 0 17.0741 0Z" fill="#F48366"/>
<path d="M20.1641 15.1547L24.9137 12.4125C25.2477 12.2191 25.3637 11.7902 25.1704 11.4527C24.977 11.1187 24.5481 11.0027 24.2106 11.1961L19.461 13.9382C19.127 14.1316 19.011 14.5605 19.2044 14.898C19.3977 15.2355 19.8301 15.348 20.1641 15.1547Z" fill="white"/>
<path d="M25.2969 17.0073H19.8125C19.4258 17.0073 19.1094 17.3237 19.1094 17.7104C19.1094 18.0972 19.4258 18.4136 19.8125 18.4136H25.2969C25.6836 18.4136 26 18.0972 26 17.7104C26 17.3237 25.6836 17.0073 25.2969 17.0073Z" fill="white"/>
<path d="M17.348 12.9012C17.1477 12.7711 16.898 12.75 16.6801 12.8484L12.4227 14.7469H8.70313C8.31641 14.7469 8 15.0633 8 15.45V19.9711C8 20.3578 8.31641 20.6742 8.70313 20.6742H10.6367V23.3355C10.6367 23.7223 10.9531 24.0387 11.3398 24.0387C11.7266 24.0387 12.043 23.7223 12.043 23.3355V20.6742H12.4191L16.6766 22.5726C16.8945 22.6711 17.1441 22.65 17.3445 22.5199C17.5449 22.3898 17.6645 22.1683 17.6645 21.9293V13.4918C17.668 13.2527 17.5484 13.0312 17.348 12.9012ZM16.2617 20.8465L12.8551 19.3277C12.7637 19.289 12.6688 19.268 12.5703 19.268C10.8898 19.268 9.55391 19.268 9.40625 19.268V16.1531H12.5703C12.6688 16.1531 12.7672 16.132 12.8551 16.0933L16.2617 14.5746V20.8465Z" fill="white"/>
<path d="M24.9136 23.0086L20.164 20.2664C19.8301 20.073 19.3976 20.189 19.2043 20.523C19.0109 20.857 19.1234 21.2894 19.4609 21.4828L24.2105 24.225C24.5445 24.4183 24.9769 24.3058 25.1703 23.9683C25.3636 23.6308 25.2511 23.2019 24.9136 23.0086Z" fill="white"/>
</svg>
