<svg width="34" height="36" viewBox="0 0 34 36" fill="none" xmlns="http://www.w3.org/2000/svg">
<path fill-rule="evenodd" clip-rule="evenodd" d="M17.0741 0.92304C26.0264 0.92304 33.2837 8.67182 33.2837 18.2307C33.2837 27.7895 26.0264 35.5383 17.0741 35.5383C8.12175 35.5383 0.864445 27.7895 0.864445 18.2307C0.864445 8.67182 8.12175 0.92304 17.0741 0.92304Z" fill="#304D63"/>
<g clip-path="url(#clip0)">
<path d="M27.3685 9.39332C26.9371 9.30075 26.5127 9.57559 26.4203 10.0068L25.84 12.715C23.9923 9.56287 20.6009 7.58487 16.8839 7.58487C11.1596 7.58487 6.50262 12.2418 6.50262 17.9662C6.50262 18.4072 6.86012 18.7647 7.30119 18.7647C7.74218 18.7647 8.09975 18.4072 8.09975 17.9662C8.09975 13.1225 12.0403 9.18199 16.8839 9.18199C20.0417 9.18199 22.922 10.8687 24.4814 13.5545L21.8191 12.9839C21.3877 12.8915 20.9633 13.1662 20.871 13.5975C20.7786 14.0287 21.0533 14.4533 21.4845 14.5456L26.0546 15.525C26.1322 15.5417 26.211 15.5465 26.2888 15.5399C26.4183 15.529 26.5445 15.4865 26.6557 15.4146C26.8335 15.2995 26.9584 15.1186 27.0028 14.9115L27.9822 10.3414C28.0744 9.91028 27.7997 9.48583 27.3685 9.39332Z" fill="white"/>
<path d="M26.5649 16.9195C26.1242 16.934 25.7786 17.3031 25.7931 17.7439C25.8706 20.089 25.0302 22.3237 23.4267 24.0368C21.8233 25.7497 19.6488 26.7358 17.3037 26.8132C17.206 26.8164 17.1088 26.818 17.0114 26.818C13.9516 26.8179 11.1329 25.2287 9.54098 22.654L12.3166 23.3983C12.7426 23.5124 13.1805 23.2598 13.2947 22.8337C13.4089 22.4077 13.1562 21.9699 12.7302 21.8555L8.21588 20.6451C8.01132 20.5904 7.79329 20.619 7.60994 20.7248C7.42646 20.8306 7.29262 21.0051 7.23774 21.2096L6.02745 25.7241C5.91322 26.1501 6.16595 26.588 6.59193 26.7022C6.66125 26.7208 6.73075 26.7298 6.79924 26.7298C7.15175 26.7298 7.47444 26.4944 7.57007 26.1378L8.25038 23.6005C10.1429 26.5805 13.4371 28.4152 17.011 28.4151C17.1258 28.4151 17.2413 28.4133 17.3565 28.4094C20.1279 28.3178 22.6978 27.1526 24.5928 25.1282C26.4878 23.1038 27.481 20.4626 27.3894 17.6912C27.3749 17.2505 27.0056 16.9038 26.5649 16.9195Z" fill="white"/>
</g>
<defs>
<clipPath id="clip0">
<rect width="22" height="22" fill="white" transform="translate(6 7)"/>
</clipPath>
</defs>
</svg>
