<svg width="34" height="35" viewBox="0 0 34 35" fill="none" xmlns="http://www.w3.org/2000/svg">
<path fill-rule="evenodd" clip-rule="evenodd" d="M17.0741 0C26.0264 0 33.2837 7.74878 33.2837 17.3076C33.2837 26.8664 26.0264 34.6153 17.0741 34.6153C8.12175 34.6153 0.864441 26.8664 0.864441 17.3076C0.864441 7.74878 8.12175 0 17.0741 0Z" fill="#FF5417"/>
<path d="M25.1589 10.7656H23.4927C23.7266 10.3885 23.862 9.94422 23.862 9.46875C23.862 8.10746 22.7545 7 21.3932 7C19.3727 7 17.7807 8.98536 17 10.1913C16.2194 8.98536 14.6273 7 12.6068 7C11.2455 7 10.138 8.1075 10.138 9.46875C10.138 9.94422 10.2734 10.3884 10.5073 10.7656H8.84118C7.8391 10.7656 7 11.5761 7 12.6068V13.2344C7 14.3438 7.85641 14.8438 8.25524 14.9782V25.1589C8.25524 26.1741 9.08118 27 10.0964 27H23.9037C24.9189 27 25.7448 26.1741 25.7448 25.1589V14.9803C26.1529 14.8439 27 14.3337 27 13.2344V12.6068C27 11.5899 26.1777 10.7656 25.1589 10.7656V10.7656ZM21.3933 8.17188C23.1142 8.24332 23.1129 10.6948 21.3933 10.7656H18.022C18.7576 9.6502 20.0385 8.17188 21.3933 8.17188ZM12.6068 8.17188C13.9615 8.17188 15.2424 9.6502 15.978 10.7656H12.6068C10.8859 10.6942 10.8872 8.24266 12.6068 8.17188ZM24.5729 25.1589C24.5729 25.5279 24.2727 25.8282 23.9037 25.8282H10.0964C9.72735 25.8282 9.42711 25.5279 9.42711 25.1589V15.0755H24.5729V25.1589ZM25.8282 13.2344C25.8282 13.6027 25.5307 13.9036 25.1589 13.9036H8.84118C8.47793 13.9036 8.17188 13.6095 8.17188 13.2344V12.6068C8.17188 12.2324 8.47707 11.9375 8.84118 11.9375H25.1589C25.5287 11.9375 25.8282 12.2365 25.8282 12.6068V13.2344Z" fill="white"/>
<path d="M17.0001 24.1758C17.7999 24.1758 21.3516 21.6249 21.3516 18.8828C21.3516 17.5215 20.2441 16.4141 18.8829 16.4141C18.0114 16.4141 17.3993 16.8156 17.0001 17.2872C16.6008 16.8156 15.9887 16.4141 15.1173 16.4141C13.756 16.4141 12.6485 17.5216 12.6485 18.8828C12.6485 21.6284 16.2021 24.1758 17.0001 24.1758ZM15.1173 17.5859C16.0479 17.5859 16.3704 18.4311 16.4321 18.6506C16.5802 19.2479 17.4201 19.2475 17.568 18.6506C17.6302 18.4293 17.9533 17.5859 18.8829 17.5859C19.598 17.5859 20.1798 18.1677 20.1798 18.8828C20.1798 20.6746 17.8085 22.6208 17.0001 22.9837C16.192 22.6209 13.8204 20.676 13.8204 18.8828C13.8204 18.1677 14.4021 17.5859 15.1173 17.5859V17.5859Z" fill="white"/>
</svg>
