<svg width="34" height="35" viewBox="0 0 34 35" fill="none" xmlns="http://www.w3.org/2000/svg">
<path fill-rule="evenodd" clip-rule="evenodd" d="M17.0741 0C26.0264 0 33.2837 7.74878 33.2837 17.3076C33.2837 26.8664 26.0264 34.6153 17.0741 34.6153C8.12175 34.6153 0.864441 26.8664 0.864441 17.3076C0.864441 7.74878 8.12175 0 17.0741 0Z" fill="#41B5C2"/>
<path d="M20.995 7.43644V6H13.6648V7.43644H9.75702V28H24.9029V7.43644H20.995ZM14.9556 7.29079H19.7042V8.87283H14.9556V7.29079ZM23.6121 26.7092H11.0478V8.72723H13.6648V10.1636H20.995V8.72723H23.6121V26.7092H23.6121Z" fill="white"/>
<path d="M13.9797 15.3715L13.4024 14.6493L12.3942 15.4553L13.9681 17.424L16.4096 14.44L15.4106 13.6226L13.9797 15.3715Z" fill="white"/>
<path d="M15.296 19.2939L14.3752 20.2147L13.4543 19.2939L12.5416 20.2066L13.4624 21.1274L12.5416 22.0482L13.4543 22.9609L14.3752 22.0401L15.296 22.9609L16.2087 22.0482L15.2879 21.1274L16.2087 20.2066L15.296 19.2939Z" fill="white"/>
<path d="M17.7172 15.1213H22.192V16.4121H17.7172V15.1213Z" fill="white"/>
<path d="M17.7172 20.482H22.192V21.7728H17.7172V20.482Z" fill="white"/>
</svg>
