<svg width="34" height="36" viewBox="0 0 34 36" fill="none" xmlns="http://www.w3.org/2000/svg">
<path fill-rule="evenodd" clip-rule="evenodd" d="M17.0741 0.92304C26.0264 0.92304 33.2837 8.67182 33.2837 18.2307C33.2837 27.7895 26.0264 35.5383 17.0741 35.5383C8.12175 35.5383 0.864445 27.7895 0.864445 18.2307C0.864445 8.67182 8.12175 0.92304 17.0741 0.92304Z" fill="#27AE60"/>
<path d="M25.0048 17.514L20.6978 15.021C20.3708 14.786 19.9717 14.644 19.5387 14.644C18.9157 14.644 18.3657 14.936 18.0007 15.384V12.828L18.5857 13.413C18.9478 13.775 19.4478 13.999 19.9998 13.999C21.1047 13.999 21.9998 13.104 21.9998 11.999C21.9998 10.894 21.1047 9.999 19.9998 9.999H18.0007V9C18.0007 7.9 17.1007 7 16.0007 7C14.9007 7 14.0007 7.9 14.0007 9V9.999H11.9997C10.8947 9.999 9.99975 10.894 9.99975 11.999C9.99975 13.104 10.8947 13.999 11.9997 13.999C12.5517 13.999 13.0517 13.775 13.4137 13.413L14.0007 12.826V20.499L13.2937 19.791C12.5138 19.011 11.4918 18.621 10.4688 18.621C9.72975 18.621 8.99075 18.827 8.34275 19.235C8.29675 19.262 8.25375 19.297 8.21375 19.337C7.92875 19.621 7.92875 20.082 8.21375 20.366L14.9478 27.101C14.9488 27.102 14.9508 27.104 14.9528 27.106L15.0638 27.217L15.0647 27.208C16.2257 28.316 17.7947 29 19.5267 29C23.1027 29 26.0008 26.102 26.0008 22.526V19.237C26.0008 18.501 25.5998 17.86 25.0048 17.514ZM18.0007 10.999H19.9998C20.5507 10.999 20.9998 11.448 20.9998 11.999C20.9998 12.55 20.5507 12.999 19.9998 12.999C19.7327 12.999 19.4817 12.895 19.2927 12.706L18.0007 11.414V10.999ZM15.0007 9C15.0007 8.449 15.4497 8 16.0007 8C16.5517 8 17.0007 8.449 17.0007 9V9.999H15.0007V9ZM12.7067 12.706C12.5177 12.895 12.2667 12.999 11.9997 12.999C11.4487 12.999 10.9997 12.55 10.9997 11.999C10.9997 11.448 11.4487 10.999 11.9997 10.999H14.0007V11.412L12.7067 12.706ZM19.5267 27.999C18.1198 27.999 16.7797 27.461 15.7548 26.484L9.17475 19.914C9.57675 19.722 10.0178 19.622 10.4688 19.622C11.2687 19.622 12.0208 19.933 12.5868 20.499L13.8937 21.806C14.0157 21.928 14.1977 21.967 14.3587 21.906C14.7337 21.764 15.0007 21.406 15.0007 20.981V11.826L15.9998 10.827L17.0007 11.828V16.787C17.0007 16.998 17.1337 17.187 17.3327 17.258C17.5317 17.329 17.7537 17.267 17.8877 17.103L18.7758 16.015C18.8898 15.876 19.1398 15.643 19.5398 15.643C19.7978 15.643 19.9957 15.747 20.1157 15.833L24.4998 18.382C24.8137 18.565 25.0008 18.884 25.0008 19.236V22.525C25.0008 25.544 22.5457 27.999 19.5267 27.999Z" fill="white"/>
</svg>
