<svg width="34" height="36" viewBox="0 0 34 36" fill="none" xmlns="http://www.w3.org/2000/svg">
<path fill-rule="evenodd" clip-rule="evenodd" d="M17.0741 0.92304C26.0264 0.92304 33.2837 8.67182 33.2837 18.2307C33.2837 27.7895 26.0264 35.5383 17.0741 35.5383C8.12175 35.5383 0.864445 27.7895 0.864445 18.2307C0.864445 8.67182 8.12175 0.92304 17.0741 0.92304Z" fill="#EB5757"/>
<path d="M27.7166 21.9215L18.6925 6.95584C18.337 6.36627 17.6885 6 17 6C16.3115 6 15.663 6.36627 15.3074 6.95588L6.2834 21.9215C5.91597 22.5309 5.9051 23.2944 6.255 23.914C6.60498 24.5336 7.26437 24.9185 7.97594 24.9185H26.024C26.7356 24.9185 27.395 24.5336 27.745 23.9139C28.0949 23.2943 28.084 22.5308 27.7166 21.9215ZM26.4978 23.2096C26.4015 23.3802 26.2199 23.4862 26.024 23.4862H7.97594C7.78004 23.4862 7.5985 23.3802 7.50221 23.2097C7.40587 23.0391 7.40888 22.8289 7.50998 22.6612L16.5341 7.6955C16.6319 7.53321 16.8105 7.43236 17 7.43236C17.1895 7.43236 17.368 7.53321 17.4659 7.6955L26.4899 22.6612C26.5911 22.8289 26.5941 23.0391 26.4978 23.2096Z" fill="white"/>
<path d="M17.0067 11.8931C16.4618 11.8931 16.0366 12.1854 16.0366 12.7037C16.0366 14.2851 16.2226 16.5574 16.2226 18.1388C16.2227 18.5507 16.5815 18.7235 17.0067 18.7235C17.3256 18.7235 17.7775 18.5507 17.7775 18.1388C17.7775 16.5575 17.9635 14.2851 17.9635 12.7037C17.9635 12.1855 17.525 11.8931 17.0067 11.8931Z" fill="white"/>
<path d="M17.02 19.6404C16.4353 19.6404 15.9968 20.1054 15.9968 20.6636C15.9968 21.2085 16.4353 21.6869 17.02 21.6869C17.5649 21.6869 18.03 21.2085 18.03 20.6636C18.03 20.1054 17.5648 19.6404 17.02 19.6404Z" fill="white"/>
</svg>
