<svg width="24" height="22" viewBox="0 0 24 22" fill="none" xmlns="http://www.w3.org/2000/svg">
<path d="M6.97378 0C4.49043 0 2.72146 1.1226 1.59885 2.68744C0.476241 4.25229 0 6.25939 0 8.09638C0 11.09 1.3097 13.7775 3.43585 16.0737C5.56201 18.37 8.53861 20.292 11.8894 21.7548C11.9575 21.7888 12.0425 21.7888 12.1106 21.7548C17.6045 19.3565 22.0609 15.7675 23.5067 11.2431C23.5578 11.09 23.4727 10.9369 23.3196 10.9029C23.3026 10.9029 23.2686 10.8859 23.2516 10.8859H16.652L15.0532 7.14387C14.9851 7.0078 14.815 6.93975 14.6789 7.00779C14.6109 7.04181 14.5599 7.09284 14.5429 7.16088L12.0425 14.4068L9.7803 6.32742C9.74628 6.17434 9.57619 6.0893 9.44012 6.14032C9.35507 6.15733 9.28702 6.22537 9.253 6.31042L7.63712 10.8689H1.03756C0.765411 9.96741 0.578297 9.0489 0.578297 8.07938C0.578297 6.34444 1.05456 4.4394 2.07512 2.99362C3.11268 1.54783 4.67753 0.544287 6.99078 0.544287C8.81077 0.544287 10.6478 1.3097 11.7874 2.94258C11.8724 3.06165 12.0595 3.09567 12.1786 3.01062C12.1956 2.99361 12.2296 2.9766 12.2466 2.94258C13.3863 1.32671 15.2402 0.544287 17.0432 0.544287C19.3565 0.544287 20.9383 1.54783 21.9589 2.99362C22.9965 4.4394 23.4557 6.34444 23.4557 8.07938C23.4557 8.53863 23.4217 8.98087 23.3536 9.44012C23.3196 9.5932 23.4047 9.74628 23.5578 9.7803C23.7108 9.81432 23.8639 9.72926 23.8979 9.57618C23.8979 9.55917 23.8979 9.54217 23.8979 9.52516C23.966 9.0489 24 8.57264 24 8.09638C24 6.25939 23.5067 4.25229 22.4011 2.68744C21.2785 1.1226 19.5096 0 17.0262 0C15.1552 0 13.2672 0.782424 11.9915 2.38129C10.7498 0.782424 8.84479 0 6.97378 0ZM22.8434 11.4472C21.3466 15.5294 17.2133 18.8972 12.0085 21.1935C8.74273 19.7477 5.88518 17.8937 3.84408 15.6995C2.63642 14.4068 1.76895 12.961 1.20765 11.4472H7.80721C7.92628 11.4472 8.02833 11.3621 8.06235 11.2601L9.44012 7.34797L11.7193 15.4444C11.7534 15.5974 11.9234 15.6825 12.0595 15.6315C12.1446 15.6145 12.2126 15.5464 12.2466 15.4614L14.798 8.02834L16.1928 11.2771C16.2268 11.3792 16.3288 11.4472 16.4479 11.4472" fill="white"/>
<path d="M22.8432 11.4577C21.3464 15.54 17.2132 18.9078 12.0084 21.204C8.7426 19.7582 5.88505 17.9042 3.84395 15.7101C2.63629 14.4174 1.76882 12.9716 1.20752 11.4577H7.80708C7.92615 11.4577 8.0282 11.3727 8.06222 11.2706L9.43998 7.35852L11.7192 15.4549C11.7532 15.608 11.9233 15.693 12.0594 15.642C12.1444 15.625 12.2125 15.557 12.2465 15.4719L14.7979 8.03889L16.1926 11.2877C16.2267 11.3897 16.3287 11.4577 16.4478 11.4577" fill="#41B5C2"/>
</svg>
