<svg width="24" height="22" viewBox="0 0 24 22" fill="none" xmlns="http://www.w3.org/2000/svg">
<g clip-path="url(#clip0)">
<path d="M12.2016 2.04164C13.3164 1.27983 14.5242 0.792273 15.8558 0.609439C20.3771 -7.60322e-06 23.5358 3.01675 23.9383 6.64296C24.1861 8.77602 23.5358 10.6653 22.0493 12.2803C21.9874 12.3413 21.9254 12.4327 21.9254 12.5241C21.6777 13.7735 21.1203 14.261 19.8506 14.4134C19.8196 14.4134 19.8196 14.4439 19.7887 14.4439C19.6958 15.7542 18.8287 16.516 17.6209 16.5465C17.6209 17.1864 17.4042 17.7654 16.8467 18.192C16.3203 18.6186 15.7009 18.7405 15.0196 18.5881C14.9267 19.3499 14.4312 19.807 13.9358 20.2641C13.6261 20.5383 13.3474 20.8431 13.0377 21.1478C12.3874 21.7877 11.6442 21.9705 10.808 21.6658C9.97189 21.3611 9.53835 20.7212 9.50738 19.807C9.50738 19.7765 9.50738 19.7461 9.47641 19.6851C8.88802 19.7156 8.36157 19.5023 7.92802 19.1061C7.49448 18.71 7.30867 18.192 7.30867 17.5825C6.72028 17.5521 6.19383 17.3997 5.76028 16.9731C5.32673 16.5769 5.17189 16.0589 5.14093 15.4799C5.04802 15.4799 4.95512 15.4495 4.86222 15.4495C3.68544 15.2971 2.97318 14.4743 3.00415 13.3164C3.00415 13.1945 2.94222 13.0421 2.84931 12.9812C1.6106 11.8537 0.681572 10.5434 0.278991 8.92838C-0.309396 6.58201 -0.030686 4.38801 1.54867 2.49872C4.14996 -0.639926 8.98093 -0.853233 12.0467 1.95022C12.1396 1.98069 12.1706 2.01117 12.2016 2.04164ZM12.9138 16.3332C12.9758 16.3332 13.0067 16.3636 13.0377 16.3636C13.719 16.3941 14.2454 16.6684 14.648 17.1559C14.7719 17.3083 14.9267 17.4302 15.1125 17.5216C15.5771 17.7958 16.1654 17.613 16.4442 17.1559C16.6919 16.7293 16.63 16.2722 16.1964 15.8456C14.8029 14.4743 13.4403 13.1336 12.0467 11.7623C11.9848 11.7014 11.8919 11.6099 11.83 11.549C11.6442 11.3357 11.6751 11.0614 11.8609 10.8786C12.0467 10.6958 12.3254 10.6653 12.5422 10.8481C12.6351 10.9091 12.6971 11.0005 12.759 11.0614C14.1525 12.4327 15.5461 13.804 16.9396 15.1752C17.2183 15.4495 17.528 15.6018 17.9306 15.5104C18.3332 15.419 18.5809 15.1752 18.6738 14.7791C18.7977 14.3829 18.6429 14.0782 18.3642 13.804C16.9087 12.4022 15.4842 10.97 14.0287 9.5683C13.7809 9.32452 13.75 9.0198 13.9667 8.80649C14.1835 8.59319 14.4932 8.62366 14.7409 8.86744C15.5771 9.69019 16.4132 10.4825 17.2493 11.3052C17.8687 11.9147 18.488 12.5241 19.1074 13.1336C19.6338 13.6211 20.3771 13.5297 20.7177 12.9507C20.9654 12.5546 20.8725 12.0975 20.5009 11.7014C18.519 9.65972 16.5061 7.67902 14.4932 5.69832C14.4622 5.66784 14.4003 5.6069 14.3074 5.54596C14.2454 5.6069 14.2145 5.66784 14.1525 5.72879C13.4093 6.46012 12.6971 7.19146 11.9229 7.89232C10.3435 9.32452 7.92802 9.08074 6.56544 7.40477C8.17577 5.85068 9.78609 4.26612 11.3964 2.71203C8.79512 0.121882 4.18093 0.48755 2.10609 3.47384C0.805443 5.33265 0.774475 7.34382 1.54867 9.38547C1.95125 10.452 2.63254 11.3662 3.5306 12.128C4.05706 11.6099 4.58351 11.0919 5.10996 10.5739C5.66738 10.0254 6.3177 9.87302 7.06093 10.0863C7.80415 10.2996 8.29964 10.7872 8.48544 11.5185C8.54738 11.7014 8.54738 11.9147 8.57835 12.0975C9.16673 12.0975 9.69318 12.2803 10.0958 12.707C10.5293 13.1336 10.6842 13.6516 10.7151 14.2001C12.2016 14.261 12.9448 15.2666 12.9138 16.3332ZM21.6158 11.2443C21.6158 11.2443 21.6467 11.1833 21.6777 11.1833C21.7396 11.0919 21.8016 11.031 21.8635 10.9396C22.7616 9.62925 23.1642 8.19705 22.9164 6.61249C22.6067 4.66226 21.6158 3.13864 19.8196 2.22447C17.528 1.03605 14.4003 1.43219 12.4183 3.23006C10.9319 4.57084 9.56931 6.00304 8.11383 7.40477C8.11383 7.40477 8.11383 7.43524 8.11383 7.46571C9.04286 8.1361 10.4364 7.98374 11.3345 7.13052C12.1706 6.33824 12.9758 5.51548 13.8119 4.69273C14.2454 4.26612 14.4622 4.26612 14.8958 4.69273C15.9177 5.69832 16.9706 6.73438 17.9925 7.73996C19.1693 8.86744 20.3771 10.0559 21.6158 11.2443ZM8.60931 13.1031C8.48544 13.164 8.26867 13.1945 8.11383 13.3164C7.52544 13.8344 6.96802 14.3829 6.44157 14.9619C6.10093 15.358 6.16286 15.9065 6.56544 16.2722C6.93706 16.6379 7.52544 16.6379 7.89706 16.3027C8.42351 15.8151 8.94996 15.2971 9.44544 14.7791C9.75512 14.4743 9.81706 14.1087 9.63125 13.7125C9.44544 13.3469 9.13577 13.164 8.60931 13.1031ZM11.9538 16.2722C11.9229 16.2722 11.8919 16.2417 11.8919 16.2417C11.8919 15.8151 11.6751 15.5104 11.2725 15.358C10.87 15.1752 10.4983 15.2362 10.1887 15.5409C9.69319 15.998 9.1977 16.4855 8.73319 16.9731C8.29964 17.3997 8.29964 17.9787 8.67125 18.3748C9.1048 18.8014 9.69319 18.8014 10.1267 18.3748C10.6222 17.9177 11.0867 17.4606 11.5512 16.9731C11.7061 16.7598 11.799 16.4855 11.9538 16.2722ZM10.4674 19.7461C10.5293 20.1727 10.7771 20.5383 11.1487 20.6907C11.5512 20.8431 11.9229 20.7821 12.2325 20.4774C12.728 19.9898 13.2545 19.5023 13.75 18.9842C14.1525 18.5881 14.1216 18.0091 13.75 17.6435C13.3474 17.2473 12.759 17.2169 12.3564 17.613C11.83 18.1006 11.3345 18.5881 10.839 19.1061C10.6842 19.289 10.5912 19.5328 10.4674 19.7461ZM4.02609 13.4078C4.08802 13.8649 4.3048 14.1696 4.67641 14.3525C5.07899 14.5353 5.4506 14.4743 5.76028 14.1696C6.28673 13.6821 6.78222 13.164 7.2777 12.6765C7.68028 12.2803 7.64931 11.7014 7.2777 11.3357C6.87512 10.9396 6.28673 10.9091 5.88415 11.3052C5.38867 11.7928 4.86222 12.2803 4.3977 12.7984C4.21189 12.9507 4.11899 13.1945 4.02609 13.4078Z" fill="white"/>
<path d="M12.9135 16.3332C12.9755 16.3332 13.0064 16.3636 13.0374 16.3636C13.7187 16.3941 14.2451 16.6683 14.6477 17.1559C14.7716 17.3083 14.9264 17.4302 15.1122 17.5216C15.5768 17.7958 16.1651 17.613 16.4439 17.1559C16.6916 16.7293 16.6297 16.2722 16.1961 15.8456C14.8026 14.4743 13.44 13.1336 12.0464 11.7623C11.9845 11.7014 11.8916 11.6099 11.8297 11.549C11.6439 11.3357 11.6748 11.0614 11.8606 10.8786C12.0464 10.6958 12.3251 10.6653 12.5419 10.8481C12.6348 10.9091 12.6968 11.0005 12.7587 11.0614C14.1522 12.4327 15.5458 13.804 16.9393 15.1752C17.218 15.4495 17.5277 15.6018 17.9303 15.5104C18.3329 15.419 18.5806 15.1752 18.6735 14.7791C18.7974 14.3829 18.6426 14.0782 18.3639 13.804C16.9084 12.4022 15.4839 10.97 14.0284 9.5683C13.7806 9.32452 13.7497 9.0198 13.9664 8.80649C14.1832 8.59318 14.4929 8.62366 14.7406 8.86743C15.5768 9.69019 16.4129 10.4825 17.249 11.3052C17.8684 11.9147 18.4877 12.5241 19.1071 13.1336C19.6335 13.6211 20.3768 13.5297 20.7174 12.9507C20.9651 12.5546 20.8722 12.0975 20.5006 11.7014C18.5187 9.65972 16.5058 7.67901 14.4929 5.69831C14.4619 5.66784 14.4 5.6069 14.3071 5.54595C14.2451 5.6069 14.2142 5.66784 14.1522 5.72879C13.409 6.46012 12.6968 7.19146 11.9226 7.89232C10.3432 9.32452 7.92773 9.08074 6.56514 7.40476C8.17547 5.85067 9.78579 4.26611 11.3961 2.71203C8.79482 0.121878 4.18063 0.487546 2.10579 3.47383C0.805145 5.33264 0.774177 7.34382 1.54837 9.38546C1.95095 10.452 2.63224 11.3662 3.53031 12.128C4.05676 11.6099 4.58321 11.0919 5.10966 10.5739C5.66708 10.0254 6.3174 9.87302 7.06063 10.0863C7.80385 10.2996 8.29934 10.7872 8.48514 11.5185C8.54708 11.7014 8.54708 11.9147 8.57805 12.0975C9.16644 12.0975 9.69289 12.2803 10.0955 12.7069C10.529 13.1336 10.6839 13.6516 10.7148 14.2001C12.2013 14.261 12.9445 15.2666 12.9135 16.3332Z" fill="#FFD2BF"/>
</g>
<defs>
<clipPath id="clip0">
<rect width="24" height="21.8182" fill="white"/>
</clipPath>
</defs>
</svg>
