<svg width="24" height="22" viewBox="0 0 24 22" fill="none" xmlns="http://www.w3.org/2000/svg">
<g clip-path="url(#clip0)">
<path d="M12.2008 2.04069C13.3157 1.27888 14.5234 0.791327 15.855 0.608493C20.3763 -0.000953649 23.535 3.01581 23.9376 6.64201C24.1854 8.77507 23.535 10.6644 22.0486 12.2794C21.9866 12.3403 21.9247 12.4318 21.9247 12.5232C21.677 13.7725 21.1195 14.2601 19.8499 14.4125C19.8189 14.4125 19.8189 14.4429 19.7879 14.4429C19.695 15.7532 18.8279 16.515 17.6202 16.5455C17.6202 17.1854 17.4034 17.7644 16.846 18.191C16.3195 18.6176 15.7002 18.7395 15.0189 18.5872C14.926 19.349 14.4305 19.8061 13.935 20.2631C13.6254 20.5374 13.3466 20.8421 13.037 21.1468C12.3866 21.7868 11.6434 21.9696 10.8073 21.6649C9.97116 21.3601 9.53761 20.7202 9.50665 19.8061C9.50665 19.7756 9.50665 19.7451 9.47568 19.6842C8.88729 19.7146 8.36084 19.5013 7.92729 19.1052C7.49374 18.7091 7.30794 18.191 7.30794 17.5816C6.71955 17.5511 6.1931 17.3987 5.75955 16.9721C5.326 16.576 5.17116 16.058 5.14019 15.479C5.04729 15.479 4.95439 15.4485 4.86148 15.4485C3.68471 15.2962 2.97245 14.4734 3.00342 13.3155C3.00342 13.1936 2.94148 13.0412 2.84858 12.9803C1.60987 11.8528 0.68084 10.5425 0.278259 8.92744C-0.310128 6.58107 -0.0314184 4.38706 1.54794 2.49778C4.14923 -0.640872 8.98019 -0.854179 12.046 1.94927C12.1389 1.97975 12.1699 2.01022 12.2008 2.04069ZM12.9131 16.3322C12.975 16.3322 13.006 16.3627 13.037 16.3627C13.7183 16.3932 14.2447 16.6674 14.6473 17.155C14.7712 17.3073 14.926 17.4292 15.1118 17.5206C15.5763 17.7949 16.1647 17.612 16.4434 17.155C16.6912 16.7283 16.6292 16.2713 16.1957 15.8447C14.8021 14.4734 13.4395 13.1326 12.046 11.7614C11.9841 11.7004 11.8912 11.609 11.8292 11.5481C11.6434 11.3347 11.6744 11.0605 11.8602 10.8777C12.046 10.6948 12.3247 10.6644 12.5415 10.8472C12.6344 10.9081 12.6963 10.9996 12.7583 11.0605C14.1518 12.4318 15.5454 13.803 16.9389 15.1743C17.2176 15.4485 17.5273 15.6009 17.9299 15.5095C18.3325 15.418 18.5802 15.1743 18.6731 14.7781C18.797 14.382 18.6421 14.0773 18.3634 13.803C16.9079 12.4013 15.4834 10.9691 14.0279 9.56735C13.7802 9.32358 13.7492 9.01885 13.966 8.80555C14.1828 8.59224 14.4925 8.62271 14.7402 8.86649C15.5763 9.68924 16.4125 10.4815 17.2486 11.3043C17.8679 11.9137 18.4873 12.5232 19.1066 13.1326C19.6331 13.6202 20.3763 13.5288 20.717 12.9498C20.9647 12.5536 20.8718 12.0966 20.5002 11.7004C18.5183 9.65877 16.5054 7.67807 14.4925 5.69737C14.4615 5.6669 14.3995 5.60595 14.3066 5.54501C14.2447 5.60595 14.2137 5.6669 14.1518 5.72784C13.4086 6.45918 12.6963 7.19051 11.9221 7.89138C10.3428 9.32358 7.92729 9.0798 6.56471 7.40382C8.17503 5.84973 9.78536 4.26517 11.3957 2.71108C8.79439 0.120936 4.18019 0.486603 2.10536 3.47289C0.804711 5.3317 0.773743 7.34288 1.54794 9.38452C1.95052 10.4511 2.63181 11.3652 3.52987 12.127C4.05632 11.609 4.58277 11.091 5.10923 10.5729C5.66665 10.0244 6.31697 9.87208 7.06019 10.0854C7.80342 10.2987 8.2989 10.7862 8.48471 11.5176C8.54665 11.7004 8.54665 11.9137 8.57761 12.0966C9.166 12.0966 9.69245 12.2794 10.095 12.706C10.5286 13.1326 10.6834 13.6506 10.7144 14.1991C12.2008 14.2601 12.9441 15.2657 12.9131 16.3322ZM21.615 11.2433C21.615 11.2433 21.646 11.1824 21.677 11.1824C21.7389 11.091 21.8008 11.03 21.8628 10.9386C22.7608 9.6283 23.1634 8.1961 22.9157 6.61154C22.606 4.66131 21.615 3.1377 19.8189 2.22353C17.5273 1.03511 14.3995 1.43125 12.4176 3.22911C10.9312 4.56989 9.56858 6.00209 8.1131 7.40382C8.1131 7.40382 8.1131 7.43429 8.1131 7.46476C9.04213 8.13516 10.4357 7.98279 11.3337 7.12957C12.1699 6.33729 12.975 5.51454 13.8112 4.69178C14.2447 4.26517 14.4615 4.26517 14.895 4.69178C15.917 5.69737 16.9699 6.73343 17.9918 7.73902C19.1686 8.86649 20.3763 10.0549 21.615 11.2433ZM8.60858 13.1021C8.48471 13.1631 8.26794 13.1936 8.1131 13.3155C7.52471 13.8335 6.96729 14.382 6.44084 14.961C6.10019 15.3571 6.16213 15.9056 6.56471 16.2713C6.93632 16.6369 7.52471 16.6369 7.89632 16.3017C8.42278 15.8142 8.94923 15.2962 9.44471 14.7781C9.75439 14.4734 9.81632 14.1077 9.63052 13.7116C9.44471 13.3459 9.13503 13.1631 8.60858 13.1021ZM11.9531 16.2713C11.9221 16.2713 11.8912 16.2408 11.8912 16.2408C11.8912 15.8142 11.6744 15.5095 11.2718 15.3571C10.8692 15.1743 10.4976 15.2352 10.1879 15.5399C9.69245 15.997 9.19697 16.4846 8.73245 16.9721C8.2989 17.3987 8.2989 17.9777 8.67052 18.3739C9.10407 18.8005 9.69245 18.8005 10.126 18.3739C10.6215 17.9168 11.086 17.4597 11.5505 16.9721C11.7054 16.7588 11.7983 16.4846 11.9531 16.2713ZM10.4666 19.7451C10.5286 20.1717 10.7763 20.5374 11.1479 20.6898C11.5505 20.8421 11.9221 20.7812 12.2318 20.4764C12.7273 19.9889 13.2537 19.5013 13.7492 18.9833C14.1518 18.5872 14.1208 18.0082 13.7492 17.6425C13.3466 17.2464 12.7583 17.2159 12.3557 17.612C11.8292 18.0996 11.3337 18.5872 10.8383 19.1052C10.6834 19.288 10.5905 19.5318 10.4666 19.7451ZM4.02536 13.4069C4.08729 13.864 4.30407 14.1687 4.67568 14.3515C5.07826 14.5343 5.44987 14.4734 5.75955 14.1687C6.286 13.6811 6.78148 13.1631 7.27697 12.6755C7.67955 12.2794 7.64858 11.7004 7.27697 11.3347C6.87439 10.9386 6.286 10.9081 5.88342 11.3043C5.38794 11.7918 4.86148 12.2794 4.39697 12.7974C4.21116 12.9498 4.11826 13.1936 4.02536 13.4069Z" fill="white" fill-opacity="0.6"/>
</g>
<defs>
<clipPath id="clip0">
<rect width="24" height="21.8182" fill="white"/>
</clipPath>
</defs>
</svg>
