<svg width="24" height="24" viewBox="0 0 24 24" fill="none" xmlns="http://www.w3.org/2000/svg">
<g clip-path="url(#clip0)">
<path d="M9.12019 8.79012C8.07019 9.21012 7.14019 10.4401 7.53019 12.1501C8.19019 15.0001 11.7002 16.4401 11.8502 16.5001C11.8802 16.5001 11.9102 16.5301 11.9702 16.5301C12.0302 16.5301 12.0602 16.5301 12.0902 16.5001C12.2402 16.4401 15.7802 14.9701 16.4102 12.1501C16.8002 10.4401 15.8702 9.21012 14.8202 8.79012C13.8002 8.37012 12.7202 8.70012 11.9702 9.60012C11.2502 8.70012 10.1702 8.37012 9.12019 8.79012ZM12.2402 10.2601C12.9302 9.15012 13.9202 9.06012 14.6102 9.36012C15.4202 9.69012 16.1402 10.6501 15.8402 12.0301C15.3002 14.2801 12.5702 15.6301 11.9702 15.9001C11.3702 15.6301 8.64019 14.2801 8.10019 12.0001C7.80019 10.6501 8.52019 9.66012 9.33019 9.33012C9.54019 9.24012 9.78019 9.18012 10.0202 9.18012C10.5902 9.18012 11.2202 9.45012 11.7002 10.2301C11.8202 10.4401 12.1202 10.4401 12.2402 10.2601Z" fill="white" fill-opacity="0.6"/>
<path d="M19.74 2.46C19.89 3.51 20.79 4.32 21.87 4.32C23.04 4.32 24.03 3.36 24.03 2.16C24 0.96 23.04 0 21.87 0C20.79 0 19.89 0.81 19.74 1.86H16.83C16.71 1.86 16.62 1.92 16.56 2.04L14.73 5.76C13.89 5.4 12.99 5.19 12.03 5.19C11.07 5.19 10.14 5.4 9.33 5.76L7.44 2.01C7.38 1.92 7.29 1.83 7.17 1.83H4.26C4.11 0.81 3.24 0 2.16 0C0.96 0 0 0.96 0 2.16C0 3.33 0.96 4.32 2.16 4.32C3.24 4.32 4.14 3.51 4.29 2.46H7.02L8.76 6C6.72 7.11 5.31 9.24 5.19 11.7H4.29C4.14 10.65 3.24 9.84 2.16 9.84C0.96 9.84 0 10.83 0 12C0 13.17 0.96 14.16 2.16 14.16C3.24 14.16 4.14 13.35 4.29 12.3H5.19C5.31 14.91 6.9 17.16 9.18 18.21L7.05 21.57H4.29C4.14 20.52 3.24 19.71 2.16 19.71C0.99 19.71 0 20.67 0 21.87C0 23.04 0.96 24 2.16 24C3.24 24 4.14 23.19 4.29 22.14H7.2C7.29 22.14 7.41 22.08 7.44 21.99L9.72 18.42C10.44 18.66 11.19 18.81 12 18.81C12.81 18.81 13.56 18.66 14.28 18.42L16.56 21.99C16.62 22.08 16.71 22.14 16.8 22.14H19.71C19.86 23.19 20.76 24 21.84 24C23.01 24 24 23.04 24 21.84C24 20.67 23.04 19.68 21.84 19.68C20.76 19.68 19.86 20.49 19.71 21.54H16.95L14.82 18.18C17.1 17.16 18.72 14.91 18.81 12.3H19.71C19.86 13.35 20.76 14.16 21.84 14.16C23.01 14.16 24 13.2 24 12C24 10.83 23.04 9.84 21.84 9.84C20.76 9.84 19.86 10.65 19.71 11.7H18.81C18.69 9.24 17.28 7.11 15.24 6L17.01 2.46H19.74ZM21.87 0.6C22.71 0.6 23.4 1.29 23.4 2.16C23.4 3.03 22.71 3.72 21.84 3.72C20.97 3.72 20.28 3.03 20.28 2.16C20.28 1.29 21 0.6 21.87 0.6ZM2.16 3.69C1.29 3.69 0.6 3 0.6 2.16C0.6 1.32 1.29 0.6 2.16 0.6C3.03 0.6 3.72 1.29 3.72 2.16C3.72 3.03 3 3.69 2.16 3.69ZM2.16 23.4C1.29 23.4 0.6 22.71 0.6 21.84C0.6 20.97 1.29 20.28 2.16 20.28C3.03 20.28 3.72 20.97 3.72 21.84C3.72 22.71 3 23.4 2.16 23.4ZM21.87 20.31C22.71 20.31 23.43 21 23.43 21.87C23.43 22.74 22.71 23.4 21.87 23.4C21.03 23.4 20.31 22.71 20.31 21.84C20.31 20.97 21 20.31 21.87 20.31ZM2.16 13.56C1.29 13.56 0.6 12.84 0.6 12C0.6 11.16 1.29 10.44 2.16 10.44C3.03 10.44 3.72 11.13 3.72 12C3.72 12.87 3 13.56 2.16 13.56ZM21.87 10.44C22.71 10.44 23.43 11.13 23.43 12C23.43 12.87 22.74 13.56 21.87 13.56C21 13.56 20.31 12.87 20.31 12C20.31 11.13 21 10.44 21.87 10.44ZM18.24 12C18.24 15.42 15.45 18.21 12 18.21C8.55 18.21 5.79 15.42 5.79 12C5.79 8.58 8.58 5.79 12 5.79C15.42 5.79 18.24 8.58 18.24 12Z" fill="white" fill-opacity="0.6"/>
</g>
<defs>
<clipPath id="clip0">
<rect width="24" height="24" fill="white"/>
</clipPath>
</defs>
</svg>
