<svg xmlns="http://www.w3.org/2000/svg" width="60" height="61" fill="none" viewBox="0 0 60 61">
    <g clip-path="url(#clip0)">
        <g clip-path="url(#clip1)">
            <path fill="#000" fill-opacity=".6" d="M47.184 29.746v-1.559c0-5.07-2.703-9.753-7.094-12.287-4.39-2.533-9.796-2.533-14.186 0-4.39 2.534-7.093 7.218-7.093 12.287v1.56c-2.605.888-4.183 3.529-3.736 6.243.448 2.713 2.793 4.706 5.544 4.712h1.262c.257 0 .507-.103.69-.286.182-.182.285-.43.285-.689v-9.294c0-.259-.103-.506-.286-.689-.182-.183-.432-.285-.689-.285H20.76v-1.272c0-4.373 2.332-8.413 6.119-10.598 3.786-2.185 8.45-2.185 12.237 0 3.786 2.186 6.118 6.225 6.118 10.598v1.272h-1.121c-.537 0-.975.436-.975.974v9.31c.004.363.212.697.537.862-.763 1.363-1.78 2.568-2.992 3.553-.638-1.265-1.942-2.053-3.359-2.028h-1.578c-2.054.002-3.718 1.666-3.724 3.718v1.75c-.003.041-.003.081 0 .121-.003.04-.003.078 0 .118 0 .26.103.507.286.69.183.182.43.285.69.285 2.69-.004 5.322-.77 7.593-2.212 2.271-1.443 4.086-3.5 5.233-5.932 2.66-.213 4.803-2.265 5.133-4.912.329-2.648-1.247-5.16-3.773-6.02v.01zm-26.277 1.662v7.36h-.288c-2.033 0-3.68-1.648-3.68-3.68 0-2.033 1.647-3.68 3.68-3.68h.288zm13.065 15.415v-.975c.002-.977.796-1.769 1.774-1.769h1.579c.776-.045 1.483.446 1.711 1.19-1.553.886-3.282 1.415-5.064 1.554zm11.403-8.07h-.287v-7.345h.287c2.033 0 3.68 1.647 3.68 3.68 0 2.031-1.647 3.68-3.68 3.68v-.015z"/>
        </g>
    </g>
    <defs>
        <clipPath id="clip0">
            <path fill="#fff" d="M0 0H60V60H0z" transform="translate(0 .52)"/>
        </clipPath>
        <clipPath id="clip1">
            <path fill="#fff" d="M0 0H40.5V40.5H0z" transform="translate(13.5 14.02)"/>
        </clipPath>
    </defs>
</svg>
