<svg xmlns="http://www.w3.org/2000/svg" width="80" height="80" fill="none" viewBox="0 0 80 80">
    <path fill="#000" fill-opacity=".6" d="M66.57 60.727H13.43c-2.998-.002-5.428-2.366-5.43-5.283V25.283c.002-2.916 2.432-5.28 5.43-5.283h53.14c2.998.002 5.428 2.367 5.43 5.283v30.161c-.002 2.917-2.433 5.28-5.43 5.283zm-53.14-38.78c-1.893.002-3.428 1.495-3.43 3.337v30.16c.002 1.842 1.537 3.335 3.43 3.338h53.14c1.893-.002 3.428-1.496 3.43-3.337V25.283c-.002-1.84-1.537-3.334-3.43-3.337H13.43z"/>
    <path fill="#000" fill-opacity=".6" d="M52.493 30.222h-14.32c-.465 0-.84-.465-.84-1.039 0-.573.376-1.038.84-1.038h14.32c.464 0 .84.465.84 1.038 0 .574-.376 1.039-.84 1.039zM62.457 30.222h-5.374c-.598 0-1.083-.465-1.083-1.039 0-.573.485-1.038 1.083-1.038h5.374c.598 0 1.083.465 1.083 1.038 0 .574-.485 1.039-1.083 1.039z"/>
    <path fill="#000" fill-opacity=".6" fill-rule="evenodd" d="M51.75 35.612h-5.335c-.038 0-.075-.002-.112-.006-.038.004-.075.006-.114.006h-7.773c-.598 0-1.083-.456-1.083-1.018 0-.563.485-1.018 1.083-1.018h7.773c.038 0 .076.001.113.005.037-.004.075-.006.113-.006h13.108c.599 0 1.083.456 1.083 1.019 0 .562-.484 1.018-1.083 1.018H51.75zM46.415 41.72h16.713c.481 0 .871-.456.871-1.019s-.39-1.018-.871-1.018H46.415c-.038 0-.077.002-.114.005-.037-.003-.074-.005-.112-.005h-7.773c-.598 0-1.083.456-1.083 1.018 0 .563.485 1.018 1.083 1.018h7.773c.039 0 .077-.001.115-.005.037.003.074.005.111.005zM46.415 47.828h18.441c.598 0 1.083-.455 1.083-1.018 0-.562-.485-1.018-1.083-1.018H46.415c-.038 0-.077.002-.114.006-.037-.004-.074-.006-.112-.006h-7.773c-.598 0-1.083.456-1.083 1.019 0 .562.485 1.018 1.083 1.018h7.773c.039 0 .077-.002.115-.006.037.004.074.005.111.005z" clip-rule="evenodd"/>
    <path fill="#000" fill-opacity=".6" d="M50.07 54.66h-7.774c-.598 0-1.083-.465-1.083-1.039 0-.574.485-1.038 1.083-1.038h7.773c.599 0 1.084.464 1.084 1.038 0 .573-.485 1.038-1.084 1.038zM37.464 54.66h-7.773c-.598 0-1.083-.465-1.083-1.039 0-.574.485-1.038 1.083-1.038h7.773c.599 0 1.084.464 1.084 1.038 0 .573-.485 1.038-1.084 1.038zM24.856 54.66h-7.773c-.598 0-1.083-.465-1.083-1.039 0-.574.485-1.038 1.083-1.038h7.773c.599 0 1.084.464 1.084 1.038 0 .573-.485 1.038-1.084 1.038zM62.683 54.66h-7.779c-.598 0-1.083-.465-1.083-1.039 0-.574.485-1.038 1.083-1.038h7.773c.599 0 1.084.464 1.084 1.038 0 .573-.485 1.038-1.084 1.038h.006zM31.193 29.884c-.28-.1-.38-.213-.38-.424 0-.262.21-.412.537-.412.12 0 .24.018.354.054l.131.042c.017.006.023.018.017.03l-.062.166c0 .003-.002.006-.005.008l-.007.006-.01.002-.01-.001-.12-.037c-.094-.03-.194-.045-.293-.046-.164 0-.274.074-.274.188 0 .094.055.152.219.211l.253.094c.265.094.385.202.385.42 0 .282-.217.436-.57.436-.15 0-.298-.025-.438-.074l-.118-.038c-.016-.007-.022-.018-.016-.03l.06-.168c.006-.013.017-.02.03-.013l.126.04c.114.037.235.056.355.055.17 0 .31-.06.31-.208 0-.094-.098-.16-.224-.205l-.25-.096zM33.746 30.567v.01l-.006.008-.009.005-.01.002h-.207c-.003 0-.006 0-.01-.002-.003 0-.006-.003-.008-.005l-.005-.008c-.001-.003-.002-.007-.001-.01v-.705c-.003-.14.004-.28.02-.418 0-.028-.02-.035-.03-.007-.024.06-.05.116-.074.175l-.216.488c-.025.059-.056.143-.082.216-.002.006-.006.01-.011.014-.005.004-.012.005-.018.004h-.19c-.005 0-.011-.001-.016-.005-.005-.003-.009-.008-.01-.013-.025-.073-.057-.157-.082-.216l-.215-.488c-.028-.06-.053-.116-.076-.175-.01-.028-.034-.021-.031.007.016.139.024.279.022.418v.715l-.006.008c-.002.003-.005.005-.009.006h-.229l-.009-.006c-.003-.002-.004-.005-.006-.008l-.001-.01v-1.473l.001-.01c.002-.003.003-.006.006-.008l.009-.006h.328c.006 0 .013.001.018.005.005.003.01.008.011.014.016.055.035.109.057.162l.227.522c.032.078.067.178.088.253.007.023.026.023.032 0 .023-.076.055-.177.085-.253l.23-.52c.023-.054.044-.108.06-.164.001-.006.005-.011.01-.015s.011-.005.018-.005h.317c.003 0 .007 0 .01.002.003 0 .006.003.009.005l.005.008.002.01.002 1.473z"/>
    <path fill="#000" fill-opacity=".4" d="M31.3 34.831c-.237-1.162-.448-2.018-.855-2.882-.285-.604-1.34-2.19-1.71-2.372-.118-.057-.144.118-.022.32.122.201.432.785.254.855-.08.032-.561-1.237-1.524-1.628-.064-.014-.109.152.016.325.49.678.958 1.47.742 1.495-.105.011-.73-1.37-1.626-1.645-.131-.04-.098.268.223.64.501.588.73 1.193.62 1.249-.068.033-.82-1.133-1.388-1.238-.17-.032-.055.334.23.698.783 1.001.917 1.377.87 1.581-.028.13-.456-.257-.602-.328-.552-.27-.686-.102-.572.052.26.363 1.513 1.321 1.922 3.275.121.58.16 1.97-.098 3.05-.239 1-.534 1.435-.875 1.982-.415.634-.97 1.173-1.626 1.578-.834.52-1.817.777-2.812.733-1.118-.04-1.948-.331-2.57-.767.389.421.807.817 1.252 1.185 1.138.938 3.236 2.124 6.043 2.648.38-.269.734-.569 1.059-.897.73-.736 1.342-1.5 1.815-2.424.49-.952 1.045-2.05 1.235-3.533.168-1.33.294-2.504-.001-3.952z"/>
    <path fill="#000" fill-opacity=".3" d="M19.907 41.814c-.566-.514-1.387-1.472-1.762-2.276-.646-1.374-.796-2.825-.555-4.392.285-1.848.695-3.123 1.6-5.303.012-.65-1.195.689-1.274.542-.274-.497 1.587-3.788 1.181-4.185-.121-.119-.391.224-.66.683-.378.643-.703 1.527-.865 1.436-.091-.05-.019-.608.16-1.3.182-.716.468-1.553.209-1.588-.392-.052-.95 2.345-1.323 2.469-.111.035-.012-.77.05-1.4.04-.419.2-.89-.146-.702-.252.135-.8 1.99-.906 1.867-.051-.058-.046-.469-.02-.898.021-.336-.024-.678-.18-.356-.259.53-.364.923-.56 1.48-.749 2.103-1.223 4.286-1.411 6.5-.081.992-.157 1.995-.08 3.022.09 1.058.29 2.104.597 3.123.306 1.046.857 2.048 1.566 3.036.638.85 1.416 1.596 2.305 2.206 1.14.767 1.992 1.065 2.906 1.231.818.144 1.652.179 2.48.104 1.74-.126 3.967-1.478 3.965-1.479-2.803-.524-4.896-1.706-6.037-2.646-.44-.364-.855-.756-1.24-1.174z"/>
</svg>
