<svg xmlns="http://www.w3.org/2000/svg" width="60" height="60" fill="none" viewBox="0 0 60 60">
    <rect width="22.05" height="31.935" x="23.018" y="15" fill="#fff" rx="2" transform="rotate(12.694 23.018 15)"/>
    <rect width="20.8" height="30.685" x="23.49" y="15.747" stroke="#000" stroke-opacity=".6" stroke-width="1.25" rx="1.375" transform="rotate(12.694 23.49 15.747)"/>
    <rect width="22.05" height="31.935" x="19.239" y="17.032" fill="#fff" rx="2"/>
    <rect width="20.8" height="30.685" x="19.864" y="17.657" stroke="#000" stroke-linecap="round" stroke-linejoin="round" stroke-opacity=".6" stroke-width="1.25" rx="1.375"/>
    <path fill="#000" fill-opacity=".6" d="M35.823 36.041h-11.55c-.283 0-.471.189-.471.472s.188.471.47.471h11.504c.282 0 .471-.188.471-.471s-.188-.472-.424-.472zM35.823 38.634h-11.55c-.283 0-.471.189-.471.472s.188.471.47.471h11.504c.282 0 .471-.188.471-.471s-.188-.472-.424-.472zM35.823 41.227h-11.55c-.283 0-.471.189-.471.472 0 .282.188.47.47.47h11.504c.282 0 .471-.188.471-.47 0-.283-.188-.472-.424-.472zM29.677 43.645h-5.645c-.138 0-.23.152-.23.38s.092.38.23.38h5.622c.138 0 .23-.152.23-.38s-.092-.38-.207-.38zM35.448 24.789h-2.352v-2.351c0-.325-.27-.595-.594-.595h-3.838c-.324 0-.594.27-.594.595v2.35h-2.351c-.324 0-.595.271-.595.595v3.838c0 .324.27.594.595.594h2.351v2.351c0 .325.27.595.595.595h3.837c.324 0 .594-.27.594-.595v-2.35h2.352c.324 0 .594-.27.594-.595v-3.838c0-.35-.27-.594-.594-.594zm-.568 3.837H32.53c-.324 0-.595.27-.595.595v2.351H29.26v-2.351c0-.324-.27-.595-.595-.595h-2.35v-2.675h2.35c.325 0 .595-.27.595-.595v-2.35h2.675v2.35c0 .325.27.595.595.595h2.351v2.675z"/>
</svg>
