<svg xmlns="http://www.w3.org/2000/svg" width="80" height="80" fill="none" viewBox="0 0 80 80">
    <path fill="#000" fill-opacity=".6" fill-rule="evenodd" d="M36.703 30.904c-.6 0-1.086.49-1.086 1.093v4.146h-4.313c-.6 0-1.089.49-1.089 1.093v5.713c0 .603.488 1.093 1.09 1.093h4.312v4.146c0 .605.485 1.093 1.086 1.093h5.678c.601 0 1.09-.488 1.09-1.093v-4.146h4.312c.6 0 1.086-.49 1.086-1.093v-5.713c0-.603-.488-1.093-1.086-1.093H43.47v-4.146c0-.603-.488-1.093-1.089-1.093h-5.678zm1.087 2.188h3.503v4.146l.002-.002c0 .605.486 1.095 1.087 1.095h4.312v3.525h-4.313v-.003c-.6 0-1.086.49-1.086 1.096v4.146h-3.503v-4.146c0-.605-.488-1.096-1.089-1.096h-4.312V38.33h4.312v.002c.601 0 1.089-.49 1.089-1.095V33.09l-.002.002zM28.653 51.766c-.291-.005-.573.108-.781.315-.21.204-.326.484-.326.775 0 .292.117.574.326.778.208.205.49.318.781.313h21.588c.292.005.574-.108.782-.313.207-.204.324-.486.324-.778 0-.291-.117-.57-.324-.775-.208-.207-.49-.32-.782-.315H28.653zM28.653 56.336c-.291-.005-.573.11-.781.315-.21.204-.326.483-.326.775 0 .292.117.574.326.778.208.205.49.318.781.313h21.78c.292.005.574-.108.78-.313.21-.204.326-.486.326-.778 0-.291-.117-.57-.326-.775-.206-.205-.488-.32-.78-.316h-21.78z" clip-rule="evenodd"/>
    <path fill="#000" fill-opacity=".6" fill-rule="evenodd" d="M22.09 16c-.602 0-1.09.488-1.09 1.09v45.82c0 .602.488 1.09 1.09 1.09H57c.603 0 1.09-.488 1.09-1.09V24.543l-.001-.02c-.009-.338-.175-.653-.45-.854l-7.606-7.26c-.211-.263-.529-.414-.865-.41H22.09zm1.092 2.182h24.895v6.388c0 .6.488 1.088 1.09 1.09h6.742v36.158H23.182V18.182zm27.077 1.46l4.018 3.837H50.26V19.64z" clip-rule="evenodd"/>
</svg>
