<svg xmlns="http://www.w3.org/2000/svg" width="76" height="76" fill="none" viewBox="0 0 76 76">
    <g clip-path="url(#clip0)">
        <g clip-path="url(#clip1)">
            <path fill="#fff" d="M0 0H64V64H0z" transform="translate(8.5 8.063)"/>
            <path fill="#000" fill-opacity=".6" d="M69.225 22.996H44.767V11.337c-.002-1.808-1.467-3.273-3.275-3.274H11.775c-1.808.001-3.273 1.466-3.275 3.274v17.984c.001 1.78 1.421 3.233 3.2 3.275v4.779c0 .617.353 1.18.907 1.453.555.271 1.216.204 1.704-.174l7.916-6.058h14.006v8.533h-24.46c-1.807.002-3.271 1.467-3.273 3.274v17.986c.001 1.779 1.422 3.232 3.2 3.273v4.782c0 .619.35 1.184.906 1.456.555.272 1.217.204 1.705-.176l7.915-6.062h19.267c1.807-.001 3.272-1.466 3.274-3.273v-11.66h14.006l7.9 6.051c.488.387 1.154.46 1.714.19.56-.272.915-.84.913-1.462v-4.779c1.778-.042 3.198-1.495 3.2-3.273V26.27c-.002-1.807-1.467-3.272-3.275-3.274zM18.1 30.462c-.59 0-1.067.478-1.067 1.067 0 .59.478 1.067 1.067 1.067h.619l-4.886 3.742v-3.742c.59 0 1.067-.478 1.067-1.067s-.478-1.067-1.067-1.067h-2.058c-.63 0-1.141-.51-1.142-1.14V11.336c0-.63.512-1.14 1.142-1.141h29.717c.63 0 1.14.511 1.141 1.141v11.659h-3.125c-1.808.002-3.273 1.467-3.275 3.274v4.192H18.1zM42.633 62.39c0 .63-.51 1.14-1.14 1.14H18.1c-.59 0-1.067.478-1.067 1.067s.478 1.066 1.067 1.066h.616l-4.883 3.734v-3.734c.59 0 1.067-.477 1.067-1.066 0-.59-.478-1.067-1.067-1.067h-2.06c-.629 0-1.14-.51-1.14-1.14V44.403c0-.63.511-1.14 1.14-1.14h29.72c.63 0 1.14.51 1.14 1.14v17.986zm27.734-14.933c-.002.63-.512 1.14-1.142 1.14h-2.058c-.59 0-1.067.477-1.067 1.067 0 .589.478 1.066 1.067 1.066v3.742l-4.886-3.742h.619c.59 0 1.067-.477 1.067-1.066 0-.59-.478-1.067-1.067-1.067H44.767v-4.193c-.002-1.807-1.467-3.272-3.274-3.274h-3.126V26.271c0-.63.51-1.141 1.141-1.142h29.717c.63 0 1.141.511 1.142 1.141v21.186z"/>
            <path fill="#000" fill-opacity=".6" d="M25.567 12.33c-2.357 0-4.267 1.91-4.267 4.266 0 .589.478 1.067 1.067 1.067s1.066-.478 1.066-1.067c0-1.178.956-2.133 2.134-2.133s2.133.955 2.133 2.133-.955 2.133-2.133 2.133c-.59 0-1.067.478-1.067 1.067v2.133c0 .59.478 1.067 1.067 1.067s1.067-.478 1.067-1.067v-1.2c2.082-.536 3.44-2.538 3.17-4.67-.271-2.134-2.087-3.732-4.237-3.73zM25.567 27.262c.589 0 1.066-.477 1.066-1.066 0-.59-.477-1.067-1.066-1.067-.59 0-1.067.478-1.067 1.067s.478 1.066 1.067 1.066zM25.567 45.396c-2.357 0-4.267 1.91-4.267 4.267 0 .589.478 1.066 1.067 1.066s1.066-.477 1.066-1.066c0-1.179.956-2.134 2.134-2.134s2.133.955 2.133 2.133c0 1.179-.955 2.134-2.133 2.134-.59 0-1.067.477-1.067 1.066v2.134c0 .589.478 1.066 1.067 1.066s1.067-.477 1.067-1.066v-1.201c2.082-.536 3.44-2.537 3.17-4.67-.271-2.133-2.087-3.731-4.237-3.73zM25.567 60.33c.589 0 1.066-.478 1.066-1.067 0-.59-.477-1.067-1.066-1.067-.59 0-1.067.477-1.067 1.067 0 .589.478 1.066 1.067 1.066zM55.363 29.013c-.158-.413-.554-.686-.996-.686-.442 0-.839.273-.997.686l-5.333 13.866c-.137.356-.073.758.166 1.055.24.296.62.442.997.383.376-.06.693-.316.83-.672l1.787-4.65h5.099l1.788 4.65c.211.55.829.825 1.379.614.55-.212.825-.83.613-1.38-1.119-2.906-3.647-9.484-5.333-13.866zm-2.725 7.85l1.729-4.495 1.729 4.494h-3.458z"/>
        </g>
    </g>
    <defs>
        <clipPath id="clip0">
            <path fill="#fff" d="M0 0H75V75H0z" transform="translate(.5 .063)"/>
        </clipPath>
        <clipPath id="clip1">
            <path fill="#fff" d="M0 0H64V64H0z" transform="translate(8.5 8.063)"/>
        </clipPath>
    </defs>
</svg>
