<svg xmlns="http://www.w3.org/2000/svg" width="80" height="80" fill="none" viewBox="0 0 80 80">
    <path fill="#000" fill-opacity=".6" d="M57.82 26.553h-4.38V22.17c0-.44-.357-.8-.8-.8h-6.763c-.444 0-.8.36-.8.8v4.382h-4.381c-.444 0-.8.36-.8.8v6.767c0 .44.356.8.8.8h4.381v4.382c0 .44.356.8.8.8h6.763c.443 0 .8-.36.8-.8V34.92h4.38c.445 0 .8-.36.8-.8v-6.767c0-.444-.358-.8-.8-.8zm-.8 6.763h-4.38c-.444 0-.8.36-.8.8v4.382h-5.163v-4.382c0-.44-.356-.8-.8-.8h-4.381V28.15h4.381c.444 0 .8-.36.8-.8V22.97h5.163v4.382c0 .44.356.8.8.8h4.38v5.163z"/>
    <path fill="#000" fill-opacity=".6" d="M36.525 17.997c-3.4 3.4-5.275 7.926-5.275 12.737 0 4.81 1.875 9.335 5.275 12.736 3.512 3.513 8.121 5.266 12.734 5.266 4.613 0 9.225-1.756 12.738-5.266 3.4-3.4 5.275-7.926 5.275-12.736 0-4.814-1.875-9.336-5.275-12.737-7.025-7.023-18.453-7.023-25.472 0zm24.337 24.345c-6.4 6.4-16.81 6.4-23.21 0-6.4-6.401-6.4-16.812 0-23.213 3.2-3.2 7.4-4.801 11.604-4.801 4.203 0 8.406 1.6 11.606 4.8 6.4 6.398 6.4 16.813 0 23.214z"/>
    <path fill="#000" fill-opacity=".6" d="M33.178 14.651c-7.878 7.88-8.75 20.144-2.631 29.001l-2.99 2.991c-1.076-.331-2.291-.087-3.141.763L9.688 62.136C8.6 63.224 8 64.677 8 66.224c0 1.547.6 3 1.688 4.088C10.775 71.4 12.228 72 13.775 72c1.55 0 3-.6 4.088-1.688l14.728-14.73c.85-.85 1.093-2.066.762-3.141l2.99-2.991c3.872 2.675 8.391 4.02 12.917 4.02 5.825 0 11.647-2.217 16.081-6.652 4.294-4.294 6.66-10.008 6.66-16.084 0-6.076-2.366-11.786-6.663-16.084-8.865-8.867-23.293-8.867-32.159 0v.001zm-1.715 39.8L16.73 69.18c-.787.784-1.837 1.219-2.956 1.219s-2.169-.432-2.956-1.22c-.788-.784-1.219-1.834-1.219-2.956 0-1.122.431-2.172 1.219-2.957l14.728-14.73c.3-.3.69-.447 1.084-.447.394 0 .785.15 1.085.447l3.746 3.748c.597.597.597 1.569 0 2.166zm1.024-3.407l-3.534-3.535 2.56-2.56c.515.644 1.068 1.269 1.668 1.866.597.597 1.222 1.15 1.866 1.669l-2.56 2.56zm31.719-5.357c-8.244 8.245-21.656 8.245-29.9 0s-8.244-21.66 0-29.901c8.244-8.246 21.656-8.246 29.9 0 3.994 3.99 6.194 9.3 6.194 14.949 0 5.648-2.2 10.958-6.194 14.953v-.001z"/>
</svg>
