<svg xmlns="http://www.w3.org/2000/svg" width="150" height="46" fill="none" viewBox="0 0 150 46">
    <g clip-path="url(#clip0)">
        <path fill="#fff" d="M49.153 44.084c.065 0 .065 0 0 0l.065.447c0 .064 0 .064-.065.064h-1.432v1.341c0 .064 0 .064-.065.064H47.2c-.065 0-.065 0-.065-.064v-3.322c0-.064 0-.064.065-.064h2.279c.065 0 .065 0 .065.064l-.065.384s0 .063-.065.063h-1.628v1.023h1.367zM51.562 42.55c.716 0 1.172.383 1.172.958 0 .447-.26.767-.651.895-.065 0-.065.064 0 .064.26.127.39.319.456.575l.325.83c0 .064 0 .064-.065.064h-.456s-.065 0-.065-.064l-.26-.639c-.196-.447-.391-.639-.912-.639h-.325v1.278c0 .064 0 .064-.066.064h-.455c-.065 0-.065 0-.065-.064V42.55c0-.064 0-.064.065-.064h1.302v.064zm-.195 1.597c.52 0 .78-.192.78-.575 0-.32-.194-.511-.585-.511h-.846v1.086h.65zM56.315 44.211c0 1.086-.586 1.789-1.498 1.789-.911 0-1.497-.703-1.497-1.789 0-1.086.586-1.725 1.497-1.725.912 0 1.498.703 1.498 1.725zm-2.41 0c0 .767.326 1.278.912 1.278.586 0 .912-.447.912-1.278 0-.767-.326-1.278-.912-1.278-.586.064-.911.511-.911 1.278zM60.286 45.872c0 .064 0 .064 0 0l-.52.064c-.066 0-.066 0-.066-.064v-1.597c0-.32 0-.639.065-.959 0-.063-.065-.063-.065 0-.065.128-.13.256-.13.384l-.456 1.086c-.065.128-.13.32-.195.511 0 0 0 .064-.065.064h-.39s-.066 0-.066-.064c-.065-.192-.13-.32-.195-.511l-.456-1.086-.195-.384c0-.063-.066-.063-.066 0 .066.256.066.64.066.959v1.597c0 .064 0 .064-.066.064h-.455c-.065 0-.065 0-.065-.064V42.55c0-.064 0-.064.065-.064h.716c.065 0 .065 0 .065.064.065.128.065.255.13.383l.521 1.15.195.575c0 .064.066.064.066 0l.195-.575.52-1.15c.066-.128.13-.255.13-.383 0 0 0-.064.066-.064h.716c.065 0 .065 0 .065.064v3.322h-.13zM64.713 44.595c0 .894-.52 1.405-1.367 1.405s-1.367-.51-1.367-1.405v-1.98c0-.065 0-.065.065-.065h.455c.066 0 .066 0 .066.064v1.98c0 .576.26.895.78.895.456 0 .782-.32.782-.894v-1.98c0-.065 0-.065.065-.065h.456c.065 0 .065 0 .065.064v1.98zM68.229 45.872c0 .064 0 .064 0 0l-.651.064s-.065 0-.065-.064c-.065-.192-.196-.32-.26-.511l-1.042-1.725c-.065-.128-.13-.256-.196-.32 0-.063-.065-.063-.065 0 0 .192.065.384.065.703v1.853c0 .064 0 .064-.065.064h-.456c-.065 0-.065 0-.065-.064V42.55c0-.064 0-.064.066-.064h.585s.066 0 .066.064c.065.192.195.32.26.511l1.042 1.725c.065.128.13.255.195.32 0 .063.065.063.065 0-.065-.192-.065-.384-.065-.64v-1.852c0-.064 0-.064.065-.064h.456c.065 0 .065 0 .065.064v3.258zM69.596 45.872c0 .064-.065.064 0 0l-.52.064c-.066 0-.066 0-.066-.064V42.55c0-.064 0-.064.065-.064h.456c.065 0 .065 0 .065.064v3.322zM72.395 44.722l-.39 1.15s0 .064-.065.064h-.586c-.065 0-.065 0-.065-.063l-.39-1.15-.847-2.109c0-.064 0-.064.065-.064h.456s.065 0 .065.064l.716 1.725c.13.32.195.639.26.895 0 .063.065.063.065 0 .066-.256.13-.575.26-.895l.717-1.725s0-.064.065-.064h.456c.065 0 .065 0 .065.064l-.847 2.108zM75.78 43.956s.066 0 0 0l.066.447c0 .064 0 .064-.066.064h-1.367v1.022h1.758c.065 0 .065 0 .065.064v.383c0 .064 0 .064-.065.064h-2.279c-.065 0-.065 0-.065-.064v-3.322c0-.064 0-.064.066-.064h2.278c.065 0 .065 0 .065.064l-.13.384s0 .063-.065.063h-1.628v.895h1.368zM78.255 42.55c.716 0 1.172.383 1.172.958 0 .447-.26.767-.651.895-.065 0-.065.064 0 .064.26.127.39.319.456.575l.325.83c0 .064 0 .064-.065.064h-.456s-.065 0-.065-.064l-.26-.639c-.196-.447-.39-.639-.912-.639h-.325v1.278c0 .064 0 .064-.065.064h-.456c-.065 0-.065 0-.065-.064V42.55c0-.064 0-.064.065-.064h1.302v.064zm-.26 1.597c.52 0 .78-.192.78-.575 0-.32-.195-.511-.585-.511h-.846v1.086h.65zM80.924 44.339c-.586-.256-.846-.447-.846-.959 0-.575.455-.894 1.172-.894.26 0 .52.064.78.128l.261.064c.065 0 .065.064.065.064l-.13.383-.065.064-.26-.064c-.196-.064-.391-.128-.651-.128-.326 0-.586.192-.586.447 0 .192.13.32.455.447l.521.192c.586.192.847.447.847.959 0 .638-.456.958-1.237.958-.326 0-.586-.064-.977-.192l-.26-.064c-.066 0-.066-.064-.066-.064l.13-.383s.066-.064.066 0l.26.064c.26.064.521.128.781.128.391 0 .651-.128.651-.447 0-.192-.195-.384-.52-.448l-.39-.255zM83.724 45.297l-.26.64s0 .063-.066.063h-.456c-.065 0-.065 0-.065-.064l.847-2.172.39-1.15c0-.064 0-.064.065-.064h.586c.065 0 .065 0 .065.064l.39 1.15.847 2.172c0 .064 0 .064-.065.064h-.456s-.065 0-.065-.064l-.26-.639h-1.497zm1.367-.51l-.26-.64c-.13-.319-.261-.638-.261-.894 0-.064-.065-.064-.065 0-.065.256-.195.575-.26.895l-.261.638h1.107zM88.867 45.425s0 .064 0 0l.065.447c0 .064 0 .064-.065.064h-2.083c-.066 0-.066 0-.066-.064V42.55c0-.064 0-.064.066-.064h.455c.065 0 .066 0 .066.064v2.875h1.562zM93.294 45.872c0 .064 0 .064 0 0l-.521.064c-.065 0-.065 0-.065-.064v-1.47h-1.563v1.47c0 .064 0 .064-.065.064h-.456c-.065 0-.065 0-.065-.064V42.55c0-.064 0-.064.065-.064h.456c.065 0 .065 0 .065.064v1.342h1.628V42.55c0-.064 0-.064.065-.064h.456c.065 0 .065 0 .065.064v3.322h-.065zM95.963 43.956c.065 0 .065 0 0 0l.065.447c0 .064 0 .064-.065.064h-1.367v1.022h1.758c.065 0 .065 0 .065.064v.383c0 .064 0 .064-.065.064h-2.279c-.065 0-.065 0-.065-.064v-3.322c0-.064 0-.064.065-.064h2.279c.065 0 .065 0 .065.064l-.13.384s0 .063-.065.063h-1.628v.895h1.367zM97.721 45.297l-.26.64s0 .063-.065.063h-.456c-.065 0-.065 0-.065-.064l.846-2.172.39-1.15c0-.064 0-.064.066-.064h.586c.065 0 .065 0 .065.064l.39 1.15.847 2.172c0 .064 0 .064-.065.064h-.456s-.065 0-.065-.064l-.26-.639H97.72zm1.367-.51l-.26-.64c-.13-.319-.26-.638-.26-.894 0-.064-.066-.064-.066 0-.065.256-.195.575-.26.895l-.26.638h1.106zM102.799 45.425s.065.064 0 0l.065.447c0 .064 0 .064-.065.064h-2.083c-.065 0-.065 0-.065-.064V42.55c0-.064 0-.064.065-.064h.455c.065 0 .065 0 .065.064v2.875h1.563zM105.664 42.998s0 .063 0 0l-1.107.063v2.875c0 .064 0 .064-.065.064h-.456c-.065 0-.065 0-.065-.064v-2.875h-1.042c-.065 0-.065 0-.065-.063v-.384c0-.064 0-.064.065-.064h2.67c.065 0 .065 0 .065.064v.384zM108.919 45.872c0 .064 0 .064 0 0l-.521.064c-.065 0-.065 0-.065-.064v-1.47h-1.563v1.47c0 .064 0 .064-.065.064h-.455c-.066 0-.066 0-.066-.064V42.55c0-.064 0-.064.066-.064h.455c.065 0 .065 0 .065.064v1.342h1.628V42.55c0-.064 0-.064.065-.064h.456c.065 0 .065 0 .065.064v3.322h-.065zM112.76 44.084l.065.447c0 .064 0 .064-.065.064h-1.432v1.341c0 .064 0 .064-.065.064h-.456c-.065 0-.065 0-.065-.064v-3.322c0-.064 0-.064.065-.064h2.279c.065 0 .065 0 .065.064l-.131.384s0 .063-.065.063h-1.627v1.023h1.432zM115.69 43.956l.065.447c0 .064 0 .064-.065.064h-1.368v1.022h1.758c.065 0 .065 0 .065.064v.383c0 .064 0 .064-.065.064h-2.278c-.066 0-.066 0-.066-.064v-3.322c0-.064 0-.064.066-.064h2.278c.065 0 .065 0 .065.064l-.13.384s0 .063-.065.063h-1.628v.895h1.368zM118.88 45.425s.065.064 0 0l.065.447c0 .064 0 .064-.065.064h-2.084c-.065 0-.065 0-.065-.064V42.55c0-.064 0-.064.065-.064h.456c.065 0 .065 0 .065.064v2.875h1.563zM121.679 45.425c.066 0 .066.064 0 0l.066.447c0 .064 0 .064-.066.064h-2.083c-.065 0-.065 0-.065-.064V42.55c0-.064 0-.064.065-.064h.456c.065 0 .065 0 .065.064v2.875h1.562zM125.195 44.211c0 1.086-.586 1.789-1.497 1.789-.912 0-1.498-.703-1.498-1.789 0-1.086.586-1.725 1.498-1.725.911 0 1.497.703 1.497 1.725zm-2.474 0c0 .767.326 1.278.911 1.278.586 0 .912-.447.912-1.278 0-.767-.326-1.278-.912-1.278-.52.064-.911.511-.911 1.278zM129.361 45.042c-.065.255-.13.575-.195.894 0 .064 0 .064-.065.064h-.586c-.065 0-.065 0-.065-.064l-.195-.766-.326-1.15c0-.128-.065-.256-.065-.384 0-.064-.065-.064-.065 0 0 .128-.065.32-.065.384l-.326 1.15-.195.766c0 .064 0 .064-.065.064h-.586c-.065 0-.065 0-.065-.064-.065-.255-.13-.575-.196-.894l-.716-2.428c0-.064 0-.064.065-.064h.456c.065 0 .065 0 .065.064l.521 1.725c.065.256.13.575.13.83 0 .065.065.065.065 0 0-.255.066-.574.196-.83l.521-1.725s0-.064.065-.064h.39c.065 0 .065 0 .065.064l.521 1.725c.065.256.13.575.196.83 0 .065.065.065.065 0 0-.255.065-.574.13-.83l.521-1.725s0-.064.065-.064h.456c.065 0 .065 0 .065.064l-.782 2.428zM131.315 44.339c-.586-.256-.847-.447-.847-.959 0-.575.456-.894 1.172-.894.261 0 .521.064.782.128l.26.064c.065 0 .065.064.065.064l-.13.383-.065.064-.261-.064c-.195-.064-.39-.128-.651-.128-.325 0-.586.192-.586.447 0 .192.131.32.456.447l.521.192c.586.192.846.447.846.959 0 .638-.455.958-1.237.958-.325 0-.586-.064-.976-.192l-.261-.064c-.065 0-.065-.064-.065-.064l.13-.383s.066-.064.066 0l.26.064c.26.064.521.128.781.128.391 0 .651-.128.651-.447 0-.192-.195-.384-.521-.448l-.39-.255zM136.263 45.872c0 .064 0 .064 0 0l-.521.064c-.065 0-.065 0-.065-.064v-1.47h-1.563v1.47c0 .064 0 .064-.065.064h-.455c-.065 0-.065 0-.065-.064V42.55c0-.064 0-.064.065-.064h.455c.065 0 .065 0 .065.064v1.342h1.563V42.55c0-.064 0-.064.065-.064h.456c.065 0 .065 0 .065.064v3.322zM137.63 45.872c0 .064 0 .064 0 0l-.521.064c-.065 0-.065 0-.065-.064V42.55c0-.064 0-.064.065-.064h.456c.065 0 .065 0 .065.064v3.322zM139.713 42.55c.781 0 1.172.384 1.172 1.086 0 .703-.521 1.15-1.432 1.15h-.521v1.15c0 .064 0 .064-.065.064h-.456c-.065 0-.065 0-.065-.064v-3.322c0-.064 0-.064.065-.064h1.302zm-.781 1.725h.521c.586 0 .846-.255.846-.639 0-.383-.26-.575-.651-.575h-.781v1.214h.065zM56.183 39.93c0 .128-.065.128-.13.128h-.846c-.13 0-.13-.064-.13-.128v-5.366H48.37v5.366c0 .128-.065.128-.13.128h-.847c-.13 0-.13-.064-.13-.128V28.494c0-.128.065-.128.13-.128h.847c.13 0 .13.064.13.128v5.047h6.64v-5.047c0-.128.066-.128.13-.128h.847c.13 0 .13.064.13.128V39.93h.065zM64.647 39.995c-.586.192-1.237.256-1.888.256-2.409 0-3.84-1.661-3.84-4.28 0-2.62 1.431-4.281 3.84-4.281 1.953 0 3.125.958 3.125 2.555 0 1.214-.781 1.917-2.343 2.172l-3.386.575c.195 1.406 1.172 2.3 2.604 2.3.586 0 1.107-.064 1.628-.191l.52-.128c.13 0 .196 0 .196.128l.195.702c0 .128 0 .192-.13.192h-.52zm-1.302-4.536c.912-.128 1.367-.575 1.367-1.214 0-.958-.716-1.533-2.018-1.533-1.628 0-2.604 1.086-2.67 3.258l3.321-.511zM69.204 31.945c.521-.128 1.107-.256 1.889-.256 2.148 0 3.45 1.214 3.45 3.323v4.855c0 .128-.065.128-.13.128h-.521c-.13 0-.13-.064-.195-.128l-.065-.766c-.066-.192-.196-.192-.326 0-.586.702-1.497 1.086-2.734 1.086-1.758 0-2.8-.959-2.8-2.492 0-1.47 1.042-2.492 3.06-2.492h2.604v-.191c0-1.47-.846-2.3-2.344-2.3-.585 0-1.171.064-1.562.191l-.586.192c-.13.064-.195 0-.195-.128l-.195-.639c-.066-.127 0-.191.13-.191l.52-.192zm1.563 4.28c-1.302 0-1.953.576-1.953 1.47 0 .958.65 1.533 1.758 1.533 1.823 0 2.8-1.022 2.8-2.81v-.192h-2.605zM78.58 39.93c0 .128-.066.128-.131.128h-.846c-.13 0-.13-.063-.13-.127V28.11c0-.128.064-.128.13-.128h.846c.13 0 .13.064.13.128v11.82zM89.19 31.306c0 .702-.064 1.213-.13 1.725-.065.127.066.191.196.063.586-.83 1.497-1.405 2.8-1.405 1.887 0 3.06 1.278 3.06 3.322v4.856c0 .128-.066.128-.131.128h-.846c-.13 0-.13-.064-.13-.128v-4.728c0-1.47-.782-2.364-2.084-2.364-2.018 0-2.734 1.597-2.734 3.45v3.77c0 .127-.065.127-.13.127h-.847c-.13 0-.13-.064-.13-.127V28.11c0-.128.065-.128.13-.128h.847c.13 0 .13.064.13.128v3.195zM100.585 34.18c-1.888-.703-2.605-1.597-2.605-3.066 0-1.853 1.498-3.003 3.776-3.003.912 0 1.758.128 2.605.447l.846.256c.13.064.13.127.13.191l-.26.703c-.065.064-.131.128-.196.064l-.846-.256c-.781-.255-1.497-.383-2.344-.383-1.562 0-2.604.703-2.604 1.917 0 .766.39 1.533 1.888 2.044l2.409.895c1.628.575 2.604 1.405 2.604 2.939 0 2.044-1.758 3.194-4.167 3.194-1.302 0-2.278-.192-3.255-.575l-.716-.256c-.065-.063-.13-.127-.065-.191l.26-.703c.066-.128.13-.128.196-.128l.716.256c.846.32 1.693.51 2.93.51 1.627 0 2.994-.766 2.994-2.171 0-1.023-.911-1.598-1.888-1.98l-2.408-.704zM109.895 31.306c0 .702-.065 1.213-.131 1.725-.065.127.066.191.196.063.586-.83 1.497-1.405 2.734-1.405 1.888 0 3.06 1.278 3.06 3.322v4.856c0 .128-.065.128-.13.128h-.847c-.13 0-.13-.064-.13-.128v-4.728c0-1.47-.781-2.364-2.083-2.364-2.018 0-2.734 1.597-2.734 3.45v3.77c0 .127-.066.127-.131.127h-.846c-.13 0-.13-.064-.13-.127V28.11c0-.128.065-.128.13-.128h.846c.131 0 .131.064.131.128v3.195h.065zM119.725 31.945c.521-.128 1.107-.256 1.888-.256 2.148 0 3.45 1.214 3.45 3.323v4.855c0 .128-.065.128-.13.128h-.586c-.13 0-.13-.064-.195-.128l-.065-.766c-.065-.192-.195-.192-.326 0-.586.702-1.497 1.086-2.799 1.086-1.758 0-2.8-.959-2.8-2.492 0-1.47 1.042-2.492 3.06-2.492h2.604v-.191c0-1.47-.846-2.3-2.343-2.3-.586 0-1.172.064-1.563.191l-.586.192c-.13.064-.195 0-.195-.128l-.195-.639c-.066-.127 0-.191.13-.191l.651-.192zm1.562 4.28c-1.302 0-1.953.576-1.953 1.47 0 .958.651 1.533 1.758 1.533 1.823 0 2.8-1.022 2.8-2.81v-.192h-2.605zM132.16 32.584c0 .128-.065.128-.131.128-1.888.064-2.929 1.597-2.929 4.536v2.683c0 .128-.065.128-.13.128h-.847c-.13 0-.13-.064-.13-.128V32.01c0-.128.065-.128.13-.128h.521c.13 0 .13.064.195.128l.131 1.278c.065.127.13.191.195.064.651-1.023 1.497-1.598 2.864-1.662.131 0 .131.064.131.128v.767zM139.777 39.995c-.586.192-1.237.256-1.888.256-2.409 0-3.841-1.661-3.841-4.28 0-2.62 1.432-4.281 3.841-4.281 1.953 0 3.125.958 3.125 2.555 0 1.214-.781 1.917-2.344 2.172l-3.385.575c.195 1.406 1.172 2.3 2.604 2.3.586 0 1.107-.064 1.628-.191l.521-.128c.13 0 .195 0 .195.128l.195.702c0 .128 0 .192-.13.192h-.521zm-1.302-4.536c.912-.128 1.367-.575 1.367-1.214 0-.958-.716-1.533-2.018-1.533-1.627 0-2.604 1.086-2.669 3.258l3.32-.511zM83.462 39.93c0 .128-.065.128-.13.128h-.846c-.13 0-.13-.064-.13-.128v-7.027h-1.368c-.13 0-.13-.064-.13-.128v-.703c0-.128.065-.128.13-.128h1.368V29.9c0-.064.065-.128.13-.192l.846-.255c.13-.064.195 0 .195.127v2.364h2.54c.13 0 .13.064.13.128v.703c0 .128-.065.128-.13.128h-2.54l-.065 7.027z"/>
        <path fill="#fff" d="M56.183 39.93c0 .128-.065.128-.13.128h-.846c-.13 0-.13-.064-.13-.128v-5.366H48.37v5.366c0 .128-.065.128-.13.128h-.847c-.13 0-.13-.064-.13-.128V28.494c0-.128.065-.128.13-.128h.847c.13 0 .13.064.13.128v5.047h6.64v-5.047c0-.128.066-.128.13-.128h.847c.13 0 .13.064.13.128V39.93h.065zM64.647 39.995c-.586.192-1.237.256-1.888.256-2.409 0-3.84-1.661-3.84-4.28 0-2.62 1.431-4.281 3.84-4.281 1.953 0 3.125.958 3.125 2.555 0 1.214-.781 1.917-2.343 2.172l-3.386.575c.195 1.406 1.172 2.3 2.604 2.3.586 0 1.107-.064 1.628-.191l.52-.128c.13 0 .196 0 .196.128l.195.702c0 .128 0 .192-.13.192h-.52zm-1.302-4.536c.912-.128 1.367-.575 1.367-1.214 0-.958-.716-1.533-2.018-1.533-1.628 0-2.604 1.086-2.67 3.258l3.321-.511zM69.204 31.945c.521-.128 1.107-.256 1.889-.256 2.148 0 3.45 1.214 3.45 3.323v4.855c0 .128-.065.128-.13.128h-.521c-.13 0-.13-.064-.195-.128l-.065-.766c-.066-.192-.196-.192-.326 0-.586.702-1.497 1.086-2.734 1.086-1.758 0-2.8-.959-2.8-2.492 0-1.47 1.042-2.492 3.06-2.492h2.604v-.191c0-1.47-.846-2.3-2.344-2.3-.585 0-1.171.064-1.562.191l-.586.192c-.13.064-.195 0-.195-.128l-.195-.639c-.066-.127 0-.191.13-.191l.52-.192zm1.563 4.28c-1.302 0-1.953.576-1.953 1.47 0 .958.65 1.533 1.758 1.533 1.823 0 2.8-1.022 2.8-2.81v-.192h-2.605zM78.58 39.93c0 .128-.066.128-.131.128h-.846c-.13 0-.13-.063-.13-.127V28.11c0-.128.064-.128.13-.128h.846c.13 0 .13.064.13.128v11.82zM89.19 31.306c0 .702-.064 1.213-.13 1.725-.065.127.066.191.196.063.586-.83 1.497-1.405 2.8-1.405 1.887 0 3.06 1.278 3.06 3.322v4.856c0 .128-.066.128-.131.128h-.846c-.13 0-.13-.064-.13-.128v-4.728c0-1.47-.782-2.364-2.084-2.364-2.018 0-2.734 1.597-2.734 3.45v3.77c0 .127-.065.127-.13.127h-.847c-.13 0-.13-.064-.13-.127V28.11c0-.128.065-.128.13-.128h.847c.13 0 .13.064.13.128v3.195zM100.585 34.18c-1.888-.703-2.605-1.597-2.605-3.066 0-1.853 1.498-3.003 3.776-3.003.912 0 1.758.128 2.605.447l.846.256c.13.064.13.127.13.191l-.26.703c-.065.064-.131.128-.196.064l-.846-.256c-.781-.255-1.497-.383-2.344-.383-1.562 0-2.604.703-2.604 1.917 0 .766.39 1.533 1.888 2.044l2.409.895c1.628.575 2.604 1.405 2.604 2.939 0 2.044-1.758 3.194-4.167 3.194-1.302 0-2.278-.192-3.255-.575l-.716-.256c-.065-.063-.13-.127-.065-.191l.26-.703c.066-.128.13-.128.196-.128l.716.256c.846.32 1.693.51 2.93.51 1.627 0 2.994-.766 2.994-2.171 0-1.023-.911-1.598-1.888-1.98l-2.408-.704zM109.895 31.306c0 .702-.065 1.213-.131 1.725-.065.127.066.191.196.063.586-.83 1.497-1.405 2.734-1.405 1.888 0 3.06 1.278 3.06 3.322v4.856c0 .128-.065.128-.13.128h-.847c-.13 0-.13-.064-.13-.128v-4.728c0-1.47-.781-2.364-2.083-2.364-2.018 0-2.734 1.597-2.734 3.45v3.77c0 .127-.066.127-.131.127h-.846c-.13 0-.13-.064-.13-.127V28.11c0-.128.065-.128.13-.128h.846c.131 0 .131.064.131.128v3.195h.065zM119.725 31.945c.521-.128 1.107-.256 1.888-.256 2.148 0 3.45 1.214 3.45 3.323v4.855c0 .128-.065.128-.13.128h-.586c-.13 0-.13-.064-.195-.128l-.065-.766c-.065-.192-.195-.192-.326 0-.586.702-1.497 1.086-2.799 1.086-1.758 0-2.8-.959-2.8-2.492 0-1.47 1.042-2.492 3.06-2.492h2.604v-.191c0-1.47-.846-2.3-2.343-2.3-.586 0-1.172.064-1.563.191l-.586.192c-.13.064-.195 0-.195-.128l-.195-.639c-.066-.127 0-.191.13-.191l.651-.192zm1.562 4.28c-1.302 0-1.953.576-1.953 1.47 0 .958.651 1.533 1.758 1.533 1.823 0 2.8-1.022 2.8-2.81v-.192h-2.605zM132.16 32.584c0 .128-.065.128-.131.128-1.888.064-2.929 1.597-2.929 4.536v2.683c0 .128-.065.128-.13.128h-.847c-.13 0-.13-.064-.13-.128V32.01c0-.128.065-.128.13-.128h.521c.13 0 .13.064.195.128l.131 1.278c.065.127.13.191.195.064.651-1.023 1.497-1.598 2.864-1.662.131 0 .131.064.131.128v.767zM139.777 39.995c-.586.192-1.237.256-1.888.256-2.409 0-3.841-1.661-3.841-4.28 0-2.62 1.432-4.281 3.841-4.281 1.953 0 3.125.958 3.125 2.555 0 1.214-.781 1.917-2.344 2.172l-3.385.575c.195 1.406 1.172 2.3 2.604 2.3.586 0 1.107-.064 1.628-.191l.521-.128c.13 0 .195 0 .195.128l.195.702c0 .128 0 .192-.13.192h-.521zm-1.302-4.536c.912-.128 1.367-.575 1.367-1.214 0-.958-.716-1.533-2.018-1.533-1.627 0-2.604 1.086-2.669 3.258l3.32-.511zM83.462 39.93c0 .128-.065.128-.13.128h-.846c-.13 0-.13-.064-.13-.128v-7.027h-1.368c-.13 0-.13-.064-.13-.128v-.703c0-.128.065-.128.13-.128h1.368V29.9c0-.064.065-.128.13-.192l.846-.255c.13-.064.195 0 .195.127v2.364h2.54c.13 0 .13.064.13.128v.703c0 .128-.065.128-.13.128h-2.54l-.065 7.027zM144.726 8.817c-.586-.192-.781-.447-.781-.895 0-.575.456-.894 1.107-.894.26 0 .521.064.716.128l.26.064c.065 0 .065.063.065.063l-.13.32-.065.064-.26-.064c-.196-.064-.391-.128-.586-.128-.326 0-.586.128-.586.383 0 .192.13.32.455.448l.521.191c.521.192.782.448.782.895 0 .575-.456.894-1.172.894-.326 0-.586-.064-.912-.128l-.26-.063c-.065 0-.065-.064-.065-.064l.13-.384s.065-.064.065 0l.26.064c.261.064.456.128.717.128.325 0 .651-.128.651-.447 0-.192-.196-.32-.456-.447l-.456-.128zM150 10.222c0 .064 0 .064 0 0l-.456.064c-.065 0-.065 0-.065-.064v-1.47c0-.255 0-.638.065-.894 0-.063-.065-.063-.065 0-.065.128-.13.256-.13.384l-.456 1.022c-.065.128-.13.32-.195.447 0 0 0 .064-.066.064h-.39s-.065 0-.065-.064c-.065-.128-.13-.32-.196-.447l-.455-1.022c-.065-.128-.13-.256-.13-.384 0-.063-.066-.063-.066 0 .066.256.066.64.066.895v1.47c0 .063 0 .063-.066.063h-.455c-.065 0-.065 0-.065-.064v-3.13c0-.064 0-.064.065-.064h.651s.065 0 .065.064c.065.128.065.255.13.32l.456 1.085c.065.192.13.384.195.511 0 .064.065.064.065 0 .065-.191.13-.383.195-.51l.456-1.087c.065-.128.065-.255.13-.32 0 0 0-.063.066-.063h.651s.065 0 .065.064v3.13zM59.179 17.825c0 4.344-2.279 6.9-6.12 6.9-3.906 0-6.12-2.556-6.12-6.9V7.73c0-.128.065-.192.196-.192h1.172c.13 0 .195.064.195.192v10.03c0 3.387 1.692 5.367 4.557 5.367s4.557-1.98 4.557-5.366V7.73c0-.129.066-.193.196-.193h1.172c.13 0 .195.064.195.192v10.095zM64.192 14.374c.065.192.195.192.39 0 .912-1.341 2.214-1.98 3.842-1.98 2.67 0 4.232 1.789 4.232 4.791v7.028c0 .128-.066.192-.196.192h-1.106c-.13 0-.196-.064-.196-.192v-6.9c0-2.108-1.041-3.45-2.864-3.45-2.41 0-3.776 1.79-3.776 4.92v5.366c0 .128-.066.192-.196.192H63.15c-.13 0-.195-.064-.195-.192V12.905c0-.128.065-.192.195-.192h.717c.13 0 .195.064.195.192l.13 1.47zM78.384 24.214c0 .127-.065.191-.195.191h-1.107c-.13 0-.195-.064-.195-.191V12.905c0-.127.065-.191.26-.191h1.107c.13 0 .195.063.195.191v11.309h-.065zm0-16.164c0 .703-.39 1.086-1.041 1.086-.651 0-1.042-.383-1.042-1.086 0-.703.39-1.086 1.042-1.086.716 0 1.041.383 1.041 1.086zM89.062 20.06c-.586 1.343-1.107 3.004-1.433 4.218 0 .127-.13.191-.26.191h-1.302c-.13 0-.195-.064-.26-.192-.326-1.213-.847-2.875-1.433-4.216l-3.125-7.092c-.065-.191 0-.255.196-.255h1.236c.13 0 .196.063.26.191l2.735 6.197c.456 1.087.781 2.237.977 2.94.065.191.26.191.325 0 .13-.767.521-1.853.977-2.94l2.734-6.197c.065-.127.13-.191.26-.191h1.238c.195 0 .26.127.195.255l-3.32 7.092zM102.017 24.342c-.846.256-1.692.383-2.604.383-3.32 0-5.273-2.364-5.273-6.133 0-3.77 2.018-6.133 5.273-6.133 2.735 0 4.362 1.341 4.362 3.641 0 1.725-1.041 2.748-3.255 3.131l-4.687.767c.325 2.044 1.627 3.258 3.58 3.258.847 0 1.563-.128 2.214-.32l.716-.191c.13 0 .26 0 .26.191l.261.959c0 .128 0 .255-.195.255l-.652.192zm-1.757-6.517c1.302-.191 1.953-.766 1.953-1.725 0-1.405-1.042-2.172-2.8-2.172-2.213 0-3.58 1.533-3.645 4.728l4.492-.83zM112.695 13.673c0 .127-.066.191-.196.191-2.604.128-4.036 2.364-4.036 6.517v3.833c0 .128-.065.192-.196.192h-1.106c-.131 0-.196-.064-.196-.192V12.906c0-.128.065-.192.196-.192h.716c.13 0 .195.064.26.192l.196 1.853c.065.191.195.255.325.064.911-1.47 2.083-2.3 3.906-2.364.13 0 .196.064.196.191v1.023h-.065zM117.838 18.655c-1.758-.447-2.604-1.406-2.604-3.067 0-1.98 1.497-3.194 4.102-3.194 1.041 0 2.083.127 2.799.383l.912.32c.13.063.195.127.13.319l-.261.958c-.065.128-.13.192-.26.128l-.912-.256c-.651-.191-1.562-.319-2.408-.319-1.628 0-2.605.703-2.605 1.725 0 .83.456 1.406 1.563 1.725l2.799.83c1.888.512 2.67 1.534 2.67 3.131 0 2.108-1.628 3.386-4.362 3.386-1.433 0-2.67-.191-3.646-.575l-.651-.191c-.13-.064-.195-.128-.13-.32l.325-.958c.065-.128.13-.192.261-.128l.651.192c.846.32 1.953.51 3.19.51 1.758 0 2.799-.766 2.799-1.916 0-.894-.521-1.47-1.627-1.789l-2.735-.894zM128.19 12.777c.716-.192 1.562-.383 2.604-.383 2.929 0 4.752 1.789 4.752 4.791v7.028c0 .128-.065.192-.195.192h-.716c-.13 0-.195-.064-.26-.192l-.066-1.086c-.065-.32-.26-.32-.455 0-.847 1.086-2.019 1.597-3.841 1.597-2.409 0-3.842-1.341-3.842-3.514 0-2.108 1.498-3.577 4.232-3.641h3.646v-.32c0-2.108-1.172-3.322-3.255-3.322-.847 0-1.563.128-2.214.32l-.846.255c-.13.064-.261 0-.261-.128l-.26-.958c-.065-.128 0-.256.13-.32l.847-.319zm2.148 6.133c-1.823 0-2.669.831-2.669 2.109 0 1.405.846 2.172 2.409 2.172 2.474 0 3.906-1.47 3.906-4.025v-.32h-3.646v.064zM139.062 7.283c0-.128.065-.192.195-.192h1.107c.13 0 .195.064.195.192v16.93c0 .128-.065.192-.195.192h-1.107c-.13 0-.195-.064-.195-.192V7.283z"/>
        <path fill="#F58466" d="M37.11 19.934c-.521-2.492-.912-4.28-1.758-6.134-.586-1.277-2.8-4.663-3.516-5.047-.26-.127-.325.256-.065.703.26.383.911 1.661.52 1.789-.195.064-1.171-2.62-3.124-3.45-.13 0-.196.32 0 .703 1.041 1.405 1.953 3.13 1.562 3.194-.195 0-1.497-2.875-3.385-3.514-.26-.064-.196.575.456 1.342 1.041 1.214 1.497 2.556 1.302 2.62-.13.063-1.693-2.428-2.865-2.62-.325-.064-.13.703.456 1.47 1.627 2.108 1.888 2.938 1.823 3.322-.065.255-.912-.575-1.237-.703-1.172-.575-1.433-.192-1.172.128.52.766 3.125 2.81 3.971 6.964.26 1.213.326 4.152-.195 6.452-.52 2.109-1.107 3.067-1.823 4.217-.781 1.214-1.953 2.428-3.385 3.322-2.019 1.342-4.167 1.597-5.795 1.533-2.343-.063-4.036-.702-5.338-1.597.781.895 1.627 1.725 2.604 2.492 2.344 1.98 6.706 4.472 12.5 5.622.781-.575 1.562-1.214 2.213-1.916 1.498-1.534 2.8-3.195 3.776-5.112.977-2.044 2.149-4.344 2.54-7.475.325-2.747.586-5.239-.066-8.305z"/>
        <path fill="#FEC465" d="M13.607 34.692c-1.171-1.087-2.864-3.131-3.645-4.792-1.368-2.939-1.628-6.006-1.172-9.328.586-3.897 1.432-6.644 3.32-11.244 0-1.406-2.474 1.47-2.67 1.15-.585-1.023 3.256-8.05 2.475-8.88-.26-.256-.781.446-1.367 1.469-.782 1.341-1.433 3.258-1.758 3.066-.196-.128-.065-1.278.325-2.747.39-1.533.977-3.258.456-3.386-.781-.128-1.953 4.983-2.734 5.239-.26.064 0-1.661.13-2.94.065-.894.39-1.852-.326-1.469-.586.256-1.757 4.153-1.953 3.898-.13-.128-.065-1.023-.065-1.917.065-.703-.065-1.406-.39-.767-.456 1.15-.717 1.98-1.107 3.195C1.628 9.583.586 14.183.26 18.975c-.195 2.108-.325 4.217-.195 6.389.13 2.172.586 4.408 1.237 6.644.65 2.236 1.758 4.345 3.255 6.453 1.042 1.47 2.865 3.386 4.753 4.664 2.343 1.597 4.101 2.236 5.99 2.62 1.822.319 3.45.319 5.142.191 3.581-.255 8.204-3.13 8.204-3.13-5.795-1.087-10.157-3.642-12.5-5.623-.912-.766-1.758-1.597-2.54-2.491z"/>
    </g>
    <defs>
        <clipPath id="clip0">
            <path fill="#fff" d="M0 0H150V46H0z"/>
        </clipPath>
    </defs>
</svg>
