<svg xmlns="http://www.w3.org/2000/svg" width="80" height="80" fill="none" viewBox="0 0 80 80">
    <path fill="#000" fill-opacity=".6" d="M57.864 16.754H51.31v-.478c0-1.17-.951-2.12-2.121-2.12h-2.357C46.578 10.718 43.701 8 40.2 8c-3.5 0-6.378 2.719-6.632 6.155H31.21c-1.169 0-2.12.951-2.12 2.121v.478h-6.412c-2.58 0-4.679 2.099-4.679 4.679V67.32C18 69.901 20.1 72 22.679 72h35.185c2.58 0 4.68-2.099 4.68-4.678v-45.89c0-2.579-2.1-4.678-4.68-4.678zm-26.898-.478c0-.133.112-.244.245-.244h3.3c.261 0 .511-.11.688-.302.178-.192.267-.45.247-.711-.01-.122-.02-.244-.02-.37 0-2.632 2.142-4.773 4.774-4.773s4.773 2.14 4.773 4.773c0 .123-.01.242-.02.375-.019.26.071.516.249.707.177.192.426.3.687.3h3.299c.133 0 .245.113.245.245v5.256c0 .133-.112.245-.245.245H31.211c-.133 0-.245-.112-.245-.245v-5.256zm29.701 51.045c0 1.545-1.258 2.803-2.803 2.803H22.68c-1.545 0-2.802-1.258-2.802-2.803V21.433c0-1.5 1.185-2.726 2.669-2.796v27.128c0 .518.42.938.938.938s.938-.42.938-.938V18.63h4.668v2.902c0 1.17.952 2.121 2.121 2.121h17.977c1.17 0 2.121-.952 2.121-2.121V18.63h4.81v32.958c0 .518.421.938.939.938s.938-.42.938-.938V18.637c1.484.07 2.67 1.295 2.67 2.796V67.32h.001z"/>
    <path fill="#000" fill-opacity=".6" d="M28.066 38.39h3.363c.896 0 1.94-.566 2.43-1.315l2.268-3.465 2.967 7.489c.346.871.934.99 1.225.99l.059-.002c.262-.015.9-.154 1.164-1.125l2.673-9.836 1.579 5.559c.276.972 1.246 1.705 2.256 1.705h4.38c.518 0 .937-.42.937-.938s-.42-.938-.937-.938h-4.38c-.165 0-.406-.182-.45-.341l-2.212-7.784c-.282-.993-.921-1.104-1.19-1.104h-.005c-.265.003-.91.114-1.182 1.118l-2.819 10.374-2.596-6.552c-.236-.596-.683-.97-1.225-1.025-.54-.052-1.055.222-1.407.759l-2.675 4.09c-.148.225-.59.465-.86.465h-3.363c-.518 0-.938.42-.938.938s.42.938.938.938zM40.2 18.865c2.127 0 3.859-1.731 3.859-3.86 0-2.127-1.732-3.858-3.86-3.858-2.127 0-3.858 1.73-3.858 3.858 0 2.129 1.731 3.86 3.859 3.86zm0-5.842c1.093 0 1.982.89 1.982 1.982 0 1.094-.889 1.984-1.982 1.984s-1.983-.89-1.983-1.984c0-1.093.89-1.982 1.983-1.982zM57.059 56.278c-.518 0-.938.42-.938.938v8.067h-31.7V51.018c0-.518-.418-.938-.937-.938-.519 0-.938.42-.938.938V66.22c0 .519.42.939.938.939H57.06c.517 0 .937-.42.937-.939v-9.005c0-.518-.42-.938-.937-.938zM30.413 51.106h1.876c.518 0 .938-.42.938-.938s-.42-.937-.938-.937h-1.876c-.518 0-.938.42-.938.937 0 .519.42.938.938.938zM50.94 49.23H36.416c-.518 0-.938.42-.938.938 0 .519.42.938.938.938H50.94c.518 0 .938-.42.938-.938s-.42-.937-.938-.937z"/>
    <path fill="#000" fill-opacity=".6" d="M30.413 58.072h11.631c.519 0 .939-.42.939-.939 0-.518-.42-.938-.939-.938H30.413c-.518 0-.938.42-.938.938 0 .519.42.938.938.938zM50.94 56.195h-4.768c-.519 0-.938.42-.938.938 0 .519.42.938.938.938h4.768c.518 0 .938-.42.938-.938s-.42-.938-.938-.938z"/>
</svg>
