<svg xmlns="http://www.w3.org/2000/svg" width="60" height="60" fill="none" viewBox="0 0 60 60">
    <g clip-path="url(#clip0)">
        <path fill="#000" fill-opacity=".6" d="M30.301 17.061c1.673-1.143 3.484-1.874 5.482-2.148 6.782-.914 11.52 3.61 12.123 9.05.372 3.2-.603 6.034-2.833 8.456-.093.092-.186.229-.186.366-.371 1.874-1.208 2.605-3.112 2.834-.047 0-.047.045-.093.045-.14 1.966-1.44 3.109-3.252 3.154 0 .96-.325 1.829-1.161 2.469-.79.64-1.719.822-2.74.594-.14 1.142-.883 1.828-1.626 2.514-.465.411-.883.868-1.348 1.325-.975.96-2.09 1.235-3.344.777-1.254-.457-1.905-1.417-1.951-2.788 0-.046 0-.091-.047-.183-.882.046-1.672-.274-2.322-.868-.65-.594-.93-1.371-.93-2.285-.882-.046-1.671-.275-2.322-.915-.65-.594-.882-1.371-.929-2.24-.139 0-.278-.045-.418-.045-1.765-.229-2.833-1.463-2.787-3.2 0-.183-.093-.411-.232-.502-1.858-1.692-3.252-3.657-3.856-6.08-.882-3.52-.464-6.81 1.905-9.644 3.902-4.708 11.148-5.028 15.747-.823.14.046.186.091.232.137zm1.069 21.437c.093 0 .139.046.185.046 1.022.046 1.812.457 2.416 1.189.186.228.418.41.697.548.697.411 1.58.137 1.997-.548.372-.64.279-1.326-.371-1.966l-6.225-6.125-.325-.32c-.279-.32-.232-.731.046-1.005.279-.275.697-.32 1.022-.046.14.091.232.228.325.32l6.271 6.17c.418.412.883.64 1.487.503.604-.137.975-.503 1.115-1.097.186-.594-.047-1.051-.465-1.462-2.183-2.103-4.32-4.251-6.503-6.354-.372-.366-.418-.823-.093-1.143.325-.32.79-.274 1.161.092 1.255 1.234 2.509 2.422 3.763 3.656L40.66 33.7c.79.731 1.905.594 2.416-.274.371-.594.232-1.28-.326-1.874-2.973-3.063-5.992-6.034-9.011-9.005-.047-.046-.14-.137-.279-.228-.093.091-.14.182-.232.274-1.115 1.097-2.184 2.194-3.345 3.245-2.369 2.148-5.992 1.783-8.036-.731 2.416-2.331 4.831-4.708 7.246-7.04-3.901-3.884-10.823-3.336-13.935 1.143-1.95 2.789-1.997 5.805-.836 8.868.604 1.6 1.626 2.97 2.973 4.114l2.369-2.332c.836-.822 1.811-1.05 2.926-.73 1.115.32 1.858 1.05 2.137 2.147.093.275.093.595.14.869.882 0 1.672.274 2.276.914.65.64.882 1.417.929 2.24 2.23.091 3.344 1.6 3.298 3.2zm13.053-7.633s.046-.091.093-.091c.092-.137.185-.229.278-.366 1.347-1.966 1.951-4.114 1.58-6.49-.465-2.926-1.951-5.211-4.646-6.583-3.437-1.782-8.129-1.188-11.102 1.509-2.23 2.01-4.273 4.16-6.456 6.262v.091c1.393 1.006 3.483.777 4.83-.503 1.255-1.188 2.463-2.422 3.717-3.656.65-.64.975-.64 1.626 0l4.645 4.57c1.765 1.692 3.577 3.474 5.435 5.257zm-19.51 2.788c-.186.092-.511.137-.743.32-.883.777-1.719 1.6-2.509 2.468-.51.595-.418 1.417.186 1.966.557.549 1.44.549 1.997.046.79-.732 1.58-1.509 2.323-2.286.465-.457.557-1.005.279-1.6-.279-.548-.743-.822-1.533-.914zm5.017 4.754c-.047 0-.093-.046-.093-.046 0-.64-.325-1.097-.93-1.325-.603-.275-1.16-.183-1.625.274-.743.686-1.486 1.417-2.183 2.148-.65.64-.65 1.509-.093 2.103.65.64 1.533.64 2.183 0 .743-.686 1.44-1.371 2.137-2.103.232-.32.371-.731.604-1.051zm-2.23 5.21c.093.64.465 1.19 1.022 1.418.604.228 1.161.137 1.626-.32.743-.732 1.533-1.463 2.276-2.24.604-.594.557-1.463 0-2.011-.604-.594-1.487-.64-2.09-.046-.79.732-1.533 1.463-2.277 2.24-.232.274-.371.64-.557.96zm-9.662-9.507c.093.686.418 1.143.976 1.417.603.275 1.16.183 1.625-.274.79-.731 1.533-1.508 2.277-2.24.603-.594.557-1.462 0-2.01-.604-.595-1.487-.64-2.09-.047-.744.732-1.534 1.463-2.23 2.24-.28.229-.419.594-.558.914z"/>
    </g>
    <defs>
        <clipPath id="clip0">
            <path fill="#fff" d="M0 0H36V32.727H0z" transform="translate(12 14)"/>
        </clipPath>
    </defs>
</svg>
