<svg xmlns="http://www.w3.org/2000/svg" width="80" height="80" fill="none" viewBox="0 0 80 80">
    <path fill="#000" fill-opacity=".6" d="M62.322 17.588h-3.033V12.2c0-.473-.385-.858-.858-.858H29.582c-.226 0-.447.092-.609.253-.008.009-.016.018-.015.02l-.024.019-11.757 11.655c-.039.038-.073.081-.107.131-.161.162-.25.377-.25.605v39.781c0 .473.385.859.858.859h5.49V67.8c0 .473.386.858.858.858h38.296c.473 0 .858-.385.858-.858V18.446c0-.473-.385-.858-.858-.858zm-42.6 5.595l9.004-8.927.01 8.996-9.015-.07zm41.742-3.879v47.638h-36.58v-2.277h33.547c.473 0 .858-.386.858-.859V19.304h2.175zm-31.023-6.246h27.131v49.89H18.536V24.89l11.048.084h.027c.217 0 .426-.088.588-.25.163-.162.253-.378.253-.609l-.011-11.057z"/>
    <path fill="#000" fill-opacity=".6" d="M52.083 54.04h-10.24c-.473 0-.858.384-.858.857s.385.858.858.858h10.24c.473 0 .858-.384.858-.858 0-.473-.385-.858-.858-.858zM38.566 54.04H23.617c-.473 0-.858.384-.858.857s.385.858.858.858h14.95c.473 0 .857-.384.857-.858 0-.473-.384-.858-.858-.858zM22.76 50.187c0 .473.384.858.857.858h28.466c.473 0 .858-.385.858-.858s-.385-.858-.858-.858H23.617c-.473 0-.858.385-.858.858zM35.29 46.335h16.793c.473 0 .858-.385.858-.858s-.385-.858-.858-.858H35.29c-.473 0-.858.385-.858.858s.385.858.858.858zM23.617 46.335h5.427c.473 0 .858-.385.858-.858s-.385-.858-.858-.858h-5.427c-.473 0-.858.385-.858.858s.385.858.858.858z"/>
    <path fill="#000" fill-opacity=".6" fill-rule="evenodd" d="M45.242 19c-4.14 0-7.492 3.36-7.492 7.5 0 4.14 3.352 7.5 7.492 7.5 4.148 0 7.508-3.36 7.508-7.5 0-4.14-3.36-7.5-7.508-7.5zM46 27.25v-4.5h-1.5v4.5H46zm0 3v-1.5h-1.5v1.5H46zm-6.75-3.75c0 3.315 2.685 6 6 6s6-2.685 6-6-2.685-6-6-6-6 2.685-6 6z" clip-rule="evenodd"/>
</svg>
