<svg xmlns="http://www.w3.org/2000/svg" width="60" height="61" fill="none" viewBox="0 0 60 61">
    <g clip-path="url(#clip0)">
        <g fill="#000" fill-opacity=".6" clip-path="url(#clip1)">
            <path d="M25.68 26.185c-1.575.63-2.97 2.475-2.385 5.04.99 4.275 6.255 6.435 6.48 6.525.045 0 .09.045.18.045s.135 0 .18-.045c.225-.09 5.535-2.295 6.48-6.525.585-2.565-.81-4.41-2.385-5.04-1.53-.63-3.15-.135-4.275 1.215-1.08-1.35-2.7-1.845-4.275-1.215zm4.68 2.205c1.035-1.665 2.52-1.8 3.555-1.35 1.215.495 2.295 1.935 1.845 4.005-.81 3.375-4.905 5.4-5.805 5.805-.9-.405-4.995-2.43-5.805-5.85-.45-2.025.63-3.51 1.845-4.005.315-.135.675-.225 1.035-.225.855 0 1.8.405 2.52 1.575.18.315.63.315.81.045z"/>
            <path d="M41.61 16.69c.225 1.575 1.575 2.79 3.195 2.79 1.755 0 3.24-1.44 3.24-3.24C48 14.44 46.56 13 44.805 13c-1.62 0-2.97 1.215-3.195 2.79h-4.365c-.18 0-.315.09-.405.27l-2.745 5.58c-1.26-.54-2.61-.855-4.05-.855s-2.835.315-4.05.855l-2.835-5.625c-.09-.135-.225-.27-.405-.27H18.39C18.165 14.215 16.86 13 15.24 13c-1.8 0-3.24 1.44-3.24 3.24 0 1.755 1.44 3.24 3.24 3.24 1.62 0 2.97-1.215 3.195-2.79h4.095L25.14 22c-3.06 1.665-5.175 4.86-5.355 8.55h-1.35c-.225-1.575-1.575-2.79-3.195-2.79-1.8 0-3.24 1.485-3.24 3.24 0 1.755 1.44 3.24 3.24 3.24 1.62 0 2.97-1.215 3.195-2.79h1.35c.18 3.915 2.565 7.29 5.985 8.865l-3.195 5.04h-4.14c-.225-1.575-1.575-2.79-3.195-2.79-1.755 0-3.24 1.44-3.24 3.24C12 47.56 13.44 49 15.24 49c1.62 0 2.97-1.215 3.195-2.79H22.8c.135 0 .315-.09.36-.225l3.42-5.355c1.08.36 2.205.585 3.42.585 1.215 0 2.34-.225 3.42-.585l3.42 5.355c.09.135.225.225.36.225h4.365C41.79 47.785 43.14 49 44.76 49c1.755 0 3.24-1.44 3.24-3.24 0-1.755-1.44-3.24-3.24-3.24-1.62 0-2.97 1.215-3.195 2.79h-4.14l-3.195-5.04c3.42-1.53 5.85-4.905 5.985-8.82h1.35c.225 1.575 1.575 2.79 3.195 2.79C46.515 34.24 48 32.8 48 31c0-1.755-1.44-3.24-3.24-3.24-1.62 0-2.97 1.215-3.195 2.79h-1.35c-.18-3.69-2.295-6.885-5.355-8.55l2.655-5.31h4.095zm3.195-2.79c1.26 0 2.295 1.035 2.295 2.34s-1.035 2.34-2.34 2.34-2.34-1.035-2.34-2.34 1.08-2.34 2.385-2.34zM15.24 18.535c-1.305 0-2.34-1.035-2.34-2.295s1.035-2.34 2.34-2.34 2.34 1.035 2.34 2.34-1.08 2.295-2.34 2.295zm0 29.565c-1.305 0-2.34-1.035-2.34-2.34s1.035-2.34 2.34-2.34 2.34 1.035 2.34 2.34-1.08 2.34-2.34 2.34zm29.565-4.635c1.26 0 2.34 1.035 2.34 2.34s-1.08 2.295-2.34 2.295c-1.26 0-2.34-1.035-2.34-2.34s1.035-2.295 2.34-2.295zM15.24 33.34c-1.305 0-2.34-1.08-2.34-2.34 0-1.26 1.035-2.34 2.34-2.34s2.34 1.035 2.34 2.34-1.08 2.34-2.34 2.34zm29.565-4.68c1.26 0 2.34 1.035 2.34 2.34s-1.035 2.34-2.34 2.34-2.34-1.035-2.34-2.34 1.035-2.34 2.34-2.34zM39.36 31c0 5.13-4.185 9.315-9.36 9.315S20.685 36.13 20.685 31 24.87 21.685 30 21.685 39.36 25.87 39.36 31z"/>
            <path d="M30.36 28.39c1.035-1.665 2.52-1.8 3.555-1.35 1.215.495 2.295 1.935 1.845 4.005-.81 3.375-4.905 5.4-5.805 5.805-.9-.405-4.995-2.43-5.805-5.85-.45-2.025.63-3.51 1.845-4.005.315-.135.675-.225 1.035-.225.855 0 1.8.405 2.52 1.575.18.315.63.315.81.045z"/>
        </g>
    </g>
    <defs>
        <clipPath id="clip0">
            <path fill="#fff" d="M0 0H60V60H0z" transform="translate(0 .52)"/>
        </clipPath>
        <clipPath id="clip1">
            <path fill="#fff" d="M0 0H36V36H0z" transform="translate(12 13)"/>
        </clipPath>
    </defs>
</svg>
