<svg xmlns="http://www.w3.org/2000/svg" width="722" height="544" fill="none" viewBox="0 0 722 544">
    <path fill="#41B5C2" d="M370 544c194.404 0 352-145.507 352-325S564.404-106 370-106 18 39.507 18 219s157.596 325 352 325z"/>
    <path fill="#424951" fill-rule="evenodd" d="M419.911 266.253c0 2.553-.16 5.265-.479 7.818-2.074 15.315-10.529 29.195-23.452 37.97-7.498 4.467-16.911 7.339-27.919 8.934-5.903.798-11.806 1.117-17.709 1.117-3.032 0-6.063 0-9.254-.159-7.019-.319-14.358-.958-22.335-1.915-59.509-7.817-20.262-122.686-27.122-134.332-6.86-11.806-3.031-16.752-3.031-16.752 6.86 9.732 38.927 35.099 73.388 40.363 6.541.958 13.082 2.394 19.304 4.468h.16c2.393.638 4.786 1.595 7.02 2.712h.159c18.188 8.455 30.951 27.281 31.11 49.298.16.159.16.319.16.478z" clip-rule="evenodd"/>
    <path fill="#424951" fill-rule="evenodd" d="M296.905 167.817c0 5.743-4.626 10.37-10.37 10.37-5.743 0-10.37-4.627-10.37-10.37 0-5.744 4.627-10.37 10.37-10.37 5.744 0 10.37 4.626 10.37 10.37z" clip-rule="evenodd"/>
    <path fill="#000" fill-rule="evenodd" d="M293.077 159.201c.319 0 .479.479.16.798-3.989 4.308-10.37 5.265-15.476 2.393 0 0-.319-.319-.159-.479.159-.478.957 0 1.595.32 4.627 2.074 10.211.957 13.721-2.872 0-.16-.001-.16.159-.16zM296.427 163.828c.319 0 .479.479.16.798-5.265 5.584-13.88 6.541-20.262 2.393-.319-.16-.319-.638 0-.798.319-.159.957.479 1.595.798 6.063 3.191 13.402 1.914 18.188-3.031 0-.16.159-.16.319-.16zM287.812 178.186l.638.638c6.063 6.222 13.083 11.487 20.262 16.274 13.88 9.093 29.196 16.273 45.469 19.463 2.393.479 4.786.798 7.179 1.277 5.105.957 10.051 2.233 14.837 3.829.639.159 1.277.478 1.915.638 1.755.638 3.669 1.436 5.424 2.233 0 0 .957.479 1.755.958 17.709 9.253 29.196 28.717 29.196 49.138 0 2.872-.16 5.743-.638 8.615-2.234 14.678-10.53 28.398-22.974 36.854l-.957.638-.479.319c-9.572 5.265-20.58 7.817-31.429 8.775-14.997 1.436-30.153.319-44.99-1.755-6.701-.958-13.242-3.351-18.347-7.499-8.616-7.179-12.764-18.666-14.359-30.153-1.755-11.487-1.276-23.133-.319-34.62 1.276-14.837 3.829-29.674 6.062-44.352.639-4.467 1.277-8.934 1.277-13.561 0-1.595 0-3.35-.638-4.626v-.16c0-.16 0-.16.159-.319l.16-.16h.319c.159.16.319.479.478.798.798 1.915.638 4.148.479 6.382-.479 8.296-2.074 16.592-3.35 24.888-2.872 18.028-5.425 36.215-4.627 54.403.319 7.977 1.436 16.114 3.988 23.612 2.553 7.339 6.701 14.199 13.083 18.666 4.786 3.35 10.37 5.105 16.113 5.903 17.071 2.393 34.461 3.669 51.532.957 8.615-1.276 16.911-3.669 24.569-7.977 14.518-9.572 23.931-26.005 24.25-44.352.319-13.401-4.148-26.324-12.604-36.694-4.786-5.903-10.849-10.53-17.709-13.88 0 0-1.117-.638-2.233-.957-1.436-.638-3.032-1.276-4.627-1.755 0 0-.319-.16-.638-.16-6.222-2.074-12.763-3.51-19.304-4.626-19.943-3.351-38.769-12.923-54.723-24.729-4.945-3.669-9.732-7.658-14.039-11.965-.16-.16-.319-.32-.319-.639l.159-.319z" clip-rule="evenodd"/>
    <path fill="#000" fill-rule="evenodd" d="M281.272 178.187c1.755 2.712 4.148 5.105 6.541 7.498 6.7 6.541 14.199 12.285 22.176 17.39 12.923 8.296 26.962 14.837 42.118 17.868 6.701 1.277 13.402 2.872 19.783 5.265.16.16 1.277.479 2.074.798 1.915.638 3.67 1.436 5.425 2.393 0 0 .957.479 1.755.957 11.806 6.701 20.899 17.869 25.207 30.791 2.074 6.223 2.872 12.604 2.712 19.145v.16c-.159 17.868-10.37 35.896-25.686 45.469h-.159c-14.518 7.817-32.068 8.934-48.341 8.296-9.572-.479-18.985-1.436-28.398-3.191-7.977-1.276-15.475-4.627-20.9-10.689-6.7-7.499-9.732-17.709-11.008-27.92-1.436-11.487-.798-23.133.479-34.62 1.435-13.082 3.829-26.005 6.222-38.928 1.116-6.062 2.393-12.284 2.552-18.347 0-1.755.16-3.51-.638-5.105-2.074-3.988-3.988-8.456-3.51-13.242.16-1.436.479-2.871 1.277-3.988l.319-.479v.479zm-.319.957c-1.436 2.712-.958 6.222 0 9.413.638 2.233 1.595 4.467 2.712 6.541 0 .16.159.16.159.319.638 1.595.638 3.35.479 5.265-.319 6.541-1.595 12.923-2.872 19.464-3.669 20.261-7.658 40.523-7.179 61.103.159 10.211 1.436 20.581 5.743 29.834 3.351 7.02 8.935 13.083 16.114 16.273 3.669 1.596 7.498 2.553 11.487 3.191 16.432 2.712 33.024 4.148 49.776 2.074 8.615-1.116 17.23-3.191 24.888-7.339 0 0 .958-.478 1.596-.957 12.125-8.136 20.58-21.378 23.133-35.737.479-2.712.798-5.424.798-8.296.319-12.763-3.67-25.207-11.487-35.418-4.786-6.062-10.689-11.167-17.549-14.677l-.16-.16s-1.117-.478-2.074-.957c-1.436-.638-3.031-1.276-4.467-1.755l-.638-.319c-6.222-2.234-12.604-3.989-19.145-5.105-19.304-3.829-37.492-13.242-53.127-25.208-6.062-4.626-12.125-9.732-16.911-15.635-.319-.638-.798-1.276-1.276-1.914z" clip-rule="evenodd"/>
    <path fill="#000" fill-rule="evenodd" d="M282.707 177.389l.159.16v.159c1.277 3.191 3.191 6.222 5.106 9.094 5.105 7.658 11.167 14.837 17.549 21.378 10.849 11.009 23.452 20.741 37.492 26.963 6.222 2.871 12.444 5.903 18.187 9.572 2.234 1.436 4.467 3.031 6.541 4.627 0 0 .798.638 1.436 1.276 10.211 9.094 16.752 22.336 18.188 36.056.638 6.382.159 12.763-1.276 18.985v.16c0 .159 0 .319-.32.638h-.478s-.16-.16-.16-.319c0 0 .479-1.915.638-3.35 2.234-11.647.639-23.612-4.307-34.142-3.35-7.179-8.137-13.401-14.199-18.507 0 0 .159.16-.16-.159 0 0-.957-.798-1.595-1.276-1.276-.958-2.712-1.915-4.148-2.872l-.638-.479c-5.584-3.51-11.487-6.7-17.55-9.253-18.347-8.137-34.301-21.857-47.064-37.173-4.946-5.903-9.732-11.965-13.082-18.985-.319-.638-.638-1.436-.957-2.074v-.16l.159-.319h.479zM310.786 179.303c.16 0 .319 0 .319.319v.16c.639 1.117 1.755 2.074 2.872 2.872 3.829 3.35 8.137 6.062 12.763 8.455 14.997 7.977 31.908 12.125 48.82 14.359 3.35.319 6.541.957 9.731 1.755 11.168 2.871 21.538 8.774 28.399 18.187 7.817 10.53 10.689 24.569 9.731 37.652-.159 1.755-.319 3.669-.638 5.424-.797 5.265-2.233 10.37-3.988 15.316v-.16l-.16.319c-.159 0-.159.16-.319.16l-.319-.16-.159-.159v-.16c5.264-14.039 6.7-29.993 2.074-44.192-.16-.638-.479-1.436-.798-2.074-3.191-8.775-9.094-16.273-16.592-21.538-7.818-5.425-17.55-8.296-26.962-9.573-17.709-2.393-35.099-6.7-50.734-15.315-4.627-2.553-9.094-5.425-12.763-8.935-.638-.638-1.277-1.276-1.755-1.914 0-.319-.16-.957.478-.798z" clip-rule="evenodd"/>
    <path fill="#E5E7EA" fill-rule="evenodd" d="M149.172 437.119v9.892c-4.627 0-5.424 3.51-8.615 4.946-.798.319-1.755.478-2.712.478-5.584 0-5.584-5.424-11.328-5.424-5.743 0-5.583 5.424-11.327 5.424-5.584 0-5.584-5.424-11.327-5.424-5.584 0-5.584 5.424-11.328 5.424-5.743 0-5.583-5.424-11.327-5.424-5.743 0-5.584 5.424-11.327 5.424-5.744 0-5.584-5.424-11.328-5.424-5.583 0-5.583 5.424-11.327 5.424-5.743 0-5.584-5.424-11.327-5.424v-9.892h113.273z" clip-rule="evenodd"/>
    <path fill="#524B5E" fill-rule="evenodd" d="M149.172 412.232v28.398H36.536v-7.02c0-5.584 2.075-11.008 6.063-14.996 1.276-1.277 2.712-2.553 4.467-3.51 2.074-1.117 4.148-2.074 6.541-2.393 1.117-.16 2.393-.319 3.51-.319l92.055-.16z" clip-rule="evenodd"/>
    <path fill="#000" fill-rule="evenodd" d="M53.608 410.477c.16 0 .32.159.32.319v14.837c0 .479-.799.638-.799 0v-14.837c0-.16.16-.319.479-.319zM47.066 410.477c.16 0 .32.159.32.319v14.837c0 .479-.798.638-.798 0v-14.837c0-.16.16-.319.478-.319zM149.331 436.641l.16.159v.319l-.16.16H36.537l-.32-.16c0-.159-.159-.159-.159-.319l.16-.319.319-.159 112.794.319z" clip-rule="evenodd"/>
    <path fill="#FF6400" fill-rule="evenodd" d="M271.38 235.302l-25.686 54.243c-2.234-1.117-22.176-11.327-42.757-29.674-30.153-26.803-47.702-57.116-49.617-89.821h58.551c3.51 18.666 17.55 33.663 29.196 44.192 15.157 13.402 30.153 21.06 30.313 21.06z" clip-rule="evenodd"/>
    <path fill="#C0A58D" fill-rule="evenodd" d="M215.86 129.687c-3.35-1.436-5.743.159-7.498 3.031-1.596 2.552-4.308 5.743-4.308 6.222 0 .319-3.191-1.276-4.308-1.595-3.35-.639-6.381-3.51-8.296-5.425-3.988-4.627-7.498-9.572-10.21-14.997-1.276-2.552-4.308-3.669-7.02-2.393 0 0-.159 0-.159.16-2.553 1.436-3.51 4.627-2.234 7.339 2.393 4.467.479 1.755-2.074-4.467-1.117-2.713-4.148-3.989-6.701-2.872h-.159c-2.553 1.117-3.829 3.988-2.872 6.701l-1.436-3.829c-.957-2.713-3.829-4.148-6.7-3.191h-.16c-2.234.957-3.669 3.191-3.35 5.743-.16-.638-.479-1.436-.639-2.233-.797-2.713-3.669-4.467-6.541-3.67h-.159c-2.872.957-4.308 3.989-3.51 6.701 1.755 6.062 4.308 11.965 7.339 17.549 2.552 4.627 5.584 9.094 9.094 13.083 6.541 8.136 7.817 18.347 7.817 18.347h49.936c-.798-3.989-.957-14.678.957-20.262 1.436-4.308 4.467-10.849 5.265-12.604 1.436-2.712.638-6.062-2.074-7.338z" clip-rule="evenodd"/>
    <path fill="#000" fill-rule="evenodd" d="M182.516 133.037c.159 0 .319.32.319.479 0 .16-.16.319-.319.319h-31.43c-.478 0-.478-.798 0-.798h31.43z" clip-rule="evenodd"/>
    <path fill="#000" fill-rule="evenodd" d="M159.701 120.275c.16 0 .319 0 .319.319 1.755 4.467 4.148 8.774 6.701 12.763v.319c0 .159-.16.319-.479.319-.159 0-.159 0-.319-.16-2.712-3.988-4.946-8.296-6.86-12.763v-.478c.319-.16.479-.319.638-.319zM148.374 119.954c.159 0 .319 0 .319.319 1.595 4.467 3.829 8.934 6.222 12.923v.319c-.16.159-.319.319-.479.159l-.159-.159c-2.553-4.148-4.627-8.456-6.222-13.082-.16.319-.319-.479.319-.479zM171.348 119.954c.16 0 .16 0 .32.16 2.074 4.626 4.786 8.934 7.817 12.922 0 0 .16.319-.16.638-.319.16-.638-.159-.797-.478-2.872-3.989-5.425-8.137-7.499-12.604-.159.16-.319-.638.319-.638zM207.564 133.516c.159 0 .159 0 .319.159.16.16.16.319 0 .479l-3.51 5.105c-.159.319-.319.16-.479.16-.159 0-.319-.319-.319-.479v-.16l3.51-5.105c.16 0 .319-.159.479-.159z" clip-rule="evenodd"/>
    <path fill="#000" fill-rule="evenodd" d="M197.672 136.866c2.234 0 4.468.639 6.382 1.755.16.16.479.639 0 .798-.159 0-.638-.159-.957-.319-4.467-2.234-9.732-1.595-13.561 1.436-3.35 2.872-5.105 7.02-4.786 11.487 0 0 0 .319-.16.478-.159.16-.638 0-.638-.478-.319-4.946 2.074-10.211 6.222-12.923 2.234-1.436 4.946-2.234 7.498-2.234z" clip-rule="evenodd"/>
    <path fill="#E5E7EA" fill-rule="evenodd" d="M44.035 301.99l-9.253 2.871c-1.595-5.584-6.7-3.988-8.296-9.572-1.596-5.584 3.35-7.179 1.755-12.604-1.596-5.584-6.7-3.988-8.296-9.572-1.596-5.584 3.35-7.179 1.755-12.763-1.596-5.584-6.7-3.989-8.296-9.573-1.596-5.584 3.35-7.179 1.755-12.603-1.596-5.425-6.701-3.989-8.296-9.573-1.596-5.584 3.35-7.179 1.754-12.603-1.595-5.584-6.7-3.989-8.296-9.573-1.595-5.584 3.35-7.179 1.755-12.603l9.254-2.872 32.705 111.04z" clip-rule="evenodd"/>
    <path fill="#524B5E" fill-rule="evenodd" d="M7.979 191.907l32.705 111.2 26.324-8.296-26.643-90.779c-3.35-11.327-14.837-17.549-25.686-14.199l-6.7 2.074z" clip-rule="evenodd"/>
    <path fill="#000" fill-rule="evenodd" d="M40.525 199.725c.16 0 .32.319.32.478 0 .16-.16.16-.16.319l-13.72 4.308h-.32c-.16-.16-.319-.319-.16-.638l.16-.16 13.72-4.307c0-.16.16-.16.16 0zM38.61 193.183c.16 0 .32.319.32.479 0 .16-.16.16-.32.319l-13.72 4.308c-.479.159-.479-.16-.479-.319 0-.16.16-.319.32-.479l13.72-4.308h.16zM11.489 190.472l.16.319L44.353 301.99v.319l-.319.16h-.16c-.159 0-.159 0-.319-.16v-.159l-32.705-111.2v-.159c0-.16 0-.16.16-.319h.478z" clip-rule="evenodd"/>
    <path fill="#D3D7DC" fill-rule="evenodd" d="M309.988 302.787l-23.772 32.228-34.46 46.426-99.393-80.728-65.73 1.277-46.108.797v-98.914L167.2 201.48c10.848-.16 21.378 3.35 29.993 10.21l112.795 91.097z" clip-rule="evenodd"/>
    <path fill="#000" fill-rule="evenodd" d="M166.242 251.575l42.278 22.336v10.37l-42.278-32.706z" clip-rule="evenodd"/>
    <path fill="#9E3492" d="M315.572 181.218c-14.837-6.7-23.611-18.187-26.483-20.261l-.957 22.973-26.644 104.818 54.084-107.53z"/>
    <path fill="#FF6400" fill-rule="evenodd" d="M341.098 259.712v67.007H207.404v-63.338c0-27.281 21.378-49.298 47.862-49.298h41.799c21.857 0 40.045 16.433 43.555 37.971.319 2.552.478 5.105.478 7.658z" clip-rule="evenodd"/>
    <path fill="#D3D7DC" fill-rule="evenodd" d="M242.663 310.445l-72.431-55.52c-12.444-9.572-28.877-12.444-43.714-7.339-14.837 5.106-26.324 17.231-30.95 32.706l-38.45 131.939 91.895 28.399 18.666-64.135 66.528 51.212v-.16c11.487 8.615 25.527 13.083 39.726 13.083 36.853 0 66.847-29.994 66.847-66.848v-63.337h-98.117z" clip-rule="evenodd"/>
    <path fill="#000" fill-rule="evenodd" d="M341.258 334.057c.16 0 .32.319.32.479 0 .16-.16.319-.32.319h-30.791c-.478 0-.478-.798 0-.798h30.791z" clip-rule="evenodd"/>
    <path fill="#000" fill-rule="evenodd" d="M334.717 314.115c.319 0 .319.159.319.319v19.783c0 .478-.798.638-.798 0v-19.783c-.159 0 0-.319.479-.319-.159 0-.159 0 0 0zM328.016 314.115c.319 0 .319.159.319.319v19.783c0 .478-.319.478-.479.319-.159 0-.319-.16-.319-.319v-19.783s.16-.319.479-.319zM321.476 313.317c.319 0 .319.16.319.479v20.74c0 .479-.798.479-.798 0v-20.74c0-.479.159-.479.479-.479zM314.934 313.317c.32 0 .32.16.32.479v20.74c0 .479-.798.638-.798 0v-20.74c0-.479.159-.479.478-.479zM292.279 173.081s.479.319.798.479c16.911 11.487 35.737 20.261 56.158 22.973 10.849 1.436 22.017.958 33.025.479 8.136-.319 16.592-.957 23.931 2.872 4.467 2.393 7.977 6.381 10.529 10.849l.16.319.159.159v.319l-.159.16h-.479l-.797-1.436c-3.032-5.105-7.339-9.413-13.083-11.168-5.903-1.914-12.125-1.755-18.187-1.436-9.094.319-18.188.957-27.122.479-16.433-1.117-32.706-5.903-47.383-13.721-5.903-3.031-11.487-6.541-17.071-10.21-.319-.16-.479-.319-.638-.479v-.159-.319l.159-.16z" clip-rule="evenodd"/>
    <path fill="#C0A58D" fill-rule="evenodd" d="M286.536 187.281l-28.079-1.117-8.296 27.919c-.479 1.436-.638 2.872-.638 4.308 0 7.658 6.062 14.039 13.561 14.039 6.222 0 11.486-4.307 13.082-10.37l10.37-34.779z" clip-rule="evenodd"/>
    <path fill="#FF6400" fill-rule="evenodd" d="M341.099 261.467v9.731c0 8.775-1.755 17.55-5.425 25.686-2.074 4.787-4.786 9.413-7.977 13.402-4.626 5.903-9.731 11.327-15.475 16.273-4.307 3.669-8.775 6.86-13.561 9.732-17.549 10.21-33.024 11.327-39.247 11.327h-2.393c-9.093-.638-17.23-5.424-22.335-12.923-1.596-2.552-3.031-5.264-3.829-7.977-1.755-5.903-1.915-12.125-.16-18.028l21.538-71.793h61.104l-2.393 7.658 29.355 9.413c.638 2.393.798 4.946.798 7.499z" clip-rule="evenodd"/>
    <path fill="#000" fill-rule="evenodd" d="M250.161 214.083c.638.16.159 1.117 0 2.074-.798 5.105 1.276 10.53 5.424 13.401 3.191 2.234 7.339 3.032 11.168 1.915 0 0 .479-.16.638.159.16.32.16.479-.478.639-5.903 1.595-12.764-1.117-15.795-6.701-1.914-3.35-2.393-7.498-1.276-11.168-.16 0-.16-.478.319-.319zM253.671 202.596l16.433 25.526 11.168-21.857-27.601-3.669z" clip-rule="evenodd"/>
    <path fill="#C0A58D" fill-rule="evenodd" d="M251.916 194.141h-4.307c-2.393 0-4.467-1.915-4.467-4.467v-.16c0-2.393 1.914-4.467 4.467-4.467h4.307v9.094z" clip-rule="evenodd"/>
    <path fill="#000" fill-rule="evenodd" d="M249.203 187.6c.479 0 .479.797 0 .797-1.276 0-2.871-.159-2.871 1.277 0 0-.16.478-.479.478-.478 0-.478-.957 0-1.755.319-.478.957-.797 1.596-.797.638 0 1.276-.16 1.754 0z" clip-rule="evenodd"/>
    <path fill="#C0A58D" fill-rule="evenodd" d="M286.217 188.398c0 .638 0 1.435-.16 2.074 0 .797-.159 1.595-.319 2.233-1.914 8.775-9.572 15.476-18.666 15.476-10.53 0-19.145-8.935-19.145-19.783 0-4.946 1.755-9.892 5.105-13.561.16-.319.479-.479.639-.798 2.552-2.553 5.743-4.308 9.412-5.105.16 0 .32 0 .479-.16.319 0 .798-.159 1.117-.159.638-.16 1.276-.16 2.074-.16h.479c10.37.16 18.985 8.934 18.985 19.943z" clip-rule="evenodd"/>
    <path fill="#424951" fill-rule="evenodd" d="M286.217 188.398c0 .638 0 1.435-.159 2.074 0 .797-.16 1.595-.32 2.233-11.806-1.755-21.059-11.646-22.176-23.931.319 0 .798-.159 1.117-.159.638-.16 1.276-.16 2.074-.16h.479c8.774 0 16.273 6.222 18.506 14.518.16 1.915.479 3.67.479 5.425z" clip-rule="evenodd"/>
    <path fill="#000" fill-rule="evenodd" d="M267.55 168.294c.319 0 .319.16.319.479 1.914 8.615 8.296 15.954 16.592 18.985l.638.16c.319.159.16.957-.478.638-8.296-2.872-14.997-10.051-17.231-18.507 0-.159 0-.319-.159-.478 0-.479-.479-1.277.319-1.277z" clip-rule="evenodd"/>
    <path fill="#000" fill-rule="evenodd" d="M272.815 169.411c.319 0 .319.16.479.479 2.074 5.424 5.903 10.051 10.849 13.242.159.159.159.319.159.478 0 .319-.478.32-.798.16-5.105-3.191-8.934-7.977-11.008-13.72 0 0-.159-.639.319-.639z" clip-rule="evenodd"/>
    <path fill="#FF6400" fill-rule="evenodd" d="M263.084 189.674c.478 2.234-.798 4.308-3.031 4.786-2.074.479-4.148-.957-4.627-3.031l7.658-1.755z" clip-rule="evenodd"/>
    <path fill="#000" fill-rule="evenodd" d="M254.468 182.972c-.319.639-.957 1.117-1.595.798-.479-.319-.638-1.117-.319-1.755.319-.798.957-1.117 1.595-.798.479.32.638 1.117.319 1.755zM265.316 186.802c-.319.638-.957 1.116-1.595.797-.479-.319-.638-1.116-.319-1.755.319-.797.957-1.116 1.595-.797.479.159.638.957.319 1.755zM259.733 178.027c.159 0 .319.319.319.479v.159l-4.308 9.094 2.553 1.276c.16.16.16.319.16.319 0 .16-.16.479-.479.319h-.16l-2.871-1.435c-.16-.16-.319-.319-.16-.479l4.467-9.413c.16-.159.319-.319.479-.319z" clip-rule="evenodd"/>
    <path fill="#424951" fill-rule="evenodd" d="M255.904 177.549l-2.552.159c-.479 0-.958-.319-.958-.797 0-.479.319-.798.798-.958l2.553-.159c.478 0 .957.319.957.798 0 .478-.319.957-.798.957zM267.072 184.09l-1.755-2.074c-.319-.319-.319-.957.16-1.276.319-.319.957-.319 1.116 0l1.755 2.074c.319.319.319.957-.159 1.276-.319.319-.798.319-1.117 0z" clip-rule="evenodd"/>
    <path fill="#000" fill-rule="evenodd" d="M276.804 170.849c.159 0 0 0 .319.159 3.191 2.074 5.743 4.786 7.339 8.137.159.478.159.797-.319.797-.319 0-.479-.478-.639-.797-1.595-3.191-3.988-5.744-7.019-7.658-.16-.16-.16-.319-.16-.479 0 0 .319-.159.479-.159zM248.088 184.728c.478 0 .319.638.319 1.116-.32 2.713-.16 5.584.638 8.137 0 0 0 .319-.16.479-.319.159-.638-.479-.797-1.117-.639-2.712-.798-5.425-.479-8.137 0-.159 0-.478.479-.478z" clip-rule="evenodd"/>
    <path fill="#FFE300" fill-rule="evenodd" d="M319.88 215.998l13.879-46.586c2.074-6.701-2.871-13.561-9.731-13.561l-26.963.16c-4.467 0-8.455 3.031-9.732 7.339l-15.794 52.648h48.341z" clip-rule="evenodd"/>
    <path fill="#000" fill-rule="evenodd" d="M295.31 158.244c.319.159.319.479 0 .957-1.276 1.277-2.233 2.712-2.712 4.467l-7.02 22.495c-.159.479-.957.32-.797-.159 2.233-7.498 4.626-14.997 6.86-22.655.638-1.914 1.755-3.669 3.191-5.105h.478zM116.466 251.894c.16 0 .319.319.319.479 0 .159-.159.319-.319.319H77.06c-.479 0-.638-.798 0-.798h39.406zM325.304 163.669c0-1.117.957-2.074 2.074-1.915 1.117 0 2.074.958 1.915 2.074 0 1.117-.958 1.915-2.074 1.915-.958 0-1.915-.957-1.915-2.074zM324.984 167.816c0-.638.479-1.117 1.117-1.117s1.117.479 1.117 1.117-.479 1.117-1.117 1.117c-.638-.16-1.117-.638-1.117-1.117z" clip-rule="evenodd"/>
    <path fill="#C0A58D" fill-rule="evenodd" d="M301.213 176.751h-7.179c-2.872 0-5.265 2.393-5.265 5.425 0 .957.319 1.914.639 2.712h-17.709c-3.032 0-5.265 2.552-5.265 5.584 0 2.871 2.393 5.264 5.265 5.264h-3.191c-3.031 0-5.265 2.553-5.265 5.584 0 2.872 2.393 5.265 5.265 5.265h-3.191c-3.031 0-5.265 2.553-5.265 5.584 0 2.872 2.393 5.265 5.265 5.265h-3.191c-3.031.159-5.265 2.552-5.265 5.584.16 2.393 1.755 4.467 4.148 5.105 2.713.638 4.148 3.031 3.032 6.382l-.798 2.393h50.095l9.094-30.313c4.627-14.837-6.222-29.834-21.219-29.834z" clip-rule="evenodd"/>
    <path fill="#000" fill-rule="evenodd" d="M281.271 195.418c.319 0 .319.159.319.159.159.16 0 .479-.319.479h-9.573c-.478 0-.638-.798 0-.798h9.573v.16zM278.08 206.106c.479 0 .479.798 0 .798h-9.413c-.319 0-.319-.16-.478-.319 0-.16.159-.479.478-.479h9.413zM274.889 216.955c.319 0 .319.159.319.319 0 .159-.159.478-.319.478h-9.413c-.319 0-.319-.159-.478-.319 0-.159.159-.478.478-.478h9.413zM141.674 244.715c10.37 0 20.421 3.51 28.717 9.892l37.173 28.557.159.16v.479s-.159.159-.319.159h-.319l-37.332-28.717c-10.849-8.296-25.527-11.646-39.087-8.296-10.849 2.553-20.741 9.253-27.441 18.507-3.35 4.626-5.903 9.731-7.499 15.315l-6.381 21.698c0 .159-.16.159-.16.159h-.16c-.159 0-.159 0-.319-.159l-.159-.319v-.16c2.074-7.339 4.308-14.678 6.382-21.857 3.828-13.242 13.241-24.569 25.526-30.472 6.382-3.191 13.401-4.786 20.421-4.786h.798v-.16zM63.977 198.927c.16 0 .16.16.32.319v94.129c0 .159 0 .159-.16.319l-.16.159h-.319l-.16-.159c0-.16-.159-.16-.159-.319v-94.129c0-.159.16-.319.32-.319h.318zM57.278 411.753l91.894 28.398.16.159v.479s-.16.16-.319.16h-.16l-91.895-28.398-.16-.16v-.16c0-.159 0-.159.16-.319l.32-.159zM59.83 387.343l87.109 26.962.16.16v.319l-.16.159h-.319l-87.109-26.962-.16-.159v-.319l.16-.16h.32z" clip-rule="evenodd"/>
    <path fill="#000" fill-rule="evenodd" d="M303.607 184.569l.159.159v.319l-.159.16c-.16 0-.16.159-.319.159-10.53 0-21.06-.159-31.589 0-2.234.16-4.148 1.755-4.627 3.829-.638 2.872 1.596 6.063 4.627 6.063v.798c-1.755 0-3.51-.319-5.105.478-2.553 1.117-3.67 4.627-2.234 7.02.798 1.436 2.393 2.393 4.148 2.553v.797c-1.755 0-3.669-.319-5.105.479-2.553 1.117-3.67 4.627-2.234 7.02.798 1.595 2.393 2.552 4.148 2.552v.798c-1.755 0-3.51-.319-5.105.319-1.436.638-2.393 1.915-2.872 3.35-.638 2.553.957 5.584 3.67 6.222.159 0 .478.16.638.16 1.117.319 1.914 1.117 2.552 2.234.958 1.914.319 4.307-.478 6.7l-.16.319h-.319l-.159-.159v-.319l.159-.319c.479-1.436 1.117-2.872.798-4.467-.16-1.596-1.436-2.872-3.031-3.351-2.234-.638-3.989-2.393-4.308-4.626-.638-3.191 2.074-6.861 5.584-6.861 0 0 .638.16 0-.159-2.393-1.755-3.191-5.425-1.595-7.977.957-1.596 2.871-2.712 4.786-2.712 0 0 .638.159 0-.16-2.393-1.755-3.191-5.424-1.596-7.977.958-1.595 2.872-2.712 4.787-2.712h.319c-2.553-1.596-3.51-5.424-1.915-7.977.957-1.755 2.872-2.712 4.786-2.712h31.749zM212.031 169.732l.159.159v.319l-.159.16c-.16 0-.16.159-.32.159H153.32c-.16 0-.16 0-.319-.159 0 0-.319-.16 0-.638l.319-.16 58.711.16z" clip-rule="evenodd"/>
    <path fill="#000" fill-rule="evenodd" d="M295.789 297.203c0 .16-.16.319-.319.319h-.16c-.159 0-.159-.159-.159-.159v-.32l18.028-59.508h-60.306l-19.624 65.411c0 .16-.159.16-.159.16h-.319l-.16-.16v-.319l19.464-66.049h62.061c-6.062 20.102-12.125 40.363-18.347 60.625zM167.839 376.494l10.37-35.737 1.116 44.512-11.486-8.775zM160.499 163.828l51.372 6.222h-49.936l-1.436-6.222zM40.845 203.553l.16.16V302.787l-.16.319c-.16 0-.16.159-.32.159h-.159c-.16 0-.16-.159-.16-.159v-99.074l.16-.319.479-.16z" clip-rule="evenodd"/>
    <path fill="#000" fill-rule="evenodd" d="M312.7 253.171c.16 0 .319.319.319.478 0 .16-.159.319-.319.319h-45.309c-.16 0-.319-.159-.319-.478 0-.16.159-.319.319-.319H312.7zM196.874 186.483c.16 0 .319.319.319.479 0 .159-.159.319-.319.319h-44.671c-.159 0-.319-.16-.319-.479 0-.159.16-.319.319-.319h44.671zM152.682 309.169c4.308 0 8.456 1.436 11.806 4.148 29.834 22.814 59.668 45.948 89.502 68.762 5.584 4.307 13.082 5.105 19.464 2.074 6.701-3.191 11.327-10.37 11.327-18.188v-23.133c0-.16 0-.16.16-.319l.319-.16.319.16.16.319v23.293c0 5.743-2.393 11.327-6.541 15.156-4.946 4.627-12.445 6.701-19.145 4.786-2.393-.638-4.627-1.755-6.541-3.35-29.834-22.814-59.668-45.947-89.502-68.762-4.467-3.35-10.37-4.626-15.795-3.35-6.7 1.595-12.284 7.02-14.199 13.88l-18.187 64.294c0 .16-.16.32-.319.32l-.319-.16-.16-.319v-.16c6.063-21.378 12.125-42.916 18.188-64.294 1.914-6.701 7.498-12.444 14.358-14.199 1.596-.479 3.35-.798 5.105-.798zM335.834 296.884l-1.436 13.561-6.701.16c3.191-4.148 5.903-8.775 8.137-13.721zM341.736 258.914l.16.16V440.47c0 .16 0 .16-.16.319l-.159.16h-.319l-.16-.16c0-.159-.159-.159-.159-.319V259.393c0-.16 0-.16.159-.319l.638-.16zM382.1 425.314c.16 0 .319.16.319.479v14.837c0 .479-.797.638-.797 0v-14.837c0-.319.159-.479.478-.479zM250.16 214.083c.16 0 .319.319.319.479 0 .16-.159.16-.319.319-11.327 1.276-22.335 7.02-29.993 15.795 0 0-.319.319-.638 0-.319-.32.478-1.117.957-1.596 7.498-8.136 17.868-13.401 28.717-14.837h.638l.319-.16c-.159 0 0 0 0 0z" clip-rule="evenodd"/>
    <path fill="#CCC" d="M556.158 283.642h-215.06v141.991h215.06V283.642z"/>
    <path fill="#fff" d="M543.076 295.289H354.34v118.698h188.736V295.289z"/>
    <path fill="#B3B3B3" d="M597 425.474H341.098v14.996H597v-14.996z"/>
    <path fill="#000" fill-rule="evenodd" d="M556.318 425.155c.159 0 .159.16.159.16v.319l-.159.159c-.16 0-.16.16-.319.16H341.896c-.159 0-.319-.16-.319-.319v-.319l.16-.16c.159 0 .159-.159.319-.159l214.262.159zM543.236 294.811l.159.159v80.089l-.159.319c-.16 0-.16.16-.319.16l-.319-.16-.16-.319v-79.451H354.341l-.319-.159-.16-.319.16-.319.319-.16 188.895.16z" clip-rule="evenodd"/>
    <path fill="#000" fill-rule="evenodd" d="M414.806 301.193l.159.159v.319l-53.924 70.357-.16.16h-.159v-.479l53.924-70.357.16-.159zM408.743 319.06l.16.16v.319l-53.925 70.357-.159.159h-.16v-.478l53.925-70.357.159-.16z" clip-rule="evenodd"/>
    <path fill="#626366" d="M473.517 333.738c-.958-.319-1.436-.798-1.436-1.595 0-.958.798-1.596 1.914-1.596.479 0 .798 0 1.277.16l.478.159s.16 0 0 .16l-.159.638h-.16l-.478-.159c-.319-.16-.639-.16-1.117-.16-.638 0-.957.319-.957.638s.159.638.797.798l.958.319c.957.319 1.435.798 1.435 1.595 0 1.117-.797 1.596-2.074 1.596-.478 0-1.116-.16-1.595-.319l-.479-.16s-.159 0 0-.159l.16-.639h.159l.479.16c.479.16.798.159 1.276.159.639 0 1.117-.159 1.117-.797 0-.319-.319-.638-.798-.798h-.797zM482.77 336.449c-.16 0-.16 0 0 0l-.798.16h-.159v-2.712-1.596c0-.159 0-.159-.16 0-.159.16-.159.479-.319.638l-.798 1.915c-.159.159-.159.479-.319.798H479.26c-.159-.319-.159-.639-.319-.798l-.798-1.915c-.159-.159-.159-.478-.319-.638 0-.159-.159-.159-.159 0 0 .479.159 1.117.159 1.596v2.871H476.867v-5.743h1.276c0 .16.16.479.16.638l.798 1.915c.159.319.319.638.319.957 0 .159.159.159.159 0 .16-.319.16-.638.319-.957l.798-1.915c.159-.159.159-.478.159-.638 0 0 .001-.16.16 0h1.276l.479 5.424z"/>
    <path fill="#F48366" d="M473.836 352.564c-.798-4.467-1.596-7.658-3.191-11.008-1.117-2.234-4.946-8.296-6.222-9.094-.479-.16-.479.478 0 1.276s1.595 3.031.957 3.191c-.319.159-2.074-4.627-5.584-6.222-.159 0-.319.638 0 1.276 1.755 2.553 3.51 5.584 2.713 5.744-.32 0-2.713-5.265-5.903-6.222-.479-.16-.319.957.797 2.393 1.755 2.233 2.712 4.467 2.234 4.786-.319.159-3.031-4.308-5.105-4.786-.639-.16-.16 1.276.797 2.712 2.872 3.829 3.351 5.265 3.191 6.062-.159.479-1.595-.957-2.233-1.276-2.075-.957-2.553-.319-2.074.16.957 1.435 5.583 4.945 7.019 12.444.479 2.233.638 7.498-.319 11.646-.798 3.829-1.914 5.424-3.191 7.498-1.435 2.394-3.509 4.468-5.903 6.063-3.031 1.914-6.7 3.031-10.21 2.712-4.148-.159-7.179-1.276-9.413-2.872 1.436 1.596 2.872 3.191 4.627 4.468 4.148 3.509 11.806 8.136 22.016 10.051 1.436-.958 2.712-2.234 3.829-3.351 2.712-2.871 4.946-5.743 6.541-9.253 1.755-3.669 3.829-7.818 4.467-13.401.798-4.946 1.277-9.413.16-14.997z"/>
    <path fill="#FDC364" d="M432.355 379.207c-2.074-1.915-5.105-5.584-6.381-8.616-2.393-5.264-2.872-10.689-2.074-16.751 1.117-7.02 2.553-11.806 5.903-20.102 0-2.393-4.308 2.552-4.627 2.074-.957-1.915 5.744-14.359 4.308-15.954-.479-.479-1.436.798-2.393 2.552-1.436 2.394-2.553 5.744-3.191 5.425-.319-.16 0-2.234.638-4.946.638-2.712 1.755-5.903.798-6.062-1.436-.16-3.51 8.934-4.786 9.412-.479.16 0-2.871.159-5.264.16-1.596.798-3.351-.479-2.713-.957.479-2.871 7.499-3.35 7.18-.159-.16-.159-1.755 0-3.351 0-1.276-.159-2.552-.638-1.276-.957 2.074-1.276 3.51-2.074 5.584-2.712 7.977-4.467 16.273-5.105 24.729-.319 3.829-.638 7.658-.319 11.486.319 3.989 1.116 7.977 2.233 11.806 1.117 3.989 3.191 7.818 5.744 11.487 2.393 3.191 5.105 6.063 8.455 8.456 4.148 2.872 7.18 3.988 10.53 4.627 3.031.478 6.062.638 9.094.319 6.381-.479 14.518-5.584 14.518-5.584-10.211-2.074-17.869-6.541-22.017-10.051-2.074-1.436-3.51-2.872-4.946-4.467z"/>
</svg>
