<svg width="40" height="41" viewBox="0 0 40 41" fill="none" xmlns="http://www.w3.org/2000/svg">
<path d="M17.7889 30.1222C17.7889 31.3444 18.7778 32.3333 20 32.3333C21.2222 32.3333 22.2111 31.3444 22.2111 30.1222H17.7889ZM27.6444 25.4667V19C27.6444 15.3889 25.1444 12.3667 21.7667 11.5667V10.7667C21.7667 9.78889 20.9778 9 20 9C19.0222 9 18.2333 9.78889 18.2333 10.7667V11.5667C14.8556 12.3667 12.3556 15.3889 12.3556 19V25.4667L10 27.8222V29H30V27.8222L27.6444 25.4667ZM24.4444 21.2278H21.1111V24.5611H18.8889V21.2278H15.5556V19H18.8889V15.6667H21.1111V19H24.4444V21.2278Z" fill="#FDCF85"/>
</svg>
