<svg width="36" height="36" viewBox="0 0 36 36" fill="none" xmlns="http://www.w3.org/2000/svg">
<path fill-rule="evenodd" clip-rule="evenodd" d="M18 0C27.9411 0 36 8.05876 36 18C36 27.9412 27.9411 36 18 36C8.05889 36 0 27.9412 0 18C0 8.05876 8.05889 0 18 0Z" fill="#41B5C2"/>
<path d="M21.238 8.43644V7H13.9078V8.43644H10V29H25.1459V8.43644H21.238ZM15.1986 8.29079H19.9472V9.87283H15.1986V8.29079ZM23.8551 27.7092H11.2908V9.72723H13.9078V11.1636H21.238V9.72723H23.8551V27.7092H23.8551Z" fill="white"/>
<path d="M14.2227 16.3715L13.6453 15.6493L12.6371 16.4553L14.2111 18.424L16.6526 15.44L15.6536 14.6226L14.2227 16.3715Z" fill="white"/>
<path d="M15.5389 20.2939L14.6181 21.2147L13.6973 20.2939L12.7846 21.2066L13.7054 22.1274L12.7846 23.0482L13.6973 23.9609L14.6181 23.0401L15.5389 23.9609L16.4517 23.0482L15.5309 22.1274L16.4517 21.2066L15.5389 20.2939Z" fill="white"/>
<path d="M17.9602 16.1213H22.435V17.4121H17.9602V16.1213Z" fill="white"/>
<path d="M17.9602 21.482H22.435V22.7728H17.9602V21.482Z" fill="white"/>
</svg>
