<svg width="36" height="36" viewBox="0 0 36 36" fill="none" xmlns="http://www.w3.org/2000/svg">
<path fill-rule="evenodd" clip-rule="evenodd" d="M18 0C27.9411 0 36 8.05876 36 18C36 27.9412 27.9411 36 18 36C8.05889 36 0 27.9412 0 18C0 8.05876 8.05889 0 18 0Z" fill="#FF5417"/>
<path d="M26.1589 11.7656H24.4927C24.7266 11.3885 24.862 10.9442 24.862 10.4688C24.862 9.10746 23.7545 8 22.3932 8C20.3727 8 18.7807 9.98536 18 11.1913C17.2194 9.98536 15.6273 8 13.6068 8C12.2455 8 11.138 9.1075 11.138 10.4688C11.138 10.9442 11.2734 11.3884 11.5073 11.7656H9.84118C8.8391 11.7656 8 12.5761 8 13.6068V14.2344C8 15.3438 8.85641 15.8438 9.25524 15.9782V26.1589C9.25524 27.1741 10.0812 28 11.0964 28H24.9037C25.9189 28 26.7448 27.1741 26.7448 26.1589V15.9803C27.1529 15.8439 28 15.3337 28 14.2344V13.6068C28 12.5899 27.1777 11.7656 26.1589 11.7656ZM22.3933 9.17188C24.1142 9.24332 24.1129 11.6948 22.3933 11.7656H19.022C19.7576 10.6502 21.0385 9.17188 22.3933 9.17188ZM13.6068 9.17188C14.9615 9.17188 16.2424 10.6502 16.978 11.7656H13.6068C11.8859 11.6942 11.8872 9.24266 13.6068 9.17188ZM25.5729 26.1589C25.5729 26.5279 25.2727 26.8282 24.9037 26.8282H11.0964C10.7273 26.8282 10.4271 26.5279 10.4271 26.1589V16.0755H25.5729V26.1589ZM26.8282 14.2344C26.8282 14.6027 26.5307 14.9036 26.1589 14.9036H9.84118C9.47793 14.9036 9.17188 14.6095 9.17188 14.2344V13.6068C9.17188 13.2324 9.47707 12.9375 9.84118 12.9375H26.1589C26.5287 12.9375 26.8282 13.2365 26.8282 13.6068V14.2344Z" fill="white"/>
<path d="M18.0001 25.1758C18.7999 25.1758 22.3516 22.6249 22.3516 19.8828C22.3516 18.5215 21.2441 17.4141 19.8829 17.4141C19.0114 17.4141 18.3993 17.8156 18.0001 18.2872C17.6008 17.8156 16.9887 17.4141 16.1173 17.4141C14.756 17.4141 13.6485 18.5216 13.6485 19.8828C13.6485 22.6284 17.2021 25.1758 18.0001 25.1758ZM16.1173 18.5859C17.0479 18.5859 17.3704 19.4311 17.4321 19.6506C17.5802 20.2479 18.4201 20.2475 18.568 19.6506C18.6302 19.4293 18.9533 18.5859 19.8829 18.5859C20.598 18.5859 21.1798 19.1677 21.1798 19.8828C21.1798 21.6746 18.8085 23.6208 18.0001 23.9837C17.192 23.6209 14.8204 21.676 14.8204 19.8828C14.8204 19.1677 15.4021 18.5859 16.1173 18.5859Z" fill="white"/>
</svg>
