<svg width="36" height="36" viewBox="0 0 36 36" fill="none" xmlns="http://www.w3.org/2000/svg">
<path fill-rule="evenodd" clip-rule="evenodd" d="M18 0C27.9411 0 36 8.05876 36 18C36 27.9412 27.9411 36 18 36C8.05889 36 0 27.9412 0 18C0 8.05876 8.05889 0 18 0Z" fill="#FEC465"/>
<path fill-rule="evenodd" clip-rule="evenodd" d="M18 8C12.48 8 8 12.48 8 18C8 23.52 12.48 28 18 28C23.52 28 28 23.52 28 18C28 12.48 23.52 8 18 8ZM17 13V15H19V13H17ZM17 17V23H19V17H17ZM10 18C10 22.41 13.59 26 18 26C22.41 26 26 22.41 26 18C26 13.59 22.41 10 18 10C13.59 10 10 13.59 10 18Z" fill="white"/>
</svg>
