<svg xmlns="http://www.w3.org/2000/svg" width="252" height="78" fill="none" viewBox="0 0 252 78">
    <g clip-path="url(#clip0)">
        <path fill="#98335B" d="M82.578 74.75c.11 0 .11 0 0 0l.11.758c0 .109 0 .109-.11.109h-2.406v2.275c0 .108 0 .108-.11.108h-.765c-.11 0-.11 0-.11-.108v-5.634c0-.108 0-.108.11-.108h3.828c.11 0 .11 0 .11.108l-.11.65s0 .109-.11.109h-2.734v1.733h2.297zM86.625 72.15c1.203 0 1.969.65 1.969 1.624 0 .759-.438 1.3-1.094 1.517-.11 0-.11.108 0 .108.437.217.656.542.766.975l.546 1.409c0 .108 0 .108-.109.108h-.766s-.109 0-.109-.108l-.437-1.084c-.329-.758-.657-1.083-1.532-1.083h-.547v2.167c0 .108 0 .108-.109.108h-.766c-.109 0-.109 0-.109-.108v-5.634c0-.108 0-.108.11-.108h2.187v.108zm-.328 2.708c.875 0 1.312-.325 1.312-.975 0-.542-.328-.867-.984-.867h-1.422v1.842h1.094zM94.61 74.966c0 1.842-.985 3.033-2.516 3.033-1.532 0-2.516-1.191-2.516-3.033 0-1.842.984-2.925 2.516-2.925 1.53 0 2.515 1.192 2.515 2.925zm-4.048 0c0 1.3.547 2.167 1.532 2.167.984 0 1.53-.759 1.53-2.167 0-1.3-.546-2.167-1.53-2.167-.985.109-1.532.867-1.532 2.167zM101.281 77.783c0 .108 0 .108 0 0l-.875.108c-.109 0-.109 0-.109-.108v-2.709c0-.541 0-1.083.109-1.625 0-.108-.109-.108-.109 0-.11.217-.219.434-.219.65l-.766 1.842c-.11.217-.218.542-.328.867 0 0 0 .108-.11.108h-.655s-.11 0-.11-.108c-.11-.325-.219-.542-.328-.867l-.766-1.842-.328-.65c0-.108-.11-.108-.11 0 .11.434.11 1.084.11 1.625v2.709c0 .108 0 .108-.11.108h-.765c-.11 0-.11 0-.11-.108v-5.634c0-.108 0-.108.11-.108h1.203c.11 0 .11 0 .11.108.11.217.11.434.219.65l.875 1.95.328.975c0 .109.11.109.11 0l.327-.975.875-1.95c.11-.216.219-.433.219-.65 0 0 0-.108.109-.108h1.203c.11 0 .11 0 .11.108v5.634h-.219zM108.719 75.617c0 1.516-.875 2.383-2.297 2.383-1.422 0-2.297-.867-2.297-2.383v-3.359c0-.108 0-.108.109-.108H105c.109 0 .109 0 .109.108v3.359c0 .975.438 1.516 1.313 1.516.765 0 1.312-.541 1.312-1.516v-3.359c0-.108 0-.108.11-.108h.765c.11 0 .11 0 .11.108v3.359zM114.625 77.783c0 .108 0 .108 0 0l-1.094.108s-.109 0-.109-.108c-.109-.325-.328-.542-.438-.867l-1.75-2.925c-.109-.217-.218-.433-.328-.542 0-.108-.109-.108-.109 0 0 .325.109.65.109 1.192v3.142c0 .108 0 .108-.109.108h-.766c-.109 0-.109 0-.109-.108v-5.634c0-.108 0-.108.109-.108h.985s.109 0 .109.108c.109.325.328.542.438.867l1.75 2.925c.109.217.218.433.328.542 0 .108.109.108.109 0-.109-.325-.109-.65-.109-1.084v-3.141c0-.109 0-.109.109-.109h.766c.109 0 .109 0 .109.109v5.525zM116.922 77.783c0 .108-.109.108 0 0l-.875.108c-.11 0-.109 0-.109-.108v-5.634c0-.108-.001-.108.109-.108h.766c.109 0 .109 0 .109.108v5.634zM121.625 75.833l-.656 1.95s0 .109-.11.109h-.984c-.109 0-.109 0-.109-.109l-.657-1.95-1.422-3.575c0-.108 0-.108.11-.108h.765s.11 0 .11.108l1.203 2.925c.219.542.328 1.084.437 1.517 0 .108.11.108.11 0 .109-.433.219-.975.437-1.517l1.203-2.925s0-.108.11-.108h.765c.11 0 .11 0 .11.108l-1.422 3.575zM127.312 74.533s.11 0 0 0l.11.759c0 .108 0 .108-.11.108h-2.297v1.733h2.954c.109 0 .109 0 .109.109v.65c0 .108 0 .108-.109.108h-3.829c-.109 0-.109 0-.109-.108v-5.634c0-.108 0-.108.109-.108h3.829c.109 0 .109 0 .109.108l-.219.65s0 .109-.109.109h-2.735v1.516h2.297zM131.469 72.15c1.203 0 1.968.65 1.968 1.624 0 .759-.437 1.3-1.093 1.517-.11 0-.11.108 0 .108.437.217.656.542.765.975l.547 1.409c0 .108 0 .108-.109.108h-.766s-.109 0-.109-.108l-.438-1.084c-.328-.758-.656-1.083-1.531-1.083h-.547v2.167c0 .108 0 .108-.109.108h-.766c-.109 0-.109 0-.109-.108v-5.634c0-.108 0-.108.109-.108h2.188v.108zm-.438 2.708c.875 0 1.313-.325 1.313-.975 0-.542-.328-.867-.985-.867h-1.422v1.842h1.094zM135.953 75.183c-.984-.434-1.422-.759-1.422-1.625 0-.975.766-1.517 1.969-1.517.437 0 .875.108 1.312.217l.438.108c.109 0 .109.108.109.108l-.219.65-.109.109-.437-.109c-.329-.108-.657-.216-1.094-.216-.547 0-.985.325-.985.758 0 .325.219.542.766.758l.875.325c.984.325 1.422.759 1.422 1.625 0 1.084-.766 1.625-2.078 1.625-.547 0-.985-.108-1.641-.325l-.437-.108c-.11 0-.11-.108-.11-.108l.219-.65s.109-.109.109 0l.438.108c.437.108.875.217 1.312.217.657 0 1.094-.217 1.094-.759 0-.325-.328-.65-.875-.758l-.656-.433zM140.656 76.808l-.437 1.084s0 .108-.11.108h-.765c-.11 0-.11 0-.11-.108l1.422-3.684.656-1.95c0-.108 0-.108.11-.108h.984c.109 0 .109 0 .109.108l.657 1.95 1.422 3.684c0 .108 0 .108-.11.108h-.765s-.11 0-.11-.108l-.437-1.084h-2.516zm2.297-.866l-.438-1.084c-.218-.541-.437-1.083-.437-1.516 0-.109-.109-.109-.109 0-.11.433-.329.975-.438 1.516l-.437 1.084h1.859zM149.297 77.024s0 .109 0 0l.109.759c0 .108 0 .108-.109.108h-3.5c-.11 0-.11 0-.11-.108v-5.634c0-.108 0-.108.11-.108h.765c.11 0 .11 0 .11.108v4.875h2.625zM156.734 77.783c0 .108 0 .108 0 0l-.875.108c-.109 0-.109 0-.109-.108V75.29h-2.625v2.492c0 .108 0 .108-.109.108h-.766c-.109 0-.109 0-.109-.108v-5.634c0-.108 0-.108.109-.108h.766c.109 0 .109 0 .109.108v2.275h2.734V72.15c0-.108 0-.108.11-.108h.765c.11 0 .11 0 .11.108v5.634h-.11zM161.219 74.533c.109 0 .109 0 0 0l.109.759c0 .108 0 .108-.109.108h-2.297v1.733h2.953c.109 0 .109 0 .109.109v.65c0 .108 0 .108-.109.108h-3.828c-.109 0-.109 0-.109-.108v-5.634c0-.108 0-.108.109-.108h3.828c.109 0 .109 0 .109.108l-.218.65s0 .109-.11.109h-2.734v1.516h2.297zM164.172 76.808l-.438 1.084s0 .108-.109.108h-.766c-.109 0-.109 0-.109-.108l1.422-3.684.656-1.95c0-.108 0-.108.109-.108h.985c.109 0 .109 0 .109.108l.656 1.95 1.422 3.684c0 .108 0 .108-.109.108h-.766s-.109 0-.109-.108l-.438-1.084h-2.515zm2.297-.866l-.438-1.084c-.219-.541-.437-1.083-.437-1.516 0-.109-.11-.109-.11 0-.109.433-.328.975-.437 1.516l-.438 1.084h1.86zM172.703 77.024s.109.109 0 0l.109.759c0 .108 0 .108-.109.108h-3.5c-.109 0-.109 0-.109-.108v-5.634c0-.108 0-.108.109-.108h.766c.109 0 .109 0 .109.108v4.875h2.625zM177.516 72.908s0 .109 0 0l-1.86.109v4.875c0 .108 0 .108-.109.108h-.766c-.109 0-.109 0-.109-.108v-4.875h-1.75c-.109 0-.11 0-.11-.109v-.65c0-.108.001-.108.11-.108h4.484c.11 0 .11 0 .11.108v.65zM182.984 77.783c0 .108 0 .108 0 0l-.875.108c-.109 0-.109 0-.109-.108V75.29h-2.625v2.492c0 .108 0 .108-.109.108h-.766c-.109 0-.109 0-.109-.108v-5.634c0-.108 0-.108.109-.108h.766c.109 0 .109 0 .109.108v2.275h2.734V72.15c0-.108 0-.108.11-.108h.765c.11 0 .11 0 .11.108v5.634h-.11zM189.437 74.75l.11.758c0 .109 0 .109-.11.109h-2.406v2.275c0 .108 0 .108-.109.108h-.766c-.109 0-.109 0-.109-.108v-5.634c0-.108 0-.108.109-.108h3.828c.11 0 .11 0 .11.108l-.219.65s0 .109-.109.109h-2.735v1.733h2.406zM194.359 74.533l.11.759c0 .108 0 .108-.11.108h-2.297v1.733h2.954c.109 0 .109 0 .109.109v.65c0 .108 0 .108-.109.108h-3.829c-.109 0-.109 0-.109-.108v-5.634c0-.108 0-.108.109-.108h3.829c.109 0 .109 0 .109.108l-.219.65s0 .109-.109.109h-2.735v1.516h2.297zM199.719 77.024s.109.109 0 0l.109.759c0 .108 0 .108-.109.108h-3.5c-.11 0-.11 0-.11-.108v-5.634c0-.108 0-.108.11-.108h.765c.11 0 .11 0 .11.108v4.875h2.625zM204.422 77.024c.109 0 .109.109 0 0l.109.759c0 .108 0 .108-.109.108h-3.5c-.11 0-.11 0-.11-.108v-5.634c0-.108 0-.108.11-.108h.765c.11 0 .11 0 .11.108v4.875h2.625zM210.328 74.966c0 1.842-.984 3.033-2.516 3.033-1.531 0-2.515-1.191-2.515-3.033 0-1.842.984-2.925 2.515-2.925 1.532 0 2.516 1.192 2.516 2.925zm-4.156 0c0 1.3.547 2.167 1.531 2.167.984 0 1.531-.759 1.531-2.167 0-1.3-.547-2.167-1.531-2.167-.875.109-1.531.867-1.531 2.167zM217.328 76.375c-.109.433-.219.975-.328 1.517 0 .108 0 .108-.109.108h-.985c-.109 0-.109 0-.109-.108l-.328-1.3-.547-1.95c0-.217-.109-.434-.109-.65 0-.109-.11-.109-.11 0 0 .216-.109.541-.109.65l-.547 1.95-.328 1.3c0 .108 0 .108-.11.108h-.984c-.109 0-.109 0-.109-.108-.11-.434-.219-.975-.328-1.517l-1.204-4.117c0-.108 0-.108.11-.108h.765c.11 0 .11 0 .11.108l.875 2.925c.109.434.219.975.219 1.409 0 .108.109.108.109 0 0-.434.109-.975.328-1.409l.875-2.925s0-.108.109-.108h.657c.109 0 .109 0 .109.108l.875 2.925c.109.434.219.975.328 1.409 0 .108.11.108.11 0 0-.434.109-.975.218-1.409l.875-2.925s0-.108.11-.108h.765c.11 0 .11 0 .11.108l-1.313 4.117zM220.609 75.183c-.984-.434-1.422-.759-1.422-1.625 0-.975.766-1.517 1.969-1.517.438 0 .875.108 1.313.217l.437.108c.11 0 .11.108.11.108l-.219.65-.11.109-.437-.109c-.328-.108-.656-.216-1.094-.216-.547 0-.984.325-.984.758 0 .325.219.542.765.758l.875.325c.985.325 1.422.759 1.422 1.625 0 1.084-.765 1.625-2.078 1.625-.547 0-.984-.108-1.64-.325l-.438-.108c-.109 0-.109-.108-.109-.108l.218-.65s.11-.109.11 0l.437.108c.438.108.875.217 1.313.217.656 0 1.094-.217 1.094-.759 0-.325-.329-.65-.875-.758l-.657-.433zM228.922 77.783c0 .108 0 .108 0 0l-.875.108c-.11 0-.11 0-.11-.108V75.29h-2.625v2.492c0 .108 0 .108-.109.108h-.766c-.109 0-.109 0-.109-.108v-5.634c0-.108 0-.108.109-.108h.766c.109 0 .109 0 .109.108v2.275h2.625V72.15c0-.108 0-.108.11-.108h.765c.11 0 .11 0 .11.108v5.634zM231.219 77.783c0 .108 0 .108 0 0l-.875.108c-.11 0-.11 0-.11-.108v-5.634c0-.108 0-.108.11-.108h.765c.11 0 .11 0 .11.108v5.634zM234.719 72.15c1.312 0 1.969.65 1.969 1.842 0 1.191-.875 1.95-2.407 1.95h-.875v1.95c0 .108 0 .108-.109.108h-.766c-.109 0-.109 0-.109-.108v-5.634c0-.108 0-.108.109-.108h2.188zm-1.313 2.925h.875c.985 0 1.422-.433 1.422-1.083 0-.65-.437-.975-1.094-.975h-1.312v2.058h.109z"/>
        <path fill="#5F2161" d="M94.39 67.707c0 .217-.109.217-.218.217H92.75c-.219 0-.219-.108-.219-.217v-9.1H81.266v9.1c0 .217-.11.217-.22.217h-1.421c-.219 0-.219-.108-.219-.217V48.316c0-.217.11-.217.219-.217h1.422c.219 0 .219.109.219.217v8.558h11.156v-8.558c0-.217.11-.217.219-.217h1.421c.22 0 .22.109.22.217v19.391h.109zM108.609 67.817c-.984.325-2.078.434-3.171.434-4.047 0-6.454-2.817-6.454-7.259 0-4.441 2.407-7.258 6.454-7.258 3.281 0 5.25 1.625 5.25 4.333 0 2.059-1.313 3.25-3.938 3.684l-5.687.975c.328 2.383 1.968 3.9 4.375 3.9.984 0 1.859-.109 2.734-.325l.875-.217c.219 0 .328 0 .328.217l.328 1.191c0 .217 0 .325-.219.325h-.875zm-2.187-7.691c1.531-.217 2.297-.975 2.297-2.059 0-1.625-1.203-2.6-3.391-2.6-2.734 0-4.375 1.842-4.484 5.525l5.578-.866zM116.266 54.167c.875-.216 1.859-.433 3.171-.433 3.61 0 5.797 2.058 5.797 5.633v8.234c0 .216-.109.216-.218.216h-.875c-.219 0-.219-.108-.329-.216l-.109-1.3c-.109-.325-.328-.325-.547 0-.984 1.191-2.515 1.841-4.594 1.841-2.953 0-4.703-1.625-4.703-4.225 0-2.491 1.75-4.225 5.141-4.225h4.375v-.325c0-2.491-1.422-3.9-3.938-3.9-.984 0-1.968.109-2.625.325l-.984.325c-.219.109-.328 0-.328-.216l-.328-1.084c-.11-.216 0-.325.219-.325l.875-.325zm2.625 7.259c-2.188 0-3.282.975-3.282 2.491 0 1.625 1.094 2.6 2.953 2.6 3.063 0 4.704-1.733 4.704-4.766v-.325h-4.375zM132.016 67.708c0 .217-.11.217-.219.217h-1.422c-.219 0-.219-.109-.219-.217V47.666c0-.216.11-.216.219-.216h1.422c.219 0 .219.108.219.216v20.042zM149.844 53.083c0 1.192-.11 2.058-.219 2.925-.11.217.109.325.328.108.984-1.408 2.516-2.383 4.703-2.383 3.172 0 5.141 2.167 5.141 5.633V67.6c0 .216-.11.216-.219.216h-1.422c-.219 0-.219-.108-.219-.216v-8.017c0-2.492-1.312-4.008-3.5-4.008-3.39 0-4.593 2.708-4.593 5.85v6.391c0 .217-.11.217-.219.217h-1.422c-.219 0-.219-.108-.219-.217v-20.15c0-.216.11-.216.219-.216h1.422c.219 0 .219.108.219.216v5.417zM168.984 57.958c-3.172-1.192-4.375-2.709-4.375-5.2 0-3.142 2.516-5.092 6.344-5.092 1.531 0 2.953.217 4.375.758l1.422.434c.219.108.219.216.219.325l-.438 1.191c-.109.109-.219.217-.328.109l-1.422-.434c-1.312-.433-2.515-.65-3.937-.65-2.625 0-4.375 1.192-4.375 3.25 0 1.3.656 2.6 3.172 3.467l4.046 1.517c2.735.975 4.375 2.383 4.375 4.983 0 3.467-2.953 5.417-7 5.417-2.187 0-3.828-.325-5.468-.975l-1.203-.434c-.11-.108-.219-.216-.11-.325l.438-1.191c.109-.217.218-.217.328-.217l1.203.433c1.422.542 2.844.867 4.922.867 2.734 0 5.031-1.3 5.031-3.683 0-1.734-1.531-2.709-3.172-3.359l-4.047-1.191zM184.625 53.083c0 1.192-.109 2.058-.219 2.925-.109.217.11.325.328.108.985-1.408 2.516-2.383 4.594-2.383 3.172 0 5.141 2.167 5.141 5.633V67.6c0 .216-.11.216-.219.216h-1.422c-.219 0-.219-.108-.219-.216v-8.017c0-2.492-1.312-4.008-3.5-4.008-3.39 0-4.593 2.708-4.593 5.85v6.391c0 .217-.11.217-.219.217h-1.422c-.219 0-.219-.108-.219-.217v-20.15c0-.216.11-.216.219-.216h1.422c.219 0 .219.108.219.216v5.417h.109zM201.141 54.167c.875-.216 1.859-.433 3.172-.433 3.609 0 5.796 2.058 5.796 5.633v8.234c0 .216-.109.216-.218.216h-.985c-.218 0-.218-.108-.328-.216l-.109-1.3c-.11-.325-.328-.325-.547 0-.984 1.191-2.516 1.841-4.703 1.841-2.953 0-4.703-1.625-4.703-4.225 0-2.491 1.75-4.225 5.14-4.225h4.375v-.325c0-2.491-1.422-3.9-3.937-3.9-.985 0-1.969.109-2.625.325l-.985.325c-.218.109-.328 0-.328-.216l-.328-1.084c-.109-.216 0-.325.219-.325l1.094-.325zm2.625 7.259c-2.188 0-3.282.975-3.282 2.491 0 1.625 1.094 2.6 2.954 2.6 3.062 0 4.703-1.733 4.703-4.766v-.325h-4.375zM222.031 55.25c0 .217-.109.217-.219.217-3.171.109-4.921 2.709-4.921 7.692v4.55c0 .217-.11.217-.219.217h-1.422c-.219 0-.219-.109-.219-.217V54.276c0-.217.11-.217.219-.217h.875c.219 0 .219.108.328.217l.219 2.166c.109.217.219.325.328.109 1.094-1.734 2.516-2.709 4.812-2.817.219 0 .219.108.219.217v1.3zM234.828 67.817c-.984.325-2.078.434-3.172.434-4.047 0-6.453-2.817-6.453-7.259 0-4.441 2.406-7.258 6.453-7.258 3.282 0 5.25 1.625 5.25 4.333 0 2.059-1.312 3.25-3.937 3.684l-5.688.975c.328 2.383 1.969 3.9 4.375 3.9.985 0 1.86-.109 2.735-.325l.875-.217c.218 0 .328 0 .328.217l.328 1.191c0 .217 0 .325-.219.325h-.875zm-2.187-7.691c1.531-.217 2.297-.975 2.297-2.059 0-1.625-1.204-2.6-3.391-2.6-2.734 0-4.375 1.842-4.484 5.525l5.578-.866zM140.219 67.708c0 .216-.11.216-.219.216h-1.422c-.219 0-.219-.108-.219-.216V55.79h-2.297c-.218 0-.218-.108-.218-.217v-1.191c0-.217.109-.217.218-.217h2.297v-3.467c0-.108.11-.216.219-.325l1.422-.433c.219-.108.328 0 .328.217v4.008h4.266c.218 0 .218.108.218.217v1.191c0 .217-.109.217-.218.217h-4.266l-.109 11.917z"/>
        <path fill="#5F2161" d="M94.39 67.707c0 .217-.109.217-.218.217H92.75c-.219 0-.219-.108-.219-.217v-9.1H81.266v9.1c0 .217-.11.217-.22.217h-1.421c-.219 0-.219-.108-.219-.217V48.316c0-.217.11-.217.219-.217h1.422c.219 0 .219.109.219.217v8.558h11.156v-8.558c0-.217.11-.217.219-.217h1.421c.22 0 .22.109.22.217v19.391h.109zM108.609 67.817c-.984.325-2.078.434-3.171.434-4.047 0-6.454-2.817-6.454-7.259 0-4.441 2.407-7.258 6.454-7.258 3.281 0 5.25 1.625 5.25 4.333 0 2.059-1.313 3.25-3.938 3.684l-5.687.975c.328 2.383 1.968 3.9 4.375 3.9.984 0 1.859-.109 2.734-.325l.875-.217c.219 0 .328 0 .328.217l.328 1.191c0 .217 0 .325-.219.325h-.875zm-2.187-7.691c1.531-.217 2.297-.975 2.297-2.059 0-1.625-1.203-2.6-3.391-2.6-2.734 0-4.375 1.842-4.484 5.525l5.578-.866zM116.266 54.167c.875-.216 1.859-.433 3.171-.433 3.61 0 5.797 2.058 5.797 5.633v8.234c0 .216-.109.216-.218.216h-.875c-.219 0-.219-.108-.329-.216l-.109-1.3c-.109-.325-.328-.325-.547 0-.984 1.191-2.515 1.841-4.594 1.841-2.953 0-4.703-1.625-4.703-4.225 0-2.491 1.75-4.225 5.141-4.225h4.375v-.325c0-2.491-1.422-3.9-3.938-3.9-.984 0-1.968.109-2.625.325l-.984.325c-.219.109-.328 0-.328-.216l-.328-1.084c-.11-.216 0-.325.219-.325l.875-.325zm2.625 7.259c-2.188 0-3.282.975-3.282 2.491 0 1.625 1.094 2.6 2.953 2.6 3.063 0 4.704-1.733 4.704-4.766v-.325h-4.375zM132.016 67.708c0 .217-.11.217-.219.217h-1.422c-.219 0-.219-.109-.219-.217V47.666c0-.216.11-.216.219-.216h1.422c.219 0 .219.108.219.216v20.042zM149.844 53.083c0 1.192-.11 2.058-.219 2.925-.11.217.109.325.328.108.984-1.408 2.516-2.383 4.703-2.383 3.172 0 5.141 2.167 5.141 5.633V67.6c0 .216-.11.216-.219.216h-1.422c-.219 0-.219-.108-.219-.216v-8.017c0-2.492-1.312-4.008-3.5-4.008-3.39 0-4.593 2.708-4.593 5.85v6.391c0 .217-.11.217-.219.217h-1.422c-.219 0-.219-.108-.219-.217v-20.15c0-.216.11-.216.219-.216h1.422c.219 0 .219.108.219.216v5.417zM168.984 57.958c-3.172-1.192-4.375-2.709-4.375-5.2 0-3.142 2.516-5.092 6.344-5.092 1.531 0 2.953.217 4.375.758l1.422.434c.219.108.219.216.219.325l-.438 1.191c-.109.109-.219.217-.328.109l-1.422-.434c-1.312-.433-2.515-.65-3.937-.65-2.625 0-4.375 1.192-4.375 3.25 0 1.3.656 2.6 3.172 3.467l4.046 1.517c2.735.975 4.375 2.383 4.375 4.983 0 3.467-2.953 5.417-7 5.417-2.187 0-3.828-.325-5.468-.975l-1.203-.434c-.11-.108-.219-.216-.11-.325l.438-1.191c.109-.217.218-.217.328-.217l1.203.433c1.422.542 2.844.867 4.922.867 2.734 0 5.031-1.3 5.031-3.683 0-1.734-1.531-2.709-3.172-3.359l-4.047-1.191zM184.625 53.083c0 1.192-.109 2.058-.219 2.925-.109.217.11.325.328.108.985-1.408 2.516-2.383 4.594-2.383 3.172 0 5.141 2.167 5.141 5.633V67.6c0 .216-.11.216-.219.216h-1.422c-.219 0-.219-.108-.219-.216v-8.017c0-2.492-1.312-4.008-3.5-4.008-3.39 0-4.593 2.708-4.593 5.85v6.391c0 .217-.11.217-.219.217h-1.422c-.219 0-.219-.108-.219-.217v-20.15c0-.216.11-.216.219-.216h1.422c.219 0 .219.108.219.216v5.417h.109zM201.141 54.167c.875-.216 1.859-.433 3.172-.433 3.609 0 5.796 2.058 5.796 5.633v8.234c0 .216-.109.216-.218.216h-.985c-.218 0-.218-.108-.328-.216l-.109-1.3c-.11-.325-.328-.325-.547 0-.984 1.191-2.516 1.841-4.703 1.841-2.953 0-4.703-1.625-4.703-4.225 0-2.491 1.75-4.225 5.14-4.225h4.375v-.325c0-2.491-1.422-3.9-3.937-3.9-.985 0-1.969.109-2.625.325l-.985.325c-.218.109-.328 0-.328-.216l-.328-1.084c-.109-.216 0-.325.219-.325l1.094-.325zm2.625 7.259c-2.188 0-3.282.975-3.282 2.491 0 1.625 1.094 2.6 2.954 2.6 3.062 0 4.703-1.733 4.703-4.766v-.325h-4.375zM222.031 55.25c0 .217-.109.217-.219.217-3.171.109-4.921 2.709-4.921 7.692v4.55c0 .217-.11.217-.219.217h-1.422c-.219 0-.219-.109-.219-.217V54.276c0-.217.11-.217.219-.217h.875c.219 0 .219.108.328.217l.219 2.166c.109.217.219.325.328.109 1.094-1.734 2.516-2.709 4.812-2.817.219 0 .219.108.219.217v1.3zM234.828 67.817c-.984.325-2.078.434-3.172.434-4.047 0-6.453-2.817-6.453-7.259 0-4.441 2.406-7.258 6.453-7.258 3.282 0 5.25 1.625 5.25 4.333 0 2.059-1.312 3.25-3.937 3.684l-5.688.975c.328 2.383 1.969 3.9 4.375 3.9.985 0 1.86-.109 2.735-.325l.875-.217c.218 0 .328 0 .328.217l.328 1.191c0 .217 0 .325-.219.325h-.875zm-2.187-7.691c1.531-.217 2.297-.975 2.297-2.059 0-1.625-1.204-2.6-3.391-2.6-2.734 0-4.375 1.842-4.484 5.525l5.578-.866zM140.219 67.708c0 .216-.11.216-.219.216h-1.422c-.219 0-.219-.108-.219-.216V55.79h-2.297c-.218 0-.218-.108-.218-.217v-1.191c0-.217.109-.217.218-.217h2.297v-3.467c0-.108.11-.216.219-.325l1.422-.433c.219-.108.328 0 .328.217v4.008h4.266c.218 0 .218.108.218.217v1.191c0 .217-.109.217-.218.217h-4.266l-.109 11.917zM243.141 14.95c-.985-.325-1.313-.758-1.313-1.516 0-.975.766-1.517 1.86-1.517.437 0 .875.108 1.203.217l.437.108c.11 0 .11.108.11.108l-.219.542-.11.108-.437-.108c-.328-.108-.656-.217-.984-.217-.547 0-.985.217-.985.65 0 .325.219.542.766.759l.875.325c.875.325 1.312.758 1.312 1.516 0 .975-.765 1.517-1.968 1.517-.547 0-.985-.108-1.532-.217l-.437-.108c-.11 0-.11-.108-.11-.108l.219-.65s.11-.109.11 0l.437.108c.438.108.766.217 1.203.217.547 0 1.094-.217 1.094-.759 0-.325-.328-.541-.766-.758l-.765-.217zM252 17.334c0 .108 0 .108 0 0l-.766.108c-.109 0-.109 0-.109-.108v-2.492c0-.433 0-1.083.109-1.517 0-.108-.109-.108-.109 0-.109.217-.219.434-.219.65l-.765 1.734c-.11.216-.219.541-.329.758 0 0 .001.108-.109.108h-.656s-.109 0-.109-.108c-.11-.217-.219-.542-.329-.758l-.765-1.734c-.11-.216-.219-.433-.219-.65 0-.108-.109-.108-.109 0 .109.434.109 1.084.109 1.517v2.492c0 .108 0 .108-.109.108h-.766c-.109 0-.109 0-.109-.108v-5.309c0-.108 0-.108.109-.108h1.094s.109 0 .109.108c.109.217.109.434.219.542l.766 1.842c.109.325.218.65.328.866 0 .109.109.109.109 0 .109-.325.219-.65.328-.866l.766-1.842c.109-.217.109-.433.219-.542 0 0 0-.108.109-.108h1.094s.109 0 .109.108v5.309zM99.422 30.224c0 7.367-3.828 11.7-10.281 11.7-6.563 0-10.282-4.333-10.282-11.7V13.108c0-.217.11-.325.328-.325h1.97c.218 0 .327.108.327.325v17.008c0 5.742 2.844 9.1 7.657 9.1 4.812 0 7.656-3.358 7.656-9.1V13.108c0-.217.11-.325.328-.325h1.969c.218 0 .328.108.328.325v17.116zM107.844 24.374c.109.325.328.325.656 0 1.531-2.275 3.719-3.358 6.453-3.358 4.484 0 7.109 3.033 7.109 8.125v11.917c0 .216-.109.325-.328.325h-1.859c-.219 0-.328-.109-.328-.325v-11.7c0-3.575-1.75-5.85-4.813-5.85-4.047 0-6.343 3.033-6.343 8.341v9.1c0 .217-.11.325-.329.325h-1.968c-.219 0-.328-.108-.328-.325V21.883c0-.217.109-.325.328-.325h1.203c.219 0 .328.108.328.325l.219 2.491zM131.687 41.058c0 .217-.109.325-.328.325H129.5c-.219 0-.328-.108-.328-.325V21.883c0-.217.109-.325.437-.325h1.86c.218 0 .328.108.328.325v19.175h-.11zm0-27.408c0 1.191-.656 1.841-1.75 1.841-1.093 0-1.75-.65-1.75-1.841 0-1.192.657-1.842 1.75-1.842 1.204 0 1.75.65 1.75 1.842zM149.625 34.016c-.984 2.275-1.859 5.092-2.406 7.15 0 .217-.219.325-.438.325h-2.187c-.219 0-.328-.108-.438-.325-.547-2.058-1.422-4.875-2.406-7.15l-5.25-12.025c-.109-.325 0-.433.328-.433h2.078c.219 0 .328.108.438.325l4.593 10.508c.766 1.842 1.313 3.792 1.641 4.984.109.325.438.325.547 0 .219-1.3.875-3.142 1.641-4.984l4.593-10.508c.11-.217.219-.325.438-.325h2.078c.328 0 .437.217.328.433l-5.578 12.025zM171.391 41.276c-1.422.433-2.844.65-4.375.65-5.579 0-8.86-4.009-8.86-10.4 0-6.392 3.391-10.4 8.86-10.4 4.593 0 7.328 2.274 7.328 6.174 0 2.925-1.75 4.659-5.469 5.309l-7.875 1.3c.547 3.467 2.734 5.525 6.016 5.525 1.421 0 2.625-.217 3.718-.542l1.203-.325c.219 0 .438 0 .438.325l.437 1.625c0 .217 0 .433-.328.433l-1.093.325zm-2.954-11.05c2.188-.325 3.282-1.3 3.282-2.925 0-2.384-1.75-3.684-4.703-3.684-3.719 0-6.016 2.6-6.125 8.017l7.546-1.409zM189.328 23.184c0 .216-.109.325-.328.325-4.375.216-6.781 4.008-6.781 11.05v6.5c0 .217-.11.325-.329.325h-1.859c-.219 0-.328-.108-.328-.325V21.884c0-.217.109-.325.328-.325h1.203c.219 0 .328.108.438.325l.328 3.142c.109.325.328.433.547.108 1.531-2.492 3.5-3.9 6.562-4.009.219 0 .328.109.328.326v1.733h-.109zM197.969 31.633c-2.954-.759-4.375-2.384-4.375-5.2 0-3.359 2.515-5.417 6.89-5.417 1.75 0 3.5.217 4.703.65l1.532.542c.218.108.328.216.218.541l-.437 1.625c-.11.217-.219.325-.438.217l-1.531-.433c-1.094-.325-2.625-.542-4.047-.542-2.734 0-4.375 1.192-4.375 2.925 0 1.408.766 2.383 2.625 2.925l4.703 1.408c3.172.867 4.485 2.6 4.485 5.309 0 3.575-2.735 5.742-7.328 5.742-2.407 0-4.485-.326-6.125-.976l-1.094-.325c-.219-.108-.328-.216-.219-.541l.547-1.625c.109-.217.219-.325.437-.217l1.094.325c1.422.542 3.281.867 5.36.867 2.953 0 4.703-1.3 4.703-3.25 0-1.517-.875-2.492-2.735-3.034l-4.593-1.516zM215.359 21.666c1.203-.325 2.625-.65 4.375-.65 4.922 0 7.985 3.033 7.985 8.125v11.917c0 .217-.11.325-.329.325h-1.203c-.218 0-.328-.108-.437-.325l-.11-1.842c-.109-.542-.437-.542-.765 0-1.422 1.842-3.391 2.709-6.453 2.709-4.047 0-6.453-2.275-6.453-5.959 0-3.575 2.515-6.067 7.109-6.175h6.125v-.542c0-3.575-1.969-5.633-5.469-5.633-1.422 0-2.625.217-3.719.542l-1.421.433c-.219.108-.438 0-.438-.217l-.437-1.625c-.11-.216 0-.433.218-.541l1.422-.542zm3.61 10.4c-3.063 0-4.485 1.408-4.485 3.575 0 2.384 1.422 3.683 4.047 3.683 4.156 0 6.563-2.491 6.563-6.825v-.541h-6.125v.108zM233.625 12.35c0-.217.109-.326.328-.326h1.859c.219 0 .329.109.329.325v28.709c0 .216-.11.325-.329.325h-1.859c-.219 0-.328-.109-.328-.325V12.349z"/>
        <path fill="#F58466" d="M62.344 33.8c-.875-4.224-1.532-7.258-2.953-10.4-.985-2.166-4.703-7.908-5.907-8.558-.437-.216-.547.434-.109 1.192.438.65 1.531 2.817.875 3.033-.328.109-1.969-4.441-5.25-5.85-.219 0-.328.542 0 1.192 1.75 2.383 3.281 5.308 2.625 5.417-.328 0-2.516-4.875-5.688-5.959-.437-.108-.328.975.766 2.275 1.75 2.059 2.516 4.334 2.188 4.442-.22.108-2.844-4.117-4.813-4.442-.547-.108-.219 1.192.766 2.492 2.734 3.575 3.172 4.983 3.062 5.633-.11.434-1.531-.975-2.078-1.191-1.969-.975-2.406-.325-1.969.216.875 1.3 5.25 4.767 6.672 11.809.438 2.058.547 7.041-.328 10.941-.875 3.575-1.86 5.2-3.062 7.15-1.313 2.059-3.282 4.117-5.688 5.634-3.39 2.275-7 2.708-9.734 2.6-3.938-.109-6.782-1.192-8.969-2.709 1.313 1.517 2.734 2.925 4.375 4.225 3.938 3.359 11.266 7.584 21 9.534 1.313-.975 2.625-2.059 3.719-3.25 2.515-2.6 4.703-5.417 6.343-8.667 1.641-3.467 3.61-7.367 4.266-12.675.547-4.658.984-8.883-.11-14.083z"/>
        <path fill="#FEC465" d="M22.86 58.825c-1.969-1.842-4.813-5.308-6.125-8.125-2.297-4.983-2.735-10.183-1.969-15.817.984-6.608 2.406-11.266 5.578-19.066 0-2.384-4.156 2.491-4.484 1.95-.985-1.734 5.469-13.65 4.156-15.059-.437-.433-1.312.759-2.297 2.492-1.312 2.275-2.406 5.525-2.953 5.2-.328-.217-.11-2.167.547-4.658.656-2.6 1.64-5.525.766-5.742-1.313-.217-3.282 8.45-4.594 8.883-.438.109 0-2.816.219-4.983.109-1.517.656-3.142-.547-2.492-.985.434-2.953 7.042-3.282 6.609-.218-.217-.109-1.734-.109-3.25.11-1.192-.11-2.384-.656-1.3-.766 1.95-1.203 3.358-1.86 5.416C2.735 16.25.985 24.05.438 32.175.11 35.75-.11 39.325.11 43.008c.219 3.684.984 7.475 2.078 11.267 1.094 3.792 2.953 7.367 5.469 10.942 1.75 2.491 4.812 5.741 7.984 7.908 3.938 2.708 6.89 3.792 10.063 4.442 3.062.541 5.796.541 8.64.325 6.016-.434 13.781-5.309 13.781-5.309-9.734-1.841-17.062-6.175-21-9.533-1.53-1.3-2.953-2.708-4.265-4.225z"/>
    </g>
    <defs>
        <clipPath id="clip0">
            <path fill="#fff" d="M0 0H252V78H0z"/>
        </clipPath>
    </defs>
</svg>
