<svg width="36" height="34" viewBox="0 0 36 34" fill="none" xmlns="http://www.w3.org/2000/svg">
<path d="M10.4607 0.5C6.73565 0.5 4.08219 2.18389 2.39827 4.53117C0.714362 6.87844 0 9.88908 0 12.6446C0 17.135 1.96455 21.1662 5.15378 24.6106C8.34301 28.0549 12.8079 30.938 17.8341 33.1322C17.9362 33.1832 18.0638 33.1832 18.1658 33.1322C26.4068 29.5347 33.0914 24.1513 35.2601 17.3646C35.3366 17.135 35.2091 16.9054 34.9794 16.8544C34.9539 16.8544 34.9029 16.8288 34.8774 16.8288H24.978L22.5797 11.2158C22.4777 11.0117 22.2225 10.9096 22.0184 11.0117C21.9164 11.0627 21.8398 11.1393 21.8143 11.2413L18.0638 22.1102L14.6704 9.99113C14.6194 9.76151 14.3643 9.63394 14.1602 9.71048C14.0326 9.736 13.9305 9.83805 13.8795 9.96562L11.4557 16.8033H1.55634C1.14812 15.4511 0.867445 14.0734 0.867445 12.6191C0.867445 10.0167 1.58184 7.1591 3.11267 4.99043C4.66902 2.82175 7.0163 1.31643 10.4862 1.31643C13.2162 1.31643 15.9716 2.46455 17.6811 4.91387C17.8086 5.09247 18.0893 5.1435 18.2679 5.01593C18.2934 4.99042 18.3444 4.9649 18.37 4.91387C20.0794 2.49006 22.8604 1.31643 25.5648 1.31643C29.0347 1.31643 31.4075 2.82175 32.9383 4.99043C34.4947 7.1591 35.1835 10.0167 35.1835 12.6191C35.1835 13.3079 35.1325 13.9713 35.0305 14.6602C34.9794 14.8898 35.107 15.1194 35.3366 15.1704C35.5663 15.2215 35.7959 15.0939 35.8469 14.8643C35.8469 14.8388 35.8469 14.8133 35.8469 14.7877C35.949 14.0734 36 13.359 36 12.6446C36 9.88908 35.2601 6.87844 33.6017 4.53117C31.9178 2.18389 29.2644 0.5 25.5393 0.5C22.7328 0.5 19.9008 1.67364 17.9872 4.07194C16.1247 1.67364 13.2672 0.5 10.4607 0.5ZM34.265 17.6708C32.0198 23.7941 25.82 28.8459 18.0128 32.2902C13.1141 30.1215 8.82778 27.3405 5.76612 24.0492C3.95464 22.1102 2.65343 19.9415 1.81148 17.6708H11.7108C11.8894 17.6708 12.0425 17.5432 12.0935 17.3901L14.1602 11.522L17.579 23.6665C17.63 23.8962 17.8852 24.0238 18.0893 23.9472C18.2168 23.9217 18.3189 23.8196 18.37 23.6921L22.197 12.5425L24.2891 17.4156C24.3402 17.5687 24.4933 17.6708 24.6719 17.6708" fill="white" fill-opacity="0.6"/>
<path d="M34.2649 17.6866C32.0197 23.8099 25.8199 28.8617 18.0126 32.306C13.114 30.1374 8.82767 27.3564 5.76601 24.0651C3.95453 22.126 2.65333 19.9574 1.81137 17.6866H11.7107C11.8893 17.6866 12.0424 17.559 12.0934 17.406L14.1601 11.5378L17.5789 23.6824C17.6299 23.912 17.8851 24.0396 18.0892 23.963C18.2167 23.9375 18.3188 23.8354 18.3699 23.7079L22.1969 12.5583L24.289 17.4315C24.3401 17.5846 24.4932 17.6866 24.6718 17.6866" fill="white" fill-opacity="0.4"/>
</svg>
